# Blender 4.2.0
# www.blender.org
mtllib doors.mtl
o frontLeft
v 0.013440 0.320146 0.267746
v 0.013440 0.320146 0.291235
v 0.013440 0.345146 0.291235
v 0.013440 0.345146 0.267746
v 0.054391 0.320146 0.267746
v 0.054391 0.345146 0.267746
v 0.054391 0.345146 0.291235
v 0.054391 0.320146 0.291235
v 0.079391 0.320146 0.267746
v 0.079391 0.345146 0.267746
v 0.079391 0.345146 0.291235
v 0.079391 0.320146 0.291235
v 0.054391 -0.042069 -0.228418
v 0.054391 -0.067069 -0.228418
v 0.079391 -0.042069 -0.228418
v 0.079391 -0.067069 -0.228418
v 0.054391 -0.042069 -0.251906
v 0.054391 -0.067069 -0.251906
v 0.079391 -0.042069 -0.251906
v 0.079391 -0.067069 -0.251906
v 0.013440 -0.042069 -0.228418
v 0.013440 -0.067069 -0.228418
v 0.013440 -0.042069 -0.251906
v 0.013440 -0.067069 -0.251906
v 0.013440 0.005893 0.267746
v 0.013440 0.005893 0.291235
v 0.013440 0.030893 0.291235
v 0.013440 0.030893 0.267746
v 0.054391 0.005893 0.267746
v 0.054391 0.030893 0.267746
v 0.054391 0.030893 0.291235
v 0.054391 0.005893 0.291235
v 0.079391 0.005893 0.267746
v 0.079391 0.030893 0.267746
v 0.079391 0.030893 0.291235
v 0.079391 0.005893 0.291235
v 0.054391 -0.356322 -0.228418
v 0.054391 -0.381322 -0.228418
v 0.079391 -0.356322 -0.228418
v 0.079391 -0.381322 -0.228418
v 0.054391 -0.356322 -0.251906
v 0.054391 -0.381322 -0.251906
v 0.079391 -0.356322 -0.251906
v 0.079391 -0.381322 -0.251906
v 0.013440 -0.356322 -0.228418
v 0.013440 -0.381322 -0.228418
v 0.013440 -0.356322 -0.251906
v 0.013440 -0.381322 -0.251906
v 0.013440 -0.970953 -0.340977
v -0.014018 -0.970953 -0.340977
v 0.013440 -0.648791 -0.340977
v 0.013440 1.176794 -0.340977
v -0.014018 1.176794 -0.340977
v -0.014018 -0.648791 -0.340977
v 0.013440 1.145879 -0.217492
v -0.014018 1.145879 -0.217492
v 0.013440 -0.970953 0.340977
v 0.013440 1.145879 0.261434
v -0.014018 -0.970953 0.340977
v -0.014018 1.145879 0.261434
v 0.013440 -0.617875 -0.217492
v -0.014018 -0.617875 -0.217492
v -0.014018 -0.617875 0.261434
v 0.013440 -0.617875 0.261434
v -0.014018 1.176794 0.340977
v 0.013440 1.176794 0.340977
v -0.014018 -0.648791 0.340977
v 0.013440 -0.648791 0.340977
v 0.013440 -0.648791 -0.298178
v 0.013440 1.176794 -0.298179
vn -0.0000 -0.0000 -1.0000
vn -0.0000 -0.0000 1.0000
vn -0.0000 1.0000 -0.0000
vn -0.0000 -1.0000 -0.0000
vn -0.0000 -0.7883 0.6152
vn 1.0000 -0.0000 -0.0000
vn -0.0000 0.7883 -0.6152
vn -1.0000 -0.0000 -0.0000
vt 0.992501 0.783442
vt 0.994302 0.784478
vt 0.994302 0.783442
vt 0.995402 0.289551
vt 0.993601 0.288515
vt 0.993601 0.289551
vt 0.678705 0.898853
vt 0.676904 0.897817
vt 0.676904 0.898853
vt 0.908119 0.698053
vt 0.906318 0.697017
vt 0.906318 0.698053
vt 0.675804 0.897817
vt 0.992501 0.288515
vt 0.905219 0.697017
vt 0.906318 0.675129
vt 0.742769 0.407533
vt 0.741326 0.407278
vt 0.741920 0.408127
vt 0.906318 0.674093
vt 0.905219 0.675129
vt 0.675804 0.920741
vt 0.675804 0.898853
vt 0.742175 0.434667
vt 0.851709 0.109633
vt 0.852545 0.083105
vt 0.851709 0.082493
vt 0.995402 0.296804
vt 0.994302 0.295768
vt 0.994302 0.296804
vt 0.741920 0.436110
vt 0.741326 0.435261
vt 0.675804 0.921777
vt 0.676904 0.920741
vt 0.908119 0.675129
vt 0.993537 0.933497
vt 0.992501 0.932461
vt 0.992501 0.933497
vt 0.994302 0.790695
vt 0.992501 0.789659
vt 0.992501 0.790695
vt 0.992501 0.295768
vt 0.678705 0.921777
vt 0.676904 0.921777
vt 0.992501 0.780334
vt 0.994302 0.781370
vt 0.994302 0.780334
vt 0.995402 0.290587
vt 0.993601 0.290587
vt 0.209937 0.915483
vt 0.208136 0.914447
vt 0.208136 0.915483
vt 0.911020 0.698053
vt 0.909219 0.697017
vt 0.909219 0.698053
vt 0.207037 0.914447
vt 0.992501 0.289551
vt 0.908119 0.697017
vt 0.909219 0.675129
vt 0.738440 0.407533
vt 0.736997 0.407278
vt 0.737591 0.408127
vt 0.909219 0.674093
vt 0.207037 0.937370
vt 0.207037 0.915483
vt 0.737846 0.434667
vt 0.991465 0.458244
vt 0.976453 0.436357
vt 0.975416 0.436357
vt 0.995402 0.293696
vt 0.994302 0.292659
vt 0.994302 0.293696
vt 0.737591 0.436110
vt 0.736997 0.435261
vt 0.207037 0.938406
vt 0.208136 0.937370
vt 0.911020 0.675129
vt 0.993537 0.929353
vt 0.992501 0.928317
vt 0.992501 0.929353
vt 0.994302 0.786551
vt 0.992501 0.785515
vt 0.992501 0.786551
vt 0.992501 0.292659
vt 0.209937 0.938406
vt 0.208136 0.938406
vt 0.193445 0.858564
vt 0.192237 0.845212
vt 0.192237 0.858564
vt 0.788205 0.781421
vt 0.767078 0.708320
vt 0.767078 0.781421
vt 0.217695 0.656520
vt 0.216487 0.580857
vt 0.216487 0.656520
vt 0.791104 0.510739
vt 0.769977 0.437638
vt 0.769977 0.510739
vt 0.761631 0.707039
vt 0.766468 0.436357
vt 0.794664 0.436357
vt 0.796552 0.525372
vt 0.794664 0.512020
vt 0.766468 0.512020
vt 0.217695 0.669872
vt 0.216487 0.669872
vt 0.791714 0.796054
vt 0.761631 0.782702
vt 0.761631 0.796054
vt 0.791104 0.437638
vt 0.791714 0.707039
vt 0.788205 0.708320
vt 0.791714 0.782702
vt 0.796552 0.512020
vt 0.193445 0.845212
vt 0.216114 0.843519
vt 0.000000 0.000000
vt 0.992501 0.784478
vt 0.995402 0.288515
vt 0.678705 0.897817
vt 0.905219 0.698053
vt 0.742175 0.406684
vt 0.905219 0.674093
vt 0.852545 0.110246
vt 0.995402 0.295768
vt 0.742769 0.435516
vt 0.908119 0.674093
vt 0.993537 0.932461
vt 0.994302 0.789659
vt 0.992501 0.296804
vt 0.678705 0.920741
vt 0.992501 0.781370
vt 0.209937 0.914447
vt 0.911020 0.697017
vt 0.992501 0.290587
vt 0.737846 0.406684
vt 0.992501 0.458244
vt 0.995402 0.292659
vt 0.738440 0.435516
vt 0.911020 0.674093
vt 0.993537 0.928317
vt 0.994302 0.785515
vt 0.992501 0.293696
vt 0.209937 0.937370
vt 0.217695 0.580857
vt 0.796552 0.436357
vt 0.766468 0.525372
s 0
usemtl metal
f 1/1/1 6/2/1 5/3/1
f 3/4/2 8/5/2 7/6/2
f 4/7/3 7/8/3 6/9/3
f 2/10/4 5/11/4 8/12/4
f 11/13/3 6/9/3 7/8/3
f 12/14/2 7/6/2 8/5/2
f 9/15/4 8/12/4 5/11/4
f 14/16/5 9/15/5 5/11/5
f 10/17/6 12/18/6 9/19/6
f 18/20/4 16/21/4 14/16/4
f 15/22/7 6/9/7 10/23/7
f 9/19/6 15/24/6 10/17/6
f 13/25/8 5/26/8 6/27/8
f 19/28/1 18/29/1 17/30/1
f 20/31/6 15/24/6 16/32/6
f 19/33/3 13/34/3 15/22/3
f 22/35/4 18/20/4 14/16/4
f 23/36/8 22/37/8 21/38/8
f 21/39/2 14/40/2 13/41/2
f 24/42/1 17/30/1 18/29/1
f 23/43/3 13/34/3 17/44/3
f 25/45/1 30/46/1 29/47/1
f 27/48/2 32/6/2 31/49/2
f 28/50/3 31/51/3 30/52/3
f 26/53/4 29/54/4 32/55/4
f 35/56/3 30/52/3 31/51/3
f 36/57/2 31/49/2 32/6/2
f 33/58/4 32/55/4 29/54/4
f 38/59/5 33/58/5 29/54/5
f 34/60/6 36/61/6 33/62/6
f 42/63/4 40/35/4 38/59/4
f 39/64/7 30/52/7 34/65/7
f 33/62/6 39/66/6 34/60/6
f 37/67/8 29/68/8 30/69/8
f 43/70/1 42/71/1 41/72/1
f 44/73/6 39/66/6 40/74/6
f 43/75/3 37/76/3 39/64/3
f 46/77/4 42/63/4 38/59/4
f 47/78/8 46/79/8 45/80/8
f 45/81/2 38/82/2 37/83/2
f 48/84/1 41/72/1 42/71/1
f 47/85/3 37/76/3 41/86/3
f 1/1/1 4/118/1 6/2/1
f 3/4/2 2/119/2 8/5/2
f 4/7/3 3/120/3 7/8/3
f 2/10/4 1/58/4 5/11/4
f 11/13/3 10/23/3 6/9/3
f 12/14/2 11/57/2 7/6/2
f 9/15/4 12/121/4 8/12/4
f 14/16/5 16/21/5 9/15/5
f 10/17/6 11/122/6 12/18/6
f 18/20/4 20/123/4 16/21/4
f 15/22/7 13/34/7 6/9/7
f 9/19/6 16/32/6 15/24/6
f 13/25/8 14/124/8 5/26/8
f 19/28/1 20/125/1 18/29/1
f 20/31/6 19/126/6 15/24/6
f 19/33/3 17/44/3 13/34/3
f 22/35/4 24/127/4 18/20/4
f 23/36/8 24/128/8 22/37/8
f 21/39/2 22/129/2 14/40/2
f 24/42/1 23/130/1 17/30/1
f 23/43/3 21/131/3 13/34/3
f 25/45/1 28/132/1 30/46/1
f 27/48/2 26/4/2 32/6/2
f 28/50/3 27/133/3 31/51/3
f 26/53/4 25/134/4 29/54/4
f 35/56/3 34/65/3 30/52/3
f 36/57/2 35/135/2 31/49/2
f 33/58/4 36/10/4 32/55/4
f 38/59/5 40/35/5 33/58/5
f 34/60/6 35/136/6 36/61/6
f 42/63/4 44/127/4 40/35/4
f 39/64/7 37/76/7 30/52/7
f 33/62/6 40/74/6 39/66/6
f 37/67/8 38/137/8 29/68/8
f 43/70/1 44/138/1 42/71/1
f 44/73/6 43/139/6 39/66/6
f 43/75/3 41/86/3 37/76/3
f 46/77/4 48/140/4 42/63/4
f 47/78/8 48/141/8 46/79/8
f 45/81/2 46/142/2 38/82/2
f 48/84/1 47/143/1 41/72/1
f 47/85/3 45/144/3 37/76/3
usemtl glass#exteriortranslucent
f 63/90/8 56/91/8 62/92/8
f 61/96/6 58/97/6 64/98/6
f 63/90/8 60/112/8 56/91/8
f 61/96/6 55/110/6 58/97/6
usemtl Material
f 50/87/1 51/88/1 49/89/1
f 68/93/2 65/94/2 67/95/2
f 53/99/3 66/100/3 70/101/3
f 49/102/6 69/103/6 68/104/6
f 57/105/2 67/95/2 59/106/2
f 59/107/8 54/108/8 50/109/8
f 65/111/8 56/91/8 60/112/8
f 56/91/8 54/108/8 62/92/8
f 67/113/8 60/112/8 63/90/8
f 62/92/8 67/113/8 63/90/8
f 51/114/6 70/101/6 69/103/6
f 54/115/1 52/116/1 51/88/1
f 63/90/3 61/96/3 62/92/3
f 64/117/1 60/117/1 58/117/1
f 55/117/2 62/117/2 61/117/2
f 58/117/4 56/117/4 55/117/4
f 50/87/1 54/115/1 51/88/1
f 68/93/2 66/145/2 65/94/2
f 70/101/3 52/146/3 53/99/3
f 53/99/3 65/94/3 66/100/3
f 68/104/6 57/147/6 49/102/6
f 49/102/6 51/114/6 69/103/6
f 57/105/2 68/93/2 67/95/2
f 59/107/8 67/113/8 54/108/8
f 65/111/8 53/99/8 56/91/8
f 56/91/8 53/99/8 54/108/8
f 67/113/8 65/111/8 60/112/8
f 62/92/8 54/108/8 67/113/8
f 51/114/6 52/146/6 70/101/6
f 54/115/1 53/99/1 52/116/1
f 63/90/3 64/98/3 61/96/3
f 64/117/1 63/117/1 60/117/1
f 55/117/2 56/117/2 62/117/2
f 58/117/4 60/117/4 56/117/4
usemtl Wall#interior
f 69/103/6 55/110/6 61/96/6
f 55/110/6 66/100/6 58/97/6
f 58/97/6 68/104/6 64/98/6
f 68/104/6 61/96/6 64/98/6
f 69/103/6 70/101/6 55/110/6
f 55/110/6 70/101/6 66/100/6
f 58/97/6 66/100/6 68/104/6
f 68/104/6 69/103/6 61/96/6
o frontRight
v 0.013440 0.320146 -0.267746
v 0.013440 0.320146 -0.291234
v 0.013440 0.345146 -0.291234
v 0.013440 0.345146 -0.267746
v 0.054391 0.320146 -0.267746
v 0.054391 0.345146 -0.267746
v 0.054391 0.345146 -0.291234
v 0.054391 0.320146 -0.291234
v 0.079391 0.320146 -0.267746
v 0.079391 0.345146 -0.267746
v 0.079391 0.345146 -0.291234
v 0.079391 0.320146 -0.291234
v 0.054391 -0.042069 0.228418
v 0.054391 -0.067069 0.228418
v 0.079391 -0.042069 0.228418
v 0.079391 -0.067069 0.228418
v 0.054391 -0.042069 0.251906
v 0.054391 -0.067069 0.251906
v 0.079391 -0.042069 0.251906
v 0.079391 -0.067069 0.251906
v 0.013440 -0.042069 0.228418
v 0.013440 -0.067069 0.228418
v 0.013440 -0.042069 0.251906
v 0.013440 -0.067069 0.251906
v 0.013440 0.005893 -0.267746
v 0.013440 0.005893 -0.291234
v 0.013440 0.030893 -0.291234
v 0.013440 0.030893 -0.267746
v 0.054391 0.005893 -0.267746
v 0.054391 0.030893 -0.267746
v 0.054391 0.030893 -0.291234
v 0.054391 0.005893 -0.291234
v 0.079391 0.005893 -0.267746
v 0.079391 0.030893 -0.267746
v 0.079391 0.030893 -0.291234
v 0.079391 0.005893 -0.291234
v 0.054391 -0.356322 0.228418
v 0.054391 -0.381322 0.228418
v 0.079391 -0.356322 0.228418
v 0.079391 -0.381322 0.228418
v 0.054391 -0.356322 0.251906
v 0.054391 -0.381322 0.251906
v 0.079391 -0.356322 0.251906
v 0.079391 -0.381322 0.251906
v 0.013440 -0.356322 0.228418
v 0.013440 -0.381322 0.228418
v 0.013440 -0.356322 0.251906
v 0.013440 -0.381322 0.251906
v 0.013440 -0.970953 0.340977
v -0.014018 -0.970953 0.340977
v 0.013440 -0.648791 0.340977
v 0.013440 1.176794 0.340977
v -0.014018 1.176794 0.340977
v -0.014018 -0.648791 0.340977
v 0.013440 1.145879 0.217492
v -0.014018 1.145879 0.217492
v 0.013440 -0.970953 -0.340977
v 0.013440 1.145879 -0.261434
v -0.014018 -0.970953 -0.340977
v -0.014018 1.145879 -0.261434
v 0.013440 -0.617875 0.217492
v -0.014018 -0.617875 0.217492
v -0.014018 -0.617875 -0.261434
v 0.013440 -0.617875 -0.261434
v -0.014018 1.176794 -0.340977
v 0.013440 1.176794 -0.340977
v -0.014018 -0.648791 -0.340977
v 0.013440 -0.648791 -0.340977
v 0.013440 -0.648791 0.298178
v 0.013440 1.176794 0.298179
vn -0.0000 -0.0000 1.0000
vn -0.0000 -0.0000 -1.0000
vn -0.0000 1.0000 -0.0000
vn -0.0000 -1.0000 -0.0000
vn -0.0000 -0.7883 -0.6152
vn 1.0000 -0.0000 -0.0000
vn -0.0000 0.7883 0.6152
vn -1.0000 -0.0000 -0.0000
vt 0.994302 0.784478
vt 0.992501 0.783442
vt 0.994302 0.783442
vt 0.993601 0.288515
vt 0.995402 0.289551
vt 0.993601 0.289551
vt 0.676904 0.897817
vt 0.678705 0.898853
vt 0.676904 0.898853
vt 0.906318 0.697017
vt 0.908119 0.698053
vt 0.906318 0.698053
vt 0.675804 0.897817
vt 0.992501 0.288515
vt 0.905219 0.697017
vt 0.906318 0.675129
vt 0.741326 0.407278
vt 0.742769 0.407533
vt 0.741920 0.408127
vt 0.905219 0.675129
vt 0.906318 0.674093
vt 0.675804 0.920741
vt 0.675804 0.898853
vt 0.742175 0.434667
vt 0.741326 0.435261
vt 0.852545 0.083105
vt 0.851709 0.109633
vt 0.851709 0.082493
vt 0.994302 0.295768
vt 0.995402 0.296804
vt 0.994302 0.296804
vt 0.741920 0.436110
vt 0.676904 0.920741
vt 0.675804 0.921777
vt 0.908119 0.675129
vt 0.992501 0.932461
vt 0.993537 0.933497
vt 0.992501 0.933497
vt 0.992501 0.789659
vt 0.994302 0.790695
vt 0.992501 0.790695
vt 0.992501 0.295768
vt 0.678705 0.921777
vt 0.676904 0.921777
vt 0.994302 0.781370
vt 0.992501 0.780334
vt 0.994302 0.780334
vt 0.995402 0.290587
vt 0.993601 0.290587
vt 0.208136 0.914447
vt 0.209937 0.915483
vt 0.208136 0.915483
vt 0.909219 0.697017
vt 0.911020 0.698053
vt 0.909219 0.698053
vt 0.207037 0.914447
vt 0.992501 0.289551
vt 0.908119 0.697017
vt 0.909219 0.675129
vt 0.736997 0.407278
vt 0.738440 0.407533
vt 0.737591 0.408127
vt 0.909219 0.674093
vt 0.207037 0.937370
vt 0.207037 0.915483
vt 0.737846 0.434667
vt 0.736997 0.435261
vt 0.976453 0.436357
vt 0.991465 0.458244
vt 0.975416 0.436357
vt 0.994302 0.292659
vt 0.995402 0.293696
vt 0.994302 0.293696
vt 0.737591 0.436110
vt 0.208136 0.937370
vt 0.207037 0.938406
vt 0.911020 0.675129
vt 0.992501 0.928317
vt 0.993537 0.929353
vt 0.992501 0.929353
vt 0.992501 0.785515
vt 0.994302 0.786551
vt 0.992501 0.786551
vt 0.992501 0.292659
vt 0.209937 0.938406
vt 0.208136 0.938406
vt 0.192237 0.845212
vt 0.193445 0.858564
vt 0.192237 0.858564
vt 0.767078 0.708320
vt 0.788205 0.781421
vt 0.767078 0.781421
vt 0.216487 0.580857
vt 0.217695 0.656520
vt 0.216487 0.656520
vt 0.769977 0.437638
vt 0.791104 0.510739
vt 0.769977 0.510739
vt 0.766468 0.512020
vt 0.794664 0.512020
vt 0.796552 0.525372
vt 0.217695 0.669872
vt 0.216487 0.669872
vt 0.761631 0.782702
vt 0.791714 0.796054
vt 0.761631 0.796054
vt 0.791104 0.437638
vt 0.791714 0.707039
vt 0.788205 0.708320
vt 0.766468 0.436357
vt 0.794664 0.436357
vt 0.761631 0.707039
vt 0.791714 0.782702
vt 0.796552 0.512020
vt 0.216114 0.843519
vt 0.193445 0.845212
vt 0.000000 0.000000
vt 0.992501 0.784478
vt 0.995402 0.288515
vt 0.678705 0.897817
vt 0.905219 0.698053
vt 0.742175 0.406684
vt 0.905219 0.674093
vt 0.852545 0.110246
vt 0.995402 0.295768
vt 0.742769 0.435516
vt 0.908119 0.674093
vt 0.993537 0.932461
vt 0.994302 0.789659
vt 0.992501 0.296804
vt 0.678705 0.920741
vt 0.992501 0.781370
vt 0.209937 0.914447
vt 0.911020 0.697017
vt 0.992501 0.290587
vt 0.737846 0.406684
vt 0.992501 0.458244
vt 0.995402 0.292659
vt 0.738440 0.435516
vt 0.911020 0.674093
vt 0.993537 0.928317
vt 0.994302 0.785515
vt 0.992501 0.293696
vt 0.209937 0.937370
vt 0.217695 0.580857
vt 0.766468 0.525372
vt 0.796552 0.436357
s 0
usemtl metal
f 76/148/9 71/149/9 75/150/9
f 78/151/10 73/152/10 77/153/10
f 77/154/11 74/155/11 76/156/11
f 75/157/12 72/158/12 78/159/12
f 76/156/11 81/160/11 77/154/11
f 77/153/10 82/161/10 78/151/10
f 78/159/12 79/162/12 75/157/12
f 79/162/13 84/163/13 75/157/13
f 82/164/14 80/165/14 79/166/14
f 86/167/12 88/168/12 84/163/12
f 76/156/15 85/169/15 80/170/15
f 79/166/14 85/171/14 86/172/14
f 75/173/16 83/174/16 76/175/16
f 88/176/9 89/177/9 87/178/9
f 85/171/14 90/179/14 86/172/14
f 83/180/11 89/181/11 85/169/11
f 88/168/12 92/182/12 84/163/12
f 92/183/16 93/184/16 91/185/16
f 84/186/10 91/187/10 83/188/10
f 87/178/9 94/189/9 88/176/9
f 83/180/11 93/190/11 87/191/11
f 100/192/9 95/193/9 99/194/9
f 102/153/10 97/195/10 101/196/10
f 101/197/11 98/198/11 100/199/11
f 99/200/12 96/201/12 102/202/12
f 100/199/11 105/203/11 101/197/11
f 101/196/10 106/204/10 102/153/10
f 102/202/12 103/205/12 99/200/12
f 103/205/13 108/206/13 99/200/13
f 106/207/14 104/208/14 103/209/14
f 110/182/12 112/210/12 108/206/12
f 100/199/15 109/211/15 104/212/15
f 103/209/14 109/213/14 110/214/14
f 99/215/16 107/216/16 100/217/16
f 112/218/9 113/219/9 111/220/9
f 109/213/14 114/221/14 110/214/14
f 107/222/11 113/223/11 109/211/11
f 112/210/12 116/224/12 108/206/12
f 116/225/16 117/226/16 115/227/16
f 108/228/10 115/229/10 107/230/10
f 111/220/9 118/231/9 112/218/9
f 107/222/11 117/232/11 111/233/11
f 76/148/9 74/265/9 71/149/9
f 78/151/10 72/266/10 73/152/10
f 77/154/11 73/267/11 74/155/11
f 75/157/12 71/205/12 72/158/12
f 76/156/11 80/170/11 81/160/11
f 77/153/10 81/204/10 82/161/10
f 78/159/12 82/268/12 79/162/12
f 79/162/13 86/167/13 84/163/13
f 82/164/14 81/269/14 80/165/14
f 86/167/12 90/270/12 88/168/12
f 76/156/15 83/180/15 85/169/15
f 79/166/14 80/165/14 85/171/14
f 75/173/16 84/271/16 83/174/16
f 88/176/9 90/272/9 89/177/9
f 85/171/14 89/273/14 90/179/14
f 83/180/11 87/191/11 89/181/11
f 88/168/12 94/274/12 92/182/12
f 92/183/16 94/275/16 93/184/16
f 84/186/10 92/276/10 91/187/10
f 87/178/9 93/277/9 94/189/9
f 83/180/11 91/278/11 93/190/11
f 100/192/9 98/279/9 95/193/9
f 102/153/10 96/152/10 97/195/10
f 101/197/11 97/280/11 98/198/11
f 99/200/12 95/281/12 96/201/12
f 100/199/11 104/212/11 105/203/11
f 101/196/10 105/282/10 106/204/10
f 102/202/12 106/158/12 103/205/12
f 103/205/13 110/182/13 108/206/13
f 106/207/14 105/283/14 104/208/14
f 110/182/12 114/274/12 112/210/12
f 100/199/15 107/222/15 109/211/15
f 103/209/14 104/208/14 109/213/14
f 99/215/16 108/284/16 107/216/16
f 112/218/9 114/285/9 113/219/9
f 109/213/14 113/286/14 114/221/14
f 107/222/11 111/233/11 113/223/11
f 112/210/12 118/287/12 116/224/12
f 116/225/16 118/288/16 117/226/16
f 108/228/10 116/289/10 115/229/10
f 111/220/9 117/290/9 118/231/9
f 107/222/11 115/291/11 117/232/11
usemtl glass#exteriortranslucent
f 126/237/16 133/238/16 132/239/16
f 128/243/14 131/244/14 134/245/14
f 126/237/16 130/256/16 133/238/16
f 128/243/14 125/254/14 131/244/14
usemtl Material
f 121/234/9 120/235/9 119/236/9
f 135/240/10 138/241/10 137/242/10
f 138/246/14 139/247/14 119/248/14
f 137/242/10 127/249/10 129/250/10
f 124/251/16 129/252/16 120/253/16
f 126/237/16 135/255/16 130/256/16
f 126/237/16 124/251/16 123/259/16
f 130/256/16 137/260/16 133/238/16
f 132/239/16 137/260/16 124/251/16
f 140/258/14 121/261/14 139/247/14
f 122/262/9 124/263/9 121/234/9
f 140/258/11 135/240/11 123/259/11
f 133/238/11 131/244/11 134/245/11
f 126/264/10 131/264/10 132/264/10
f 133/264/9 128/264/9 130/264/9
f 126/264/12 128/264/12 125/264/12
f 121/234/9 124/263/9 120/235/9
f 135/240/10 136/292/10 138/241/10
f 119/248/14 127/293/14 138/246/14
f 139/247/14 121/261/14 119/248/14
f 137/242/10 138/241/10 127/249/10
f 124/251/16 137/260/16 129/252/16
f 126/237/16 123/259/16 135/255/16
f 126/237/16 132/239/16 124/251/16
f 130/256/16 135/255/16 137/260/16
f 132/239/16 133/238/16 137/260/16
f 140/258/14 122/294/14 121/261/14
f 122/262/9 123/259/9 124/263/9
f 123/259/11 122/294/11 140/258/11
f 140/258/11 136/257/11 135/240/11
f 133/238/11 132/239/11 131/244/11
f 126/264/10 125/264/10 131/264/10
f 133/264/9 134/264/9 128/264/9
f 126/264/12 130/256/12 128/264/12
usemtl Wall#interior
f 125/254/14 139/247/14 131/244/14
f 125/254/14 136/257/14 140/258/14
f 128/243/14 138/246/14 136/257/14
f 131/244/14 138/246/14 134/245/14
f 125/254/14 140/258/14 139/247/14
f 125/254/14 128/243/14 136/257/14
f 128/243/14 134/245/14 138/246/14
f 131/244/14 139/247/14 138/246/14
o rearLeft
v 0.013728 -0.970953 -0.331339
v 0.013728 1.145879 -0.232506
v -0.013729 -0.970953 -0.331339
v -0.013729 1.145879 -0.232506
v 0.013728 -0.970953 0.331339
v 0.013728 1.145879 0.278336
v -0.013729 -0.970953 0.331339
v -0.013729 1.145879 0.278336
v 0.013728 -0.617875 -0.232506
v -0.013729 -0.617875 -0.232506
v -0.013729 -0.617875 0.278336
v 0.013728 -0.617875 0.278336
v 0.013728 -0.648791 -0.331339
v 0.013728 1.176795 -0.331339
v -0.013729 1.176795 -0.331339
v -0.013729 1.176795 0.331339
v 0.013728 1.176795 0.331339
v -0.013729 -0.648791 -0.331339
v -0.013729 -0.648791 0.331339
v 0.013728 -0.648791 0.331339
v 0.013728 -0.634541 -0.285787
v 0.013728 1.176795 -0.285786
v 0.013728 -0.648791 -0.285787
v 0.013729 0.005893 0.282896
v 0.013729 0.005893 0.307896
v 0.013729 0.030893 0.307896
v 0.013729 0.030893 0.282896
v 0.054680 0.005893 0.282896
v 0.054680 0.030893 0.282896
v 0.054680 0.030893 0.307896
v 0.054680 0.005893 0.307896
v 0.079680 0.005893 0.282896
v 0.079680 0.030893 0.282896
v 0.079680 0.030893 0.307896
v 0.079680 0.005893 0.307896
v 0.054680 -0.356322 -0.245200
v 0.054680 -0.381322 -0.245200
v 0.079680 -0.356322 -0.245200
v 0.079680 -0.381322 -0.245200
v 0.054680 -0.356322 -0.270200
v 0.054680 -0.381322 -0.270200
v 0.079680 -0.356322 -0.270200
v 0.079680 -0.381322 -0.270200
v 0.013729 -0.356322 -0.245200
v 0.013729 -0.381322 -0.245200
v 0.013729 -0.356322 -0.270200
v 0.013729 -0.381322 -0.270200
v 0.013729 0.320146 0.282896
v 0.013729 0.320146 0.307896
v 0.013729 0.345146 0.307896
v 0.013729 0.345146 0.282896
v 0.054680 0.320146 0.282896
v 0.054680 0.345146 0.282896
v 0.054680 0.345146 0.307896
v 0.054680 0.320146 0.307896
v 0.079680 0.320146 0.282896
v 0.079680 0.345146 0.282896
v 0.079680 0.345146 0.307896
v 0.079680 0.320146 0.307896
v 0.054680 -0.042069 -0.245200
v 0.054680 -0.067069 -0.245200
v 0.079680 -0.042069 -0.245200
v 0.079680 -0.067069 -0.245200
v 0.054680 -0.042069 -0.270200
v 0.054680 -0.067069 -0.270200
v 0.079680 -0.042069 -0.270200
v 0.079680 -0.067069 -0.270200
v 0.013729 -0.042069 -0.245200
v 0.013729 -0.067069 -0.245200
v 0.013729 -0.042069 -0.270200
v 0.013729 -0.067069 -0.270200
vn -0.0000 -0.0000 -1.0000
vn -1.0000 -0.0000 -0.0000
vn -0.0000 -0.0000 1.0000
vn 1.0000 -0.0000 -0.0000
vn -0.0000 -1.0000 -0.0000
vn -0.0000 1.0000 -0.0000
vn -0.0000 -0.8064 0.5913
vn -0.0000 0.8064 -0.5913
vt 0.723065 0.370903
vt 0.717486 0.000000
vt 0.717486 0.370903
vt 0.559217 0.364622
vt 0.455429 0.006281
vt 0.455429 0.364622
vt 0.728643 0.370903
vt 0.723065 0.000000
vt 0.723065 0.370903
vt 0.697406 0.364622
vt 0.593619 0.006281
vt 0.593619 0.364622
vt 0.428529 0.487472
vt 0.434108 0.628540
vt 0.434108 0.487472
vt 0.576418 0.000000
vt 0.708231 0.000000
vt 0.435350 0.000000
vt 0.717486 0.436357
vt 0.708232 0.370903
vt 0.576418 0.370903
vt 0.728643 0.436357
vt 0.723065 0.436357
vt 0.576418 0.436357
vt 0.435350 0.370903
vt 0.435350 0.436357
vt 0.723065 0.436357
vt 0.717486 0.436357
vt 0.708231 0.368008
vt 0.697406 0.006281
vt 0.559217 0.006281
vt 0.717486 0.000000
vt 0.635932 0.738217
vt 0.630853 0.746537
vt 0.635932 0.746537
vt 0.916881 0.520689
vt 0.921960 0.512369
vt 0.916881 0.512369
vt 0.760734 0.146148
vt 0.752414 0.141068
vt 0.752414 0.146148
vt 0.756681 0.117452
vt 0.748360 0.112372
vt 0.748360 0.117452
vt 0.747334 0.141068
vt 0.921960 0.507289
vt 0.743281 0.112372
vt 0.748360 0.005079
vt 0.102783 0.496824
vt 0.095709 0.495576
vt 0.098622 0.499737
vt 0.748360 0.000000
vt 0.743281 0.005079
vt 0.747334 0.253441
vt 0.747334 0.146148
vt 0.099870 0.629837
vt 0.409864 0.776494
vt 0.336273 0.669201
vt 0.331194 0.669201
vt 0.922915 0.436216
vt 0.927994 0.431136
vt 0.922915 0.431136
vt 0.098622 0.636911
vt 0.095709 0.632750
vt 0.747334 0.258520
vt 0.752414 0.253441
vt 0.756680 0.005079
vt 0.997580 0.120429
vt 0.992501 0.115350
vt 0.992501 0.120429
vt 0.612874 0.746538
vt 0.617953 0.738218
vt 0.612874 0.738218
vt 0.927994 0.422816
vt 0.760734 0.258520
vt 0.752414 0.258520
vt 0.641012 0.738217
vt 0.635932 0.746537
vt 0.641012 0.746537
vt 0.917835 0.436216
vt 0.922915 0.427895
vt 0.917835 0.427895
vt 0.770080 0.005079
vt 0.761760 -0.000000
vt 0.761760 0.005079
vt 0.759031 0.553809
vt 0.750711 0.548729
vt 0.750711 0.553809
vt 0.756681 -0.000000
vt 0.922915 0.422816
vt 0.745631 0.548729
vt 0.750711 0.441436
vt 0.095709 0.496824
vt 0.088635 0.495576
vt 0.091548 0.499737
vt 0.750711 0.436357
vt 0.745631 0.441436
vt 0.756681 0.112372
vt 0.756681 0.005079
vt 0.092796 0.629837
vt 0.728643 0.274113
vt 0.732739 0.144072
vt 0.728643 0.141068
vt 0.921960 0.520689
vt 0.927040 0.515610
vt 0.921960 0.515610
vt 0.091548 0.636911
vt 0.088635 0.632750
vt 0.756681 0.117451
vt 0.761760 0.112372
vt 0.759031 0.441436
vt 0.997580 0.115350
vt 0.992501 0.110271
vt 0.646091 0.738217
vt 0.927040 0.507289
vt 0.770080 0.117451
vt 0.761760 0.117451
vt 0.723065 0.000000
vt 0.728643 0.000000
vt 0.428529 0.628540
vt 0.717486 0.370903
vt 0.708232 0.002895
vt 0.630853 0.738217
vt 0.760734 0.141068
vt 0.756681 0.112372
vt 0.916881 0.507289
vt 0.743281 0.117452
vt 0.099870 0.492663
vt 0.743281 0.000000
vt 0.414943 0.776494
vt 0.927994 0.436216
vt 0.102783 0.633998
vt 0.756680 0.000000
vt 0.617953 0.746538
vt 0.922915 0.422816
vt 0.760734 0.253441
vt 0.922915 0.436216
vt 0.770080 -0.000000
vt 0.759031 0.548729
vt 0.917835 0.422816
vt 0.745631 0.553809
vt 0.092796 0.492663
vt 0.745631 0.436357
vt 0.732739 0.277116
vt 0.927040 0.520689
vt 0.095709 0.633998
vt 0.759031 0.436357
vt 0.997580 0.110271
vt 0.646091 0.746537
vt 0.770080 0.112372
s 0
usemtl glass#exteriortranslucent
f 151/298/18 144/299/18 150/300/18
f 149/304/20 146/305/20 152/306/20
f 151/298/18 148/325/18 144/299/18
f 149/304/20 142/324/20 146/305/20
usemtl metal
f 164/327/17 169/328/17 168/329/17
f 166/330/19 171/331/19 170/332/19
f 167/333/22 170/334/22 169/335/22
f 165/336/21 168/337/21 171/338/21
f 174/339/22 169/335/22 170/334/22
f 175/340/19 170/332/19 171/331/19
f 172/341/21 171/338/21 168/337/21
f 177/342/23 172/341/23 168/337/23
f 173/343/20 175/344/20 172/345/20
f 181/346/21 179/347/21 177/342/21
f 178/348/24 169/335/24 173/349/24
f 172/345/20 178/350/20 173/343/20
f 176/351/18 168/352/18 169/353/18
f 182/354/17 181/355/17 180/356/17
f 183/357/20 178/350/20 179/358/20
f 182/359/22 176/360/22 178/348/22
f 185/361/21 181/346/21 177/342/21
f 186/362/18 185/363/18 184/364/18
f 184/365/19 177/366/19 176/367/19
f 187/368/17 180/356/17 181/355/17
f 186/369/22 176/360/22 180/370/22
f 188/371/17 193/372/17 192/373/17
f 190/374/19 195/375/19 194/376/19
f 191/377/22 194/378/22 193/379/22
f 189/380/21 192/381/21 195/382/21
f 198/383/22 193/379/22 194/378/22
f 199/384/19 194/376/19 195/375/19
f 196/385/21 195/382/21 192/381/21
f 201/386/23 196/385/23 192/381/23
f 197/387/20 199/388/20 196/389/20
f 205/390/21 203/391/21 201/386/21
f 202/392/24 193/379/24 197/393/24
f 196/389/20 202/394/20 197/387/20
f 200/395/18 192/396/18 193/397/18
f 206/398/17 205/399/17 204/400/17
f 207/401/20 202/394/20 203/402/20
f 206/403/22 200/404/22 202/392/22
f 209/405/21 205/390/21 201/386/21
f 210/406/18 209/407/18 208/363/18
f 208/373/19 201/408/19 200/371/19
f 211/409/17 204/400/17 205/399/17
f 210/410/22 200/404/22 204/411/22
f 164/327/17 167/417/17 169/328/17
f 166/330/19 165/398/19 171/331/19
f 167/333/22 166/418/22 170/334/22
f 165/336/21 164/419/21 168/337/21
f 174/339/22 173/349/22 169/335/22
f 175/340/19 174/420/19 170/332/19
f 172/341/21 175/421/21 171/338/21
f 177/342/23 179/347/23 172/341/23
f 173/343/20 174/422/20 175/344/20
f 181/346/21 183/423/21 179/347/21
f 178/348/24 176/360/24 169/335/24
f 172/345/20 179/358/20 178/350/20
f 176/351/18 177/424/18 168/352/18
f 182/354/17 183/425/17 181/355/17
f 183/357/20 182/426/20 178/350/20
f 182/359/22 180/370/22 176/360/22
f 185/361/21 187/427/21 181/346/21
f 186/362/18 187/406/18 185/363/18
f 184/365/19 185/428/19 177/366/19
f 187/368/17 186/429/17 180/356/17
f 186/369/22 184/430/22 176/360/22
f 188/371/17 191/327/17 193/372/17
f 190/374/19 189/431/19 195/375/19
f 191/377/22 190/432/22 194/378/22
f 189/380/21 188/433/21 192/381/21
f 198/383/22 197/393/22 193/379/22
f 199/384/19 198/434/19 194/376/19
f 196/385/21 199/435/21 195/382/21
f 201/386/23 203/391/23 196/385/23
f 197/387/20 198/436/20 199/388/20
f 205/390/21 207/437/21 203/391/21
f 202/392/24 200/404/24 193/379/24
f 196/389/20 203/402/20 202/394/20
f 200/395/18 201/438/18 192/396/18
f 206/398/17 207/439/17 205/399/17
f 207/401/20 206/440/20 202/394/20
f 206/403/22 204/411/22 200/404/22
f 209/405/21 211/441/21 205/390/21
f 210/406/18 211/442/18 209/407/18
f 208/373/19 209/443/19 201/408/19
f 211/409/17 210/340/17 204/400/17
f 210/410/22 208/444/22 200/404/22
usemtl Material
f 158/295/17 154/296/17 153/297/17
f 160/301/19 156/302/19 159/303/19
f 141/307/21 147/308/21 143/309/21
f 157/310/22 162/311/22 155/312/22
f 141/313/20 163/314/20 160/315/20
f 145/316/19 159/303/19 147/317/19
f 147/318/18 158/319/18 143/320/18
f 143/321/17 153/297/17 141/322/17
f 156/310/18 144/299/18 148/325/18
f 155/312/18 150/300/18 144/299/18
f 159/315/18 148/325/18 151/298/18
f 150/300/18 159/315/18 151/298/18
f 163/314/20 154/326/20 162/311/20
f 150/300/19 142/324/19 144/299/19
f 151/298/22 149/304/22 150/300/22
f 152/306/17 148/325/17 146/305/17
f 146/305/21 144/299/21 142/324/21
f 158/295/17 155/412/17 154/296/17
f 160/301/19 157/413/19 156/302/19
f 141/307/21 145/414/21 147/308/21
f 155/312/22 156/310/22 157/310/22
f 162/311/22 154/296/22 155/312/22
f 160/315/20 145/318/20 141/313/20
f 141/313/20 153/415/20 163/314/20
f 145/316/19 160/301/19 159/303/19
f 147/318/18 159/315/18 158/319/18
f 143/321/17 158/295/17 153/297/17
f 156/310/18 155/312/18 144/299/18
f 155/312/18 158/319/18 150/300/18
f 159/315/18 156/310/18 148/325/18
f 150/300/18 158/319/18 159/315/18
f 162/311/20 161/323/20 163/314/20
f 163/314/20 153/415/20 154/326/20
f 150/300/19 149/304/19 142/324/19
f 151/298/22 152/306/22 149/304/22
f 152/306/17 151/298/17 148/325/17
f 146/305/21 148/325/21 144/299/21
usemtl Wall#interior
f 161/323/20 142/324/20 149/304/20
f 142/324/20 157/310/20 146/305/20
f 146/305/20 160/315/20 152/306/20
f 160/315/20 161/323/20 149/304/20
f 161/323/20 162/416/20 142/324/20
f 142/324/20 162/416/20 157/310/20
f 146/305/20 157/310/20 160/315/20
f 149/304/20 152/306/20 160/315/20
f 160/315/20 163/314/20 161/323/20
o rearRight
v 0.013729 0.005893 -0.282896
v 0.013729 0.005893 -0.307896
v 0.013729 0.030893 -0.307896
v 0.013729 0.030893 -0.282896
v 0.054680 0.005893 -0.282896
v 0.054680 0.030893 -0.282896
v 0.054680 0.030893 -0.307896
v 0.054680 0.005893 -0.307896
v 0.079680 0.005893 -0.282896
v 0.079680 0.030893 -0.282896
v 0.079680 0.030893 -0.307896
v 0.079680 0.005893 -0.307896
v 0.054680 -0.356322 0.245200
v 0.054680 -0.381322 0.245200
v 0.079680 -0.356322 0.245200
v 0.079680 -0.381322 0.245200
v 0.054680 -0.356322 0.270200
v 0.054680 -0.381322 0.270200
v 0.079680 -0.356322 0.270200
v 0.079680 -0.381322 0.270200
v 0.013729 -0.356322 0.245200
v 0.013729 -0.381322 0.245200
v 0.013729 -0.356322 0.270200
v 0.013729 -0.381322 0.270200
v 0.013729 0.320146 -0.282896
v 0.013729 0.320146 -0.307896
v 0.013729 0.345146 -0.307896
v 0.013729 0.345146 -0.282896
v 0.054680 0.320146 -0.282896
v 0.054680 0.345146 -0.282896
v 0.054680 0.345146 -0.307896
v 0.054680 0.320146 -0.307896
v 0.079680 0.320146 -0.282896
v 0.079680 0.345146 -0.282896
v 0.079680 0.345146 -0.307896
v 0.079680 0.320146 -0.307896
v 0.054680 -0.042069 0.245200
v 0.054680 -0.067069 0.245200
v 0.079680 -0.042069 0.245200
v 0.079680 -0.067069 0.245200
v 0.054680 -0.042069 0.270200
v 0.054680 -0.067069 0.270200
v 0.079680 -0.042069 0.270200
v 0.079680 -0.067069 0.270200
v 0.013729 -0.042069 0.245200
v 0.013729 -0.067069 0.245200
v 0.013729 -0.042069 0.270200
v 0.013729 -0.067069 0.270200
v 0.013729 -0.970953 0.331339
v 0.013729 1.145879 0.232506
v -0.013729 -0.970953 0.331339
v -0.013729 1.145879 0.232506
v 0.013729 -0.970953 -0.331339
v 0.013729 1.145879 -0.278336
v -0.013729 -0.970953 -0.331339
v -0.013729 1.145879 -0.278336
v 0.013729 -0.617875 0.232506
v -0.013729 -0.617875 0.232506
v -0.013729 -0.617875 -0.278336
v 0.013729 -0.617875 -0.278336
v 0.013729 -0.648791 0.331339
v 0.013729 1.176795 0.331339
v -0.013729 1.176795 0.331339
v -0.013729 1.176795 -0.331339
v 0.013729 1.176795 -0.331339
v -0.013729 -0.648791 0.331339
v -0.013729 -0.648791 -0.331339
v 0.013729 -0.648791 -0.331339
v 0.013729 -0.634541 0.285786
v 0.013729 1.176795 0.285786
v 0.013729 -0.648791 0.285787
vn -0.0000 -0.0000 1.0000
vn -0.0000 -0.0000 -1.0000
vn -0.0000 1.0000 -0.0000
vn -0.0000 -1.0000 -0.0000
vn -0.0000 -0.8064 -0.5913
vn 1.0000 -0.0000 -0.0000
vn -0.0000 0.8064 0.5913
vn -1.0000 -0.0000 -0.0000
vt 0.994302 0.779298
vt 0.992501 0.778262
vt 0.994302 0.778262
vt 0.993601 0.284370
vt 0.995402 0.285406
vt 0.993601 0.285406
vt 0.911116 0.494203
vt 0.912917 0.495239
vt 0.911116 0.495239
vt 0.676904 0.896781
vt 0.678705 0.897817
vt 0.676904 0.897817
vt 0.910016 0.494203
vt 0.992501 0.284370
vt 0.675805 0.896781
vt 0.676904 0.874894
vt 0.738440 0.407278
vt 0.739883 0.407533
vt 0.739034 0.408127
vt 0.675805 0.874894
vt 0.676904 0.873857
vt 0.910016 0.517127
vt 0.910016 0.495239
vt 0.739289 0.434667
vt 0.738440 0.435261
vt 0.150195 0.756462
vt 0.165207 0.778349
vt 0.149159 0.756462
vt 0.994302 0.290587
vt 0.995402 0.291623
vt 0.994302 0.291623
vt 0.739034 0.436110
vt 0.911116 0.517127
vt 0.910016 0.518163
vt 0.678705 0.874894
vt 0.992501 0.929353
vt 0.993537 0.930389
vt 0.992501 0.930389
vt 0.992501 0.786551
vt 0.994302 0.787587
vt 0.992501 0.787587
vt 0.992501 0.290587
vt 0.912917 0.518163
vt 0.911116 0.518163
vt 0.994302 0.782406
vt 0.992501 0.781370
vt 0.994302 0.781370
vt 0.995402 0.286443
vt 0.993601 0.286443
vt 0.208136 0.890487
vt 0.209938 0.891523
vt 0.208136 0.891523
vt 0.433231 0.897139
vt 0.435032 0.898175
vt 0.433231 0.898175
vt 0.207037 0.890487
vt 0.992501 0.285406
vt 0.432131 0.897139
vt 0.433231 0.875251
vt 0.423510 0.814142
vt 0.424953 0.814397
vt 0.424104 0.814991
vt 0.432131 0.875251
vt 0.433231 0.874215
vt 0.207037 0.913411
vt 0.207037 0.891523
vt 0.424359 0.841531
vt 0.423510 0.842125
vt 0.412918 0.824643
vt 0.412082 0.851171
vt 0.412082 0.824031
vt 0.994302 0.293696
vt 0.995402 0.294732
vt 0.994302 0.294732
vt 0.424104 0.842974
vt 0.208136 0.913411
vt 0.207037 0.914447
vt 0.435032 0.875251
vt 0.993537 0.930389
vt 0.992501 0.931425
vt 0.992501 0.930389
vt 0.994302 0.788623
vt 0.992501 0.788623
vt 0.992501 0.293696
vt 0.209938 0.914447
vt 0.208136 0.914447
vt 0.216487 0.491841
vt 0.217695 0.567505
vt 0.216487 0.567505
vt 0.770565 0.526654
vt 0.791737 0.599754
vt 0.770565 0.599754
vt 0.102783 0.492663
vt 0.103990 0.568326
vt 0.102783 0.568326
vt 0.770852 0.278398
vt 0.792024 0.351498
vt 0.770852 0.351498
vt 0.322297 0.846532
vt 0.321090 0.817755
vt 0.322297 0.817755
vt 0.678255 0.847104
vt 0.677048 0.845216
vt 0.677047 0.818327
vt 0.767343 0.352779
vt 0.794233 0.352779
vt 0.796121 0.366132
vt 0.103990 0.581679
vt 0.102783 0.581679
vt 0.766469 0.601035
vt 0.795246 0.614388
vt 0.766469 0.614388
vt 0.217695 0.580857
vt 0.216487 0.580857
vt 0.792024 0.278398
vt 0.794233 0.352189
vt 0.795246 0.525372
vt 0.791737 0.526654
vt 0.767343 0.277116
vt 0.794233 0.277707
vt 0.766469 0.525372
vt 0.795246 0.601035
vt 0.794233 0.277116
vt 0.796121 0.352779
vt 0.000000 0.000000
vt 0.992501 0.779298
vt 0.995402 0.284370
vt 0.912917 0.494203
vt 0.678705 0.896781
vt 0.992501 0.285406
vt 0.675805 0.897817
vt 0.739289 0.406684
vt 0.675805 0.873857
vt 0.166243 0.778349
vt 0.995402 0.290587
vt 0.739883 0.435516
vt 0.678705 0.873857
vt 0.993537 0.929353
vt 0.994302 0.786551
vt 0.992501 0.291623
vt 0.912917 0.517127
vt 0.992501 0.782406
vt 0.209938 0.890487
vt 0.435032 0.897139
vt 0.992501 0.286443
vt 0.432131 0.898175
vt 0.424359 0.813548
vt 0.432131 0.874215
vt 0.412918 0.851784
vt 0.995402 0.293696
vt 0.424953 0.842380
vt 0.435032 0.874215
vt 0.993537 0.931425
vt 0.992501 0.294732
vt 0.209938 0.913411
vt 0.217695 0.491841
vt 0.103990 0.492663
vt 0.321090 0.846532
vt 0.678255 0.818327
vt 0.677048 0.847104
vt 0.767343 0.366132
vt 0.796121 0.277116
s 0
usemtl metal
f 217/445/25 212/446/25 216/447/25
f 219/448/26 214/449/26 218/450/26
f 218/451/27 215/452/27 217/453/27
f 216/454/28 213/455/28 219/456/28
f 217/453/27 222/457/27 218/451/27
f 218/450/26 223/458/26 219/448/26
f 219/456/28 220/459/28 216/454/28
f 220/459/29 225/460/29 216/454/29
f 223/461/30 221/462/30 220/463/30
f 227/464/28 229/465/28 225/460/28
f 217/453/31 226/466/31 221/467/31
f 220/463/30 226/468/30 227/469/30
f 216/470/32 224/471/32 217/472/32
f 229/473/25 230/474/25 228/475/25
f 226/468/30 231/476/30 227/469/30
f 224/477/27 230/478/27 226/466/27
f 229/465/28 233/479/28 225/460/28
f 233/480/32 234/481/32 232/482/32
f 225/483/26 232/484/26 224/485/26
f 228/475/25 235/486/25 229/473/25
f 224/477/27 234/487/27 228/488/27
f 241/489/25 236/490/25 240/491/25
f 243/450/26 238/492/26 242/493/26
f 242/494/27 239/495/27 241/496/27
f 240/497/28 237/498/28 243/499/28
f 241/496/27 246/500/27 242/494/27
f 242/493/26 247/501/26 243/450/26
f 243/499/28 244/502/28 240/497/28
f 244/502/29 249/503/29 240/497/29
f 247/504/30 245/505/30 244/506/30
f 251/507/28 253/508/28 249/503/28
f 241/496/31 250/509/31 245/510/31
f 244/506/30 250/511/30 251/512/30
f 240/513/32 248/514/32 241/515/32
f 253/516/25 254/517/25 252/518/25
f 250/511/30 255/519/30 251/512/30
f 248/520/27 254/521/27 250/509/27
f 253/508/28 257/522/28 249/503/28
f 257/523/32 258/524/32 256/525/32
f 249/485/26 256/526/26 248/527/26
f 252/518/25 259/528/25 253/516/25
f 248/520/27 258/529/27 252/530/27
f 217/445/25 215/570/25 212/446/25
f 219/448/26 213/571/26 214/449/26
f 218/451/27 214/572/27 215/452/27
f 216/454/28 212/573/28 213/455/28
f 217/453/27 221/467/27 222/457/27
f 218/450/26 222/574/26 223/458/26
f 219/456/28 223/575/28 220/459/28
f 220/459/29 227/464/29 225/460/29
f 223/461/30 222/576/30 221/462/30
f 227/464/28 231/577/28 229/465/28
f 217/453/31 224/477/31 226/466/31
f 220/463/30 221/462/30 226/468/30
f 216/470/32 225/578/32 224/471/32
f 229/473/25 231/579/25 230/474/25
f 226/468/30 230/580/30 231/476/30
f 224/477/27 228/488/27 230/478/27
f 229/465/28 235/581/28 233/479/28
f 233/480/32 235/582/32 234/481/32
f 225/483/26 233/583/26 232/484/26
f 228/475/25 234/584/25 235/486/25
f 224/477/27 232/585/27 234/487/27
f 241/489/25 239/586/25 236/490/25
f 243/450/26 237/449/26 238/492/26
f 242/494/27 238/587/27 239/495/27
f 240/497/28 236/588/28 237/498/28
f 241/496/27 245/510/27 246/500/27
f 242/493/26 246/589/26 247/501/26
f 243/499/28 247/590/28 244/502/28
f 244/502/29 251/507/29 249/503/29
f 247/504/30 246/591/30 245/505/30
f 251/507/28 255/592/28 253/508/28
f 241/496/31 248/520/31 250/509/31
f 244/506/30 245/505/30 250/511/30
f 240/513/32 249/593/32 248/514/32
f 253/516/25 255/594/25 254/517/25
f 250/511/30 254/595/30 255/519/30
f 248/520/27 252/530/27 254/521/27
f 253/508/28 259/596/28 257/522/28
f 257/523/32 259/597/32 258/524/32
f 249/485/26 257/484/26 256/526/26
f 252/518/25 258/598/25 259/528/25
f 248/520/27 256/599/27 258/529/27
usemtl glass#exteriortranslucent
f 263/534/32 270/535/32 269/536/32
f 265/540/30 268/541/30 271/542/30
f 263/534/32 267/562/32 270/535/32
f 265/540/30 261/559/30 268/541/30
usemtl Material
f 273/531/25 277/532/25 272/533/25
f 275/537/26 279/538/26 278/539/26
f 266/543/28 260/544/28 262/545/28
f 274/546/27 281/547/27 276/548/27
f 279/549/30 282/550/30 260/551/30
f 278/539/26 264/552/26 266/553/26
f 277/554/32 266/555/32 262/556/32
f 272/533/25 262/557/25 260/558/25
f 263/534/32 275/561/32 267/562/32
f 269/536/32 274/565/32 263/534/32
f 267/562/32 278/566/32 270/535/32
f 269/536/32 278/566/32 277/554/32
f 281/567/30 272/568/30 282/550/30
f 271/542/27 269/536/27 268/541/27
f 269/569/26 261/569/26 268/569/26
f 263/569/28 265/569/28 261/569/28
f 267/569/25 271/569/25 265/569/25
f 273/531/25 274/600/25 277/532/25
f 275/537/26 276/601/26 279/538/26
f 266/543/28 264/602/28 260/544/28
f 276/548/27 275/603/27 274/546/27
f 274/546/27 273/604/27 281/547/27
f 260/551/30 264/605/30 279/549/30
f 282/550/30 272/568/30 260/551/30
f 278/539/26 279/538/26 264/552/26
f 277/554/32 278/566/32 266/555/32
f 272/533/25 277/532/25 262/557/25
f 263/534/32 274/565/32 275/561/32
f 269/536/32 277/554/32 274/565/32
f 267/562/32 275/561/32 278/566/32
f 269/536/32 270/535/32 278/566/32
f 282/550/30 280/560/30 281/567/30
f 281/567/30 273/606/30 272/568/30
f 271/542/27 270/535/27 269/536/27
f 269/569/26 263/569/26 261/569/26
f 263/569/28 267/562/28 265/569/28
f 267/569/25 270/569/25 271/569/25
usemtl Wall#interior
f 261/559/30 280/560/30 268/541/30
f 261/559/30 276/563/30 281/564/30
f 265/540/30 279/549/30 276/563/30
f 268/541/30 282/550/30 279/549/30
f 261/559/30 281/564/30 280/560/30
f 261/559/30 265/540/30 276/563/30
f 265/540/30 271/542/30 279/549/30
f 279/549/30 271/542/30 268/541/30
f 268/541/30 280/560/30 282/550/30
