# Blender 4.2.0
# www.blender.org
mtllib slogan.mtl
o slogan
v 1.276000 0.036008 1.434744
v 1.276000 0.036008 -0.285435
v 1.276000 -0.712420 1.434744
v 1.276000 -0.712420 -0.285435
v -1.275999 0.036008 1.434744
v -1.275999 0.036008 -0.285435
v -1.275999 -0.712420 1.434744
v -1.275999 -0.712420 -0.285435
v -0.703523 0.433518 -5.924341
v -0.703523 0.752334 -5.910629
v 0.703523 0.433518 -5.924340
v 0.703523 0.752334 -5.910628
v 0.000642 -0.285080 6.139376
v -0.646115 -0.612855 6.130575
v 0.000642 -0.627161 6.142762
v -0.326767 -0.627161 6.142764
v -0.326126 -0.284543 6.138350
v -0.644918 -0.284275 6.132895
v 0.543596 -0.627161 6.137875
v 0.647399 -0.612855 6.130575
v 0.328051 -0.627161 6.142764
v 0.327410 -0.284543 6.138350
v 0.646202 -0.284275 6.132895
v 0.544147 -0.284361 6.134642
v -0.542312 -0.627161 6.137875
v -0.542350 -0.284409 6.135622
vn 1.0000 -0.0000 -0.0000
vn -1.0000 -0.0000 -0.0000
vn -0.0000 0.0430 -0.9991
vn -0.0000 0.0129 0.9999
vn -0.0031 0.0099 0.9999
vn -0.0227 0.0066 0.9997
vn 0.0689 0.0093 0.9976
vn -0.0692 0.0065 0.9976
vn 0.0171 0.0094 0.9998
vn 0.0031 0.0099 0.9999
vn -0.0126 0.0129 0.9998
vn 0.0171 -0.0070 0.9998
vn -0.0266 -0.0070 0.9996
vn 0.0227 0.0129 0.9997
vt 1.000000 1.000000
vt 0.000000 0.000000
vt 0.000000 1.000000
vt 1.000000 0.000000
vt 0.499459 -0.001122
vt 0.752435 0.997755
vt 0.752435 -0.001122
vt 0.247565 0.997755
vt 0.499459 0.997755
vt 0.080087 0.997755
vt 0.246483 -0.001122
vt 0.078734 -0.001122
vt 0.920184 0.997755
vt 1.000812 0.050505
vt 0.920184 -0.001122
vt -0.000812 0.050505
vt 0.998918 1.003367
vt 0.001353 1.003367
s 0
usemtl slogan
f 2/1/1 1/3/1 3/2/1
f 7/4/2 5/1/2 6/3/2
f 2/1/1 3/2/1 4/4/1
f 7/4/2 6/3/2 8/2/2
usemtl Logo
f 11/2/3 9/4/3 10/1/3
f 15/5/4 21/7/4 22/6/4
f 15/5/5 13/9/5 17/8/5
f 26/10/6 25/12/6 16/11/6
f 24/13/7 19/15/7 20/14/7
f 14/16/8 25/12/8 26/10/8
f 19/15/9 24/13/9 22/6/9
f 11/2/3 10/1/3 12/3/3
f 15/5/10 22/6/10 13/9/10
f 15/5/4 17/8/4 16/11/4
f 26/10/11 16/11/11 17/8/11
f 24/13/12 20/14/12 23/17/12
f 14/16/13 26/10/13 18/18/13
f 19/15/14 22/6/14 21/7/14
