# Blender 4.2.0 Alpha
# www.blender.org
mtllib steering.mtl
o steering
v -0.219448 0.010094 0.001186
v -0.219448 -0.010095 -0.001186
v -0.202743 0.010401 -0.082594
v -0.202743 -0.009788 -0.084966
v -0.155173 0.010661 -0.153619
v -0.155173 -0.009529 -0.155991
v -0.083979 0.010835 -0.201076
v -0.083979 -0.009355 -0.203448
v 0.000000 0.010895 -0.217741
v 0.000000 -0.009294 -0.220113
v 0.083979 0.010835 -0.201076
v 0.083979 -0.009355 -0.203448
v 0.155173 0.010661 -0.153619
v 0.155173 -0.009529 -0.155991
v 0.202743 0.010401 -0.082594
v 0.202743 -0.009788 -0.084966
v 0.219448 0.010094 0.001186
v 0.219448 -0.010095 -0.001186
v 0.202743 0.009788 0.084965
v 0.202743 -0.010402 0.082594
v 0.155173 0.009528 0.155990
v 0.155173 -0.010662 0.153618
v 0.083979 0.009354 0.203448
v 0.083979 -0.010835 0.201076
v 0.000000 0.009293 0.220113
v 0.000000 -0.010896 0.217741
v -0.083979 0.009354 0.203448
v -0.083979 -0.010835 0.201076
v -0.155173 0.009528 0.155990
v -0.155173 -0.010662 0.153618
v -0.202743 0.009788 0.084965
v -0.202743 -0.010402 0.082594
v -0.260329 0.010094 0.001186
v -0.240513 0.010458 -0.098201
v -0.240513 -0.009731 -0.100573
v -0.260329 -0.010095 -0.001186
v -0.184080 0.010766 -0.182458
v -0.184080 -0.009423 -0.184830
v -0.099624 0.010972 -0.238756
v -0.099624 -0.009217 -0.241128
v 0.000000 0.011045 -0.258525
v 0.000000 -0.009144 -0.260897
v 0.099624 0.010972 -0.238756
v 0.099624 -0.009217 -0.241128
v 0.184081 0.010766 -0.182458
v 0.184081 -0.009423 -0.184830
v 0.240513 0.010458 -0.098202
v 0.240513 -0.009731 -0.100573
v 0.260329 0.010094 0.001186
v 0.260329 -0.010095 -0.001186
v 0.240513 0.009730 0.100573
v 0.240513 -0.010459 0.098201
v 0.184081 0.009422 0.184829
v 0.184081 -0.010767 0.182457
v 0.099624 0.009216 0.241128
v 0.099624 -0.010973 0.238756
v 0.000000 0.009144 0.260897
v 0.000000 -0.011045 0.258525
v -0.099624 0.009216 0.241128
v -0.099624 -0.010973 0.238756
v -0.184080 0.009422 0.184829
v -0.184080 -0.010767 0.182457
v -0.240513 0.009730 0.100573
v -0.240513 -0.010459 0.098201
v 0.079685 -0.009824 0.078751
v 0.136126 0.003255 -0.016358
v 0.079685 0.008983 0.081337
v 0.136126 0.022062 -0.013772
v 0.053419 -0.009824 0.078751
v 0.053419 0.008983 0.081337
v 0.132721 -0.004897 0.182271
v 0.132721 -0.023704 0.179685
v 0.117164 -0.006691 0.195317
v 0.117164 -0.025498 0.192730
v 0.000000 0.022538 -0.029094
v 0.000000 0.003730 -0.031681
v 0.000000 0.007567 0.079773
v 0.000000 -0.011241 0.077187
v 0.127971 0.001365 -0.002616
v 0.127971 0.020172 -0.000030
v 0.226069 -0.004320 -0.002107
v 0.226069 0.014487 0.000479
v 0.222988 -0.006472 0.013539
v 0.222988 0.012336 0.016126
v 0.047609 0.005147 -0.030117
v 0.047609 0.023954 -0.027530
v -0.079685 -0.009824 0.078751
v -0.136126 0.003255 -0.016358
v -0.079685 0.008983 0.081337
v -0.136126 0.022062 -0.013772
v -0.053419 -0.009824 0.078751
v -0.053419 0.008983 0.081337
v -0.132721 -0.004897 0.182271
v -0.132721 -0.023704 0.179685
v -0.117163 -0.006691 0.195317
v -0.117163 -0.025498 0.192730
v -0.127971 0.001365 -0.002616
v -0.127971 0.020172 -0.000030
v -0.226069 -0.004320 -0.002107
v -0.226069 0.014487 0.000479
v -0.222988 -0.006472 0.013539
v -0.222988 0.012336 0.016126
v -0.047608 0.005147 -0.030117
v -0.047608 0.023954 -0.027530
v -0.000000 -0.491233 0.018202
v -0.000000 0.008764 0.020032
v 0.014142 -0.491211 0.012344
v 0.014142 0.008785 0.014174
v 0.020000 -0.491159 -0.001798
v 0.020000 0.008837 0.000032
v 0.014142 -0.491108 -0.015940
v 0.014142 0.008889 -0.014110
v -0.000000 -0.491086 -0.021798
v -0.000000 0.008910 -0.019968
v -0.014142 -0.491108 -0.015940
v -0.014142 0.008889 -0.014110
v -0.020000 -0.491159 -0.001798
v -0.020000 0.008837 0.000032
v -0.014142 -0.491211 0.012344
v -0.014142 0.008785 0.014174
vn -0.9805 0.0230 -0.1954
vn -0.8292 0.0652 -0.5551
vn -0.5522 0.0973 -0.8280
vn -0.1934 0.1145 -0.9744
vn 0.1934 0.1145 -0.9744
vn 0.5522 0.0973 -0.8280
vn 0.8292 0.0652 -0.5551
vn 0.9805 0.0230 -0.1954
vn 0.9805 -0.0230 0.1954
vn 0.8292 -0.0652 0.5551
vn 0.5522 -0.0973 0.8280
vn 0.1934 -0.1145 0.9744
vn -0.1934 -0.1145 0.9744
vn -0.5522 -0.0973 0.8280
vn -0.8292 -0.0652 0.5551
vn -0.9805 -0.0230 0.1954
vn -0.0000 1.0000 0.0037
vn -0.0000 -1.0000 -0.0037
vn 0.0528 0.9846 0.1668
vn -0.0108 0.9918 0.1270
vn 0.0285 0.1362 -0.9903
vn -0.8747 -0.0660 0.4801
vn -0.0254 -0.1362 0.9904
vn 0.6461 -0.1040 0.7562
vn -0.0000 -0.9907 -0.1362
vn 0.8870 0.0629 -0.4574
vn -0.0000 0.9907 0.1362
vn 0.8621 -0.0690 0.5021
vn 0.9815 -0.0261 0.1897
vn 0.1661 0.1343 -0.9769
vn -0.1768 -0.1341 0.9751
vn -0.0528 -0.9846 -0.1668
vn 0.1550 0.1346 -0.9787
vn -0.0598 0.9873 0.1475
vn 0.0045 0.9888 0.1490
vn -0.0285 0.1362 -0.9903
vn 0.8747 -0.0660 0.4801
vn 0.0254 -0.1362 0.9904
vn -0.6461 -0.1040 0.7562
vn -0.8870 0.0629 -0.4574
vn -0.0105 -0.9919 -0.1268
vn -0.8621 -0.0690 0.5021
vn -0.9815 -0.0261 0.1897
vn -0.1661 0.1343 -0.9769
vn 0.1768 -0.1341 0.9751
vn 0.0528 -0.9846 -0.1668
vn -0.1550 0.1346 -0.9787
vn -0.0000 0.6274 0.7787
vn 0.5490 -0.6323 0.5467
vn -0.0000 -0.6331 0.7741
vn 0.5490 0.6282 0.5513
vn 0.7764 -0.6302 -0.0023
vn 0.7764 0.6303 0.0023
vn 0.5490 -0.6283 -0.5513
vn 0.5490 0.6323 -0.5467
vn -0.0000 -0.6274 -0.7787
vn -0.0000 0.6331 -0.7741
vn -0.5490 -0.6282 -0.5513
vn -0.7764 0.6303 0.0023
vn -0.7764 -0.6302 -0.0023
vn -0.5490 -0.6323 0.5467
vn -0.5490 0.6282 0.5513
vn 0.0598 0.9873 0.1475
vn -0.0302 0.9902 0.1362
vn -0.0401 0.9222 0.3846
vn 0.0001 0.9907 0.1363
vn 0.0302 -0.9902 -0.1362
vn 0.0340 -0.9899 -0.1379
vn -0.0598 -0.9872 -0.1475
vn -0.0528 0.9846 0.1668
vn 0.0339 0.9901 0.1362
vn 0.0295 0.9935 0.1095
vn -0.0302 -0.9902 -0.1362
vn -0.0401 -0.9222 -0.3847
vn -0.0111 -0.9915 -0.1297
vn 0.0598 -0.9872 -0.1475
vn -0.5490 0.6323 -0.5467
vt 1.000000 1.000000
vt 0.937500 0.500000
vt 1.000000 0.500000
vt 0.937500 1.000000
vt 0.875000 0.500000
vt 0.875000 1.000000
vt 0.812500 0.500000
vt 0.812500 1.000000
vt 0.750000 0.500000
vt 0.687500 1.000000
vt 0.687500 0.500000
vt 0.625000 1.000000
vt 0.625000 0.500000
vt 0.562500 1.000000
vt 0.562500 0.500000
vt 0.500000 1.000000
vt 0.500000 0.500000
vt 0.437500 1.000000
vt 0.437500 0.500000
vt 0.375000 1.000000
vt 0.375000 0.500000
vt 0.312500 1.000000
vt 0.312500 0.500000
vt 0.250000 1.000000
vt 0.250000 0.500000
vt 0.187500 0.500000
vt 0.187500 1.000000
vt 0.125000 0.500000
vt 0.106944 0.393056
vt 0.672579 0.436911
vt 0.172579 0.436911
vt 0.125000 1.000000
vt 0.062500 0.500000
vt 0.062500 1.000000
vt 0.000000 0.500000
vt 0.750000 0.452311
vt 0.250000 0.452311
vt 0.841844 0.471731
vt 0.827421 0.436911
vt 0.341844 0.471731
vt 0.250000 0.490000
vt 0.919706 0.419706
vt 0.893055 0.393056
vt 0.327421 0.436911
vt 0.419706 0.419706
vt 0.971731 0.341844
vt 0.936911 0.327421
vt 0.393055 0.393055
vt 0.471731 0.341844
vt 0.990000 0.250000
vt 0.952311 0.250000
vt 0.436911 0.327421
vt 0.490000 0.250000
vt 0.936911 0.172579
vt 0.971731 0.158156
vt 0.436911 0.172579
vt 0.452311 0.250000
vt 0.893055 0.106944
vt 0.919706 0.080294
vt 0.393056 0.106944
vt 0.471731 0.158156
vt 0.827421 0.063089
vt 0.841844 0.028269
vt 0.327421 0.063089
vt 0.419706 0.080294
vt 0.750000 0.047689
vt 0.750000 0.010000
vt 0.250000 0.047689
vt 0.341844 0.028269
vt 0.658156 0.028269
vt 0.672579 0.063089
vt 0.158156 0.028269
vt 0.250000 0.010000
vt 0.580294 0.080294
vt 0.606945 0.106944
vt 0.172579 0.063089
vt 0.080294 0.080294
vt 0.528269 0.158156
vt 0.563089 0.172579
vt 0.106944 0.106944
vt 0.028269 0.158156
vt 0.510000 0.250000
vt 0.547689 0.250000
vt 0.063089 0.172579
vt 0.010000 0.250000
vt 0.563089 0.327421
vt 0.528269 0.341844
vt 0.063089 0.327421
vt 0.047689 0.250000
vt 0.606944 0.393056
vt 0.580294 0.419706
vt 0.028269 0.341844
vt 0.658156 0.471731
vt 0.080294 0.419706
vt 0.750000 0.490000
vt 0.158156 0.471731
vt 0.375000 0.583333
vt 0.625000 0.625000
vt 0.875000 0.562500
vt 0.625000 0.562500
vt 0.125000 0.583333
vt 0.375000 0.625000
vt 0.375000 0.166667
vt 0.375000 0.250000
vt 0.500000 0.250000
vt 0.625000 0.187500
vt 0.625000 0.250000
vt 0.125000 0.625000
vt 0.625000 0.125000
vt 0.750000 1.000000
vt 0.000000 1.000000
vt 0.875000 0.625000
vt 0.375000 0.125000
s 0
usemtl Material
f 36/1/1 33/3/1 34/2/1
f 35/4/2 34/2/2 37/5/2
f 38/6/3 37/5/3 39/7/3
f 40/8/4 39/7/4 41/9/4
f 41/9/5 43/11/5 44/10/5
f 43/11/6 45/13/6 46/12/6
f 45/13/7 47/15/7 48/14/7
f 47/15/8 49/17/8 50/16/8
f 49/17/9 51/19/9 52/18/9
f 51/19/10 53/21/10 54/20/10
f 53/21/11 55/23/11 56/22/11
f 55/23/12 57/25/12 58/24/12
f 58/24/13 57/25/13 59/26/13
f 60/27/14 59/26/14 61/28/14
f 30/29/7 32/31/7 31/30/7
f 62/32/15 61/28/15 63/33/15
f 64/34/16 63/33/16 33/35/16
f 32/31/8 2/37/8 1/36/8
f 1/36/17 3/39/17 34/38/17
f 2/37/18 36/41/18 35/40/18
f 3/39/17 5/43/17 37/42/17
f 4/44/18 35/40/18 38/45/18
f 5/43/17 7/47/17 39/46/17
f 6/48/18 38/45/18 40/49/18
f 7/47/17 9/51/17 41/50/17
f 8/52/18 40/49/18 42/53/18
f 11/54/17 43/55/17 41/50/17
f 12/56/18 10/57/18 42/53/18
f 13/58/17 45/59/17 43/55/17
f 14/60/18 12/56/18 44/61/18
f 15/62/17 47/63/17 45/59/17
f 16/64/18 14/60/18 46/65/18
f 17/66/17 49/67/17 47/63/17
f 18/68/18 16/64/18 48/69/18
f 17/66/17 19/71/17 51/70/17
f 18/68/18 50/73/18 52/72/18
f 19/71/17 21/75/17 53/74/17
f 20/76/18 52/72/18 54/77/18
f 21/75/17 23/79/17 55/78/17
f 22/80/18 54/77/18 56/81/18
f 23/79/17 25/83/17 57/82/17
f 24/84/18 56/81/18 58/85/18
f 27/86/17 59/87/17 57/82/17
f 28/88/18 26/89/18 58/85/18
f 29/90/17 61/91/17 59/87/17
f 30/29/18 28/88/18 60/92/18
f 31/30/17 63/93/17 61/91/17
f 32/31/18 30/29/18 62/94/18
f 1/36/17 33/95/17 63/93/17
f 2/37/18 32/31/18 64/96/18
f 28/88/6 30/29/6 29/90/6
f 26/89/5 28/88/5 27/86/5
f 26/89/4 25/83/4 23/79/4
f 24/84/3 23/79/3 21/75/3
f 22/80/2 21/75/2 19/71/2
f 20/76/1 19/71/1 17/66/1
f 18/68/16 17/66/16 15/62/16
f 16/64/15 15/62/15 13/58/15
f 14/60/14 13/58/14 11/54/14
f 12/56/13 11/54/13 9/51/13
f 8/52/12 10/57/12 9/51/12
f 6/48/11 8/52/11 7/47/11
f 4/44/10 6/48/10 5/43/10
f 2/37/9 4/44/9 3/39/9
f 36/1/1 34/2/1 35/4/1
f 35/4/2 37/5/2 38/6/2
f 38/6/3 39/7/3 40/8/3
f 40/8/4 41/9/4 42/110/4
f 41/9/5 44/10/5 42/110/5
f 43/11/6 46/12/6 44/10/6
f 45/13/7 48/14/7 46/12/7
f 47/15/8 50/16/8 48/14/8
f 49/17/9 52/18/9 50/16/9
f 51/19/10 54/20/10 52/18/10
f 53/21/11 56/22/11 54/20/11
f 55/23/12 58/24/12 56/22/12
f 58/24/13 59/26/13 60/27/13
f 60/27/14 61/28/14 62/32/14
f 30/29/7 31/30/7 29/90/7
f 62/32/15 63/33/15 64/34/15
f 64/34/16 33/35/16 36/111/16
f 32/31/8 1/36/8 31/30/8
f 1/36/17 34/38/17 33/95/17
f 2/37/18 35/40/18 4/44/18
f 3/39/17 37/42/17 34/38/17
f 4/44/18 38/45/18 6/48/18
f 5/43/17 39/46/17 37/42/17
f 6/48/18 40/49/18 8/52/18
f 7/47/17 41/50/17 39/46/17
f 8/52/18 42/53/18 10/57/18
f 11/54/17 41/50/17 9/51/17
f 12/56/18 42/53/18 44/61/18
f 13/58/17 43/55/17 11/54/17
f 14/60/18 44/61/18 46/65/18
f 15/62/17 45/59/17 13/58/17
f 16/64/18 46/65/18 48/69/18
f 17/66/17 47/63/17 15/62/17
f 18/68/18 48/69/18 50/73/18
f 17/66/17 51/70/17 49/67/17
f 18/68/18 52/72/18 20/76/18
f 19/71/17 53/74/17 51/70/17
f 20/76/18 54/77/18 22/80/18
f 21/75/17 55/78/17 53/74/17
f 22/80/18 56/81/18 24/84/18
f 23/79/17 57/82/17 55/78/17
f 24/84/18 58/85/18 26/89/18
f 27/86/17 57/82/17 25/83/17
f 28/88/18 58/85/18 60/92/18
f 29/90/17 59/87/17 27/86/17
f 30/29/18 60/92/18 62/94/18
f 31/30/17 61/91/17 29/90/17
f 32/31/18 62/94/18 64/96/18
f 1/36/17 63/93/17 31/30/17
f 2/37/18 64/96/18 36/41/18
f 28/88/6 29/90/6 27/86/6
f 26/89/5 27/86/5 25/83/5
f 26/89/4 23/79/4 24/84/4
f 24/84/3 21/75/3 22/80/3
f 22/80/2 19/71/2 20/76/2
f 20/76/1 17/66/1 18/68/1
f 18/68/16 15/62/16 16/64/16
f 16/64/15 13/58/15 14/60/15
f 14/60/14 11/54/14 12/56/14
f 12/56/13 9/51/13 10/57/13
f 8/52/12 9/51/12 7/47/12
f 6/48/11 7/47/11 5/43/11
f 4/44/10 5/43/10 3/39/10
f 2/37/9 3/39/9 1/36/9
usemtl Black
f 68/13/19 80/17/19 84/17/19
f 70/97/20 68/13/20 75/98/20
f 75/98/21 86/100/21 85/99/21
f 73/97/22 70/97/22 69/101/22
f 69/101/23 70/97/23 77/102/23
f 72/28/24 71/21/24 73/97/24
f 74/103/25 69/103/25 65/104/25
f 65/104/26 67/21/26 71/21/26
f 67/21/27 70/97/27 73/97/27
f 69/103/25 85/106/25 79/105/25
f 67/21/28 65/104/28 79/105/28
f 84/17/29 83/105/29 81/107/29
f 66/5/30 68/13/30 82/13/30
f 84/17/31 80/17/31 79/105/31
f 83/105/32 79/105/32 66/107/32
f 86/100/33 68/13/33 66/5/33
f 90/13/34 100/13/34 102/17/34
f 98/17/35 77/102/35 104/100/35
f 103/99/36 104/100/36 75/98/36
f 91/101/37 92/97/37 95/97/37
f 91/101/38 78/108/38 77/102/38
f 94/28/39 96/101/39 95/97/39
f 87/104/25 91/103/25 96/103/25
f 87/104/40 94/104/40 93/21/40
f 89/21/27 93/21/27 95/97/27
f 76/109/41 91/103/41 97/105/41
f 97/105/42 87/104/42 89/21/42
f 99/107/43 101/105/43 102/17/43
f 88/5/44 99/5/44 100/13/44
f 97/105/45 98/17/45 102/17/45
f 88/107/46 97/105/46 101/105/46
f 88/5/47 90/13/47 104/100/47
f 68/13/63 84/17/63 82/13/63
f 80/17/27 70/97/27 67/21/27
f 70/97/64 75/98/64 77/102/64
f 75/98/65 68/13/65 86/100/65
f 68/13/66 70/97/66 80/17/66
f 75/98/21 85/99/21 76/112/21
f 73/97/22 69/101/22 74/101/22
f 69/101/23 77/102/23 78/108/23
f 72/28/24 73/97/24 74/101/24
f 74/103/25 65/104/25 72/104/25
f 65/104/26 71/21/26 72/104/26
f 67/21/27 73/97/27 71/21/27
f 76/109/67 69/103/67 78/113/67
f 69/103/25 79/105/25 65/104/25
f 79/105/25 85/106/25 66/107/25
f 85/106/68 69/103/68 76/109/68
f 67/21/28 79/105/28 80/17/28
f 84/17/29 81/107/29 82/13/29
f 66/5/30 82/13/30 81/5/30
f 84/17/31 79/105/31 83/105/31
f 83/105/69 66/107/69 81/107/69
f 86/100/33 66/5/33 85/99/33
f 90/13/70 102/17/70 98/17/70
f 92/97/27 98/17/27 89/21/27
f 98/17/27 104/100/27 90/13/27
f 104/100/71 77/102/71 75/98/71
f 77/102/72 98/17/72 92/97/72
f 103/99/36 75/98/36 76/112/36
f 91/101/37 95/97/37 96/101/37
f 91/101/38 77/102/38 92/97/38
f 94/28/39 95/97/39 93/21/39
f 87/104/25 96/103/25 94/104/25
f 87/104/40 93/21/40 89/21/40
f 89/21/27 95/97/27 92/97/27
f 91/103/73 76/109/73 78/113/73
f 76/109/74 88/107/74 103/106/74
f 97/105/25 91/103/25 87/104/25
f 76/109/75 97/105/75 88/107/75
f 97/105/42 89/21/42 98/17/42
f 99/107/43 102/17/43 100/13/43
f 88/5/44 100/13/44 90/13/44
f 97/105/45 102/17/45 101/105/45
f 88/107/76 101/105/76 99/107/76
f 88/5/47 104/100/47 103/99/47
s 1
usemtl metal
f 106/1/48 105/3/50 107/5/49
f 108/6/51 107/5/49 109/9/52
f 110/110/53 109/9/52 111/13/54
f 112/12/55 111/13/54 113/17/56
f 114/16/57 113/17/56 115/21/58
f 115/21/58 117/25/60 118/24/59
f 118/85/59 110/53/53 114/73/57
f 118/24/59 117/25/60 119/28/61
f 120/32/62 119/28/61 105/35/50
f 111/59/54 119/91/61 115/74/58
f 106/1/48 107/5/49 108/6/51
f 108/6/51 109/9/52 110/110/53
f 110/110/53 111/13/54 112/12/55
f 112/12/55 113/17/56 114/16/57
f 114/16/57 115/21/58 116/20/77
f 115/21/58 118/24/59 116/20/77
f 110/53/53 106/41/48 108/45/51
f 106/41/48 118/85/59 120/94/62
f 118/85/59 114/73/57 116/77/77
f 114/73/57 110/53/53 112/65/55
f 110/53/53 118/85/59 106/41/48
f 118/24/59 119/28/61 120/32/62
f 120/32/62 105/35/50 106/111/48
f 119/91/61 107/42/49 105/95/50
f 107/42/49 111/59/54 109/50/52
f 111/59/54 115/74/58 113/67/56
f 115/74/58 119/91/61 117/82/60
f 119/91/61 111/59/54 107/42/49
