# Blender 4.2.0
# www.blender.org
mtllib windows.mtl
o fixation
v -0.980674 0.757774 -5.900902
v -0.980674 1.090191 -5.888818
v 0.980638 0.757654 -5.900893
v 0.979879 1.090191 -5.887011
v -0.979947 0.757653 -5.882051
v 0.979879 1.090191 -5.871809
v -0.980674 1.090191 -5.873607
v 0.980638 0.757654 -5.882051
v 1.265217 1.129628 -1.700956
v 1.265217 1.122307 -1.708277
v 1.265217 1.132307 -1.690956
v 1.265217 1.112307 -1.710958
v 1.265216 1.122307 -0.378275
v 1.265217 1.129628 -0.385595
v 1.265215 1.112307 -0.375595
v 1.265217 1.132307 -0.395595
v 1.275000 1.122307 -1.708277
v 1.275000 1.129628 -1.700956
v 1.275000 1.112307 -1.710958
v 1.275000 1.132307 -1.690956
v 1.275000 1.129628 -0.385595
v 1.275000 1.122307 -0.378275
v 1.275000 1.132307 -0.395595
v 1.260185 0.887813 1.882689
v 1.265216 0.887811 1.882689
v 1.265216 0.017511 1.882689
v 1.260185 0.017512 1.882689
v 1.265216 0.165667 5.755519
v 1.260185 0.165668 5.755519
v 1.260185 0.936472 5.755611
v 1.265216 0.936471 5.755611
v 1.265216 0.113571 5.755519
v 1.260185 0.113572 5.755519
v 1.260185 0.936472 5.703507
v 1.265216 0.936471 5.703507
v 1.260185 0.936472 5.134632
v 1.265216 0.936471 5.134632
v 1.265216 0.113571 5.703424
v 1.260185 0.113572 5.703424
v 1.265216 0.113621 5.134651
v 1.260185 0.113622 5.134651
v 1.260185 0.936472 5.082556
v 1.265216 0.936471 5.082556
v 1.275000 0.204459 5.059081
v 1.265217 0.204459 5.059082
v 1.265216 0.113621 5.082556
v 1.260185 0.113622 5.082556
v 1.275000 0.902371 5.006968
v 1.265216 0.902372 4.443468
v 1.275000 0.902371 4.443468
v 1.265216 0.898407 4.423532
v 1.275000 0.898406 4.423532
v 1.265216 0.887114 4.406631
v 1.275000 0.887113 4.406631
v 1.265216 0.870213 4.395338
v 1.275000 0.870212 4.395338
v 1.265216 0.850277 4.391373
v 1.275000 0.850276 4.391373
v 1.265217 0.204459 4.389627
v 1.275000 0.204459 4.389627
v 1.265217 0.184523 4.393593
v 1.275000 0.184523 4.393592
v 1.275000 0.184523 5.055116
v 1.265217 0.184523 5.055117
v 1.275000 0.167622 5.043823
v 1.265217 0.167622 5.043823
v 1.265217 0.167622 4.404885
v 1.275000 0.167622 4.404885
v 1.275000 0.156329 5.026922
v 1.265217 0.156329 5.026922
v 1.275000 0.152363 5.006987
v 1.265217 0.152363 5.006987
v 1.275000 0.156329 4.421786
v 1.265217 0.156329 4.421786
v 1.275000 0.152363 4.441722
v 1.265217 0.152363 4.441723
v 1.275001 -0.138081 4.494397
v 1.275001 -0.130256 4.455060
v 1.275001 0.067504 5.688015
v 1.275001 -0.107974 4.421712
v 1.275001 0.066071 5.699787
v 1.265216 0.062128 5.711131
v 1.275001 0.062127 5.711131
v 1.275001 -0.074625 4.399429
v 1.265217 -0.035287 4.391604
v 1.275001 0.004048 4.399429
v 1.265217 0.004049 4.399429
v 1.265217 0.037397 4.421712
v 1.275001 0.059680 4.455060
v 1.265217 0.055862 5.721501
v 1.265217 0.047582 5.730396
v 1.275001 0.047581 5.730396
v 1.275001 0.067503 4.494397
v 1.265217 0.067504 4.494397
v 1.265216 0.037687 5.737385
v 1.275001 0.037686 5.737385
v 1.265217 0.026653 5.742130
v 1.275001 0.026652 5.742130
v 1.275001 0.015012 5.744401
v 1.265217 0.015013 5.744401
v 1.275001 -0.138081 5.205860
v 1.275000 -0.129083 5.304443
v 1.275001 -0.048735 5.696754
v 1.275001 -0.044915 5.708098
v 1.275000 -0.038653 5.718686
v 1.275001 -0.030265 5.727985
v 1.275001 -0.020171 5.735530
v 1.275001 0.003050 5.743949
v 1.265216 -0.044914 5.708098
v 1.265216 0.993141 -5.640358
v 1.275000 0.993140 -5.640358
v 1.265216 1.039478 -5.622198
v 1.275000 1.043141 -5.604099
v 1.275000 1.043140 -5.184277
v 1.265216 1.013438 -5.641899
v 1.275000 1.029047 -5.635471
v 1.265216 1.028496 -5.148921
v 1.275000 1.028495 -5.148921
v 1.265216 0.993140 -5.134276
v 1.275000 0.993140 -5.134276
v 1.275000 0.557714 -5.138083
v 1.275000 0.556500 -5.512753
v 1.265216 0.556501 -5.512753
v 1.265216 0.541494 -5.148921
v 1.275000 0.530459 -5.478334
v 1.275000 0.526796 -5.458164
v 1.265216 0.526797 -5.458164
v 1.274986 0.526797 -5.186372
v 1.265202 0.526798 -5.186372
v -1.275001 -0.027390 5.914227
v -1.031049 1.119373 6.063519
v -0.000000 1.119432 6.086132
v -1.024098 -0.027420 6.091526
v -1.124759 -0.027421 6.074667
v -1.024349 -0.027420 6.088001
v -1.127454 -0.027420 6.079735
v -1.112878 1.119386 6.044756
v -1.257987 -0.027390 5.978643
v -1.197339 1.119322 6.010855
v -1.112133 1.119209 6.042381
v -1.262036 -0.027361 5.985746
v -1.207290 -0.027421 6.042231
v -1.030999 1.119109 6.062428
v -1.274788 1.119436 5.912533
v -1.254360 1.119435 5.972555
v -1.204864 -0.027405 6.037462
v -1.253632 1.119412 5.978092
v -1.197412 1.119398 6.015907
v -0.000000 -0.027420 6.112045
v -0.000000 -0.027420 6.108521
v 0.000000 1.119109 6.079613
v -0.326768 -0.027420 6.113768
v -0.645560 -0.027420 6.109688
v -0.687014 1.119393 6.083553
v -0.315573 1.119412 6.086826
v 1.275001 -0.027389 5.914227
v 1.031048 1.119374 6.063520
v 1.024098 -0.027420 6.091526
v 1.124759 -0.027421 6.074669
v 1.024349 -0.027420 6.088001
v 1.127454 -0.027420 6.079735
v 1.112877 1.119386 6.044756
v 1.257987 -0.027390 5.978643
v 1.197339 1.119322 6.010853
v 1.112133 1.119209 6.042383
v 1.262036 -0.027360 5.985746
v 1.207289 -0.027421 6.042231
v 1.030999 1.119109 6.062426
v 1.274788 1.119436 5.912533
v 1.254360 1.119435 5.972555
v 1.204864 -0.027405 6.037462
v 1.253632 1.119412 5.978092
v 1.197412 1.119398 6.015907
v 0.326768 -0.027420 6.113768
v 0.645560 -0.027420 6.109688
v 0.687014 1.119393 6.083553
v 0.315573 1.119412 6.086826
v 1.265202 0.540890 -5.497503
v 1.265202 0.530460 -5.478334
v 1.265202 0.574913 -5.521764
v 1.265202 1.029048 -5.635472
v 1.265202 1.043141 -5.604099
v 1.265202 0.576797 -5.134276
v 1.265202 1.012275 -5.138082
v 1.265202 0.557663 -5.138082
v 1.265202 0.530603 -5.165142
v 1.265202 1.039335 -5.165142
v 1.265202 1.043141 -5.184276
v 1.275000 0.540890 -5.497503
v 1.275000 0.574913 -5.521764
v 1.275000 1.039478 -5.622199
v 1.275000 1.013438 -5.641899
v 1.275000 0.576797 -5.134276
v 1.275000 1.012275 -5.138082
v 1.275000 0.541442 -5.148921
v 1.275000 0.530603 -5.165142
v 1.275000 1.039335 -5.165142
v 1.275000 1.112307 -0.375595
v 1.275000 -0.006955 -1.700808
v 1.275000 0.000261 -1.708024
v 1.275000 -0.009924 -1.691003
v 1.275000 0.010076 -1.711003
v 1.265217 0.000261 -1.708024
v 1.265216 -0.006955 -1.700808
v 1.265217 0.010076 -1.711003
v 1.265216 -0.009924 -1.691003
v 1.275000 0.000261 -0.378557
v 1.275000 -0.006956 -0.385773
v 1.275000 0.010078 -0.375589
v 1.275000 -0.009922 -0.395589
v 1.265142 -0.006956 -0.385773
v 1.265142 0.000261 -0.378557
v 1.265142 -0.009922 -0.395589
v 1.265143 0.010078 -0.375589
v 1.265217 0.870261 5.055117
v 1.265217 0.898455 5.026922
v 1.265217 0.887162 5.043823
v 1.265217 -0.107974 4.421712
v 1.265217 -0.048735 5.696753
v 1.265217 0.850325 5.059082
v 1.265217 0.902421 5.006987
v 1.265217 -0.138081 5.205860
v 1.275000 0.055862 5.721501
v 1.275000 0.037397 4.421712
v 1.265217 -0.030265 5.727985
v 1.265217 0.003050 5.743949
v 1.275000 -0.008878 5.740942
v 1.265217 -0.129083 5.304443
v 1.265217 -0.130256 4.455060
v 1.265217 -0.138081 4.494397
v 1.265217 0.059680 4.455060
v 1.265217 -0.008878 5.740942
v 1.265217 -0.074625 4.399429
v 1.275001 -0.035288 4.391604
v 1.265217 -0.038653 5.718686
v 1.265217 0.067504 5.688015
v 1.265217 0.066071 5.699787
v 1.265217 -0.020171 5.735530
v 1.275000 0.870261 5.055117
v 1.275000 0.898455 5.026922
v 1.275000 0.887162 5.043823
v 1.275000 0.850325 5.059082
v 0.316436 1.153327 4.721346
v 0.294775 1.053327 4.818973
v 0.308147 1.145715 4.758706
v 0.301119 1.124038 4.790379
v 0.296424 1.091596 4.811541
v 0.398892 1.053327 4.349717
v 0.377231 1.153327 4.447343
v 0.397243 1.091596 4.357148
v 0.392548 1.124038 4.378311
v 0.385521 1.145715 4.409983
v 0.375329 1.153327 4.446920
v 0.396990 1.053327 4.349295
v 0.383618 1.145715 4.409561
v 0.390646 1.124038 4.377889
v 0.395341 1.091596 4.356726
v 0.292873 1.053327 4.818550
v 0.314534 1.153327 4.720924
v 0.294522 1.091596 4.811119
v 0.299217 1.124038 4.789956
v 0.306245 1.145715 4.758285
v 0.294775 0.352732 4.818973
v 0.316436 0.252732 4.721346
v 0.296424 0.314464 4.811541
v 0.301119 0.282022 4.790379
v 0.308147 0.260344 4.758706
v 0.377231 0.252732 4.447343
v 0.398892 0.352732 4.349717
v 0.385521 0.260344 4.409983
v 0.392548 0.282022 4.378311
v 0.397243 0.314464 4.357148
v 0.396990 0.352732 4.349295
v 0.375329 0.252732 4.446920
v 0.395341 0.314464 4.356726
v 0.390646 0.282022 4.377889
v 0.383618 0.260344 4.409561
v 0.314534 0.252732 4.720924
v 0.292873 0.352732 4.818550
v 0.306244 0.260344 4.758285
v 0.299217 0.282022 4.789956
v 0.294522 0.314464 4.811119
v 0.055141 0.496737 5.326139
v 0.044651 0.496737 5.320649
v 0.266219 0.717421 4.922794
v 0.255730 0.717421 4.917305
v 0.140995 0.719604 5.136548
v 0.151485 0.719604 5.142037
v 0.266219 0.021376 4.922794
v 0.255730 0.021376 4.917305
v 0.054607 -0.023862 5.301624
v 0.054672 -0.676399 5.301500
v 0.065097 -0.676399 5.307114
v 0.065097 -0.023862 5.307114
v 0.255771 -0.676399 4.917226
v 0.255754 -0.023862 4.917257
v 0.266237 -0.023862 4.922760
v 0.266229 -0.676399 4.922777
v 0.065097 0.021376 5.307114
v 0.054607 0.021376 5.301624
v 0.055141 0.119624 5.326139
v 0.044651 0.119624 5.320649
v 0.066590 0.119618 5.304298
v 0.056100 0.119618 5.298809
v 0.075159 0.119623 5.288293
v 0.064669 0.119623 5.282804
v 0.075159 0.098067 5.288293
v 0.064669 0.098067 5.282804
v 0.064678 0.021380 5.282786
v 0.075168 0.021380 5.288277
v 0.266229 -0.713497 4.922777
v 0.065097 -0.713497 5.307114
v -0.349264 -0.078733 5.645465
v -0.349263 -0.078733 5.464491
v -0.195644 -0.078733 5.645465
v -0.195607 -0.078733 5.464491
v -0.362939 -0.078733 5.478154
v -0.181966 -0.078733 5.478130
v -0.362939 -0.078733 5.631761
v -0.181966 -0.078733 5.631767
v -0.195644 0.123471 5.645465
v -0.362939 0.015876 5.631761
v -0.349263 0.015876 5.464491
v -0.349264 0.015876 5.645465
v -0.195607 0.123471 5.464491
v -0.362939 0.015876 5.478154
v -0.288403 0.109289 5.478154
v -0.288555 0.109410 5.631775
v -0.275034 0.109216 5.464491
v -0.275540 0.108579 5.645465
v -0.181966 0.123471 5.631767
v -0.181966 0.123471 5.478130
v -0.195642 0.109213 5.464439
v -0.362939 0.003548 5.478154
v -0.362939 0.004804 5.631761
v 1.265143 0.010078 4.246334
v 1.265142 -0.009922 4.226335
v 1.265142 0.000261 4.243366
v 1.265142 -0.006956 4.236151
v 1.275000 -0.009922 4.226335
v 1.275000 0.010078 4.246334
v 1.275000 -0.006956 4.236151
v 1.275000 0.000261 4.243366
v 1.265216 -0.009924 2.754686
v 1.265217 0.010076 2.734686
v 1.265216 -0.006955 2.744883
v 1.265217 0.000261 2.737665
v 1.275000 0.010076 2.734686
v 1.275000 -0.009924 2.754686
v 1.275000 0.000261 2.737665
v 1.275000 -0.006955 2.744883
v 1.275000 1.112307 4.246328
v 1.275000 1.132307 4.226329
v 1.275000 1.122307 4.243649
v 1.275000 1.129628 4.236328
v 1.275000 1.132307 2.754734
v 1.275000 1.112307 2.734732
v 1.275000 1.129628 2.744734
v 1.275000 1.122307 2.737413
v 1.265217 1.132307 4.226329
v 1.265215 1.112307 4.246328
v 1.265217 1.129628 4.236328
v 1.265216 1.122307 4.243649
v 1.265217 1.112307 2.734732
v 1.265217 1.132307 2.754734
v 1.265217 1.122307 2.737413
v 1.265217 1.129628 2.744734
v 1.265217 1.129628 -0.240496
v 1.265217 1.122307 -0.247816
v 1.265217 1.132307 -0.230495
v 1.265217 1.112307 -0.250497
v 1.265216 1.122307 1.121158
v 1.265217 1.129628 1.113838
v 1.265215 1.112307 1.123838
v 1.265217 1.132307 1.103838
v 1.275000 1.122307 -0.247816
v 1.275000 1.129628 -0.240496
v 1.275000 1.112307 -0.250497
v 1.275000 1.132307 -0.230495
v 1.275000 1.129628 1.113838
v 1.275000 1.122307 1.121158
v 1.275000 1.132307 1.103838
v 1.275000 1.112307 1.123838
v 1.275000 -0.006955 -0.240347
v 1.275000 0.000261 -0.247563
v 1.275000 -0.009924 -0.230542
v 1.275000 0.010076 -0.250543
v 1.265217 0.000261 -0.247563
v 1.265216 -0.006955 -0.240347
v 1.265217 0.010076 -0.250543
v 1.265216 -0.009924 -0.230542
v 1.275000 0.000261 1.120876
v 1.275000 -0.006956 1.113660
v 1.275000 0.010078 1.123844
v 1.275000 -0.009922 1.103844
v 1.265142 -0.006956 1.113660
v 1.265142 0.000261 1.120876
v 1.265142 -0.009922 1.103844
v 1.265143 0.010078 1.123844
v 1.275000 0.067417 1.964774
v 1.275000 0.117418 1.914774
v 1.275000 0.069865 1.949323
v 1.275000 0.076967 1.935385
v 1.275000 0.088028 1.924323
v 1.275000 0.101967 1.917221
v 1.265467 0.117418 1.914774
v 1.265467 0.067417 1.964774
v 1.265467 0.101967 1.917221
v 1.265467 0.088028 1.924323
v 1.265467 0.076967 1.935385
v 1.265467 0.069865 1.949323
v 1.275000 0.067418 2.538350
v 1.275000 0.101967 2.585902
v 1.275000 0.088028 2.578801
v 1.275000 0.076967 2.567739
v 1.275000 0.069865 2.553802
v 1.265467 0.067418 2.538350
v 1.265467 0.117418 2.588350
v 1.265467 0.069865 2.553802
v 1.265467 0.076967 2.567739
v 1.265467 0.088028 2.578801
v 1.265467 0.101967 2.585902
v 1.275000 0.117418 2.588350
v 1.275000 0.855428 2.538350
v 1.275000 0.805428 2.588349
v 1.275000 0.852981 2.553801
v 1.275000 0.845879 2.567739
v 1.275000 0.834817 2.578801
v 1.275000 0.820879 2.585902
v 1.265467 0.805428 2.588349
v 1.265467 0.855428 2.538350
v 1.265467 0.820879 2.585902
v 1.265467 0.834817 2.578801
v 1.265467 0.845879 2.567739
v 1.265467 0.852981 2.553801
v 1.275000 0.805428 1.914773
v 1.275000 0.855428 1.964774
v 1.275000 0.820879 1.917221
v 1.275000 0.834817 1.924323
v 1.275000 0.845879 1.935384
v 1.275000 0.852981 1.949323
v 1.265467 0.855428 1.964774
v 1.265467 0.805428 1.914773
v 1.265467 0.852981 1.949323
v 1.265467 0.845879 1.935384
v 1.265467 0.834817 1.924323
v 1.265467 0.820879 1.917221
v 1.265217 1.112289 1.263160
v 1.265217 1.132289 1.283188
v 1.265217 1.118442 1.264235
v 1.265217 1.124007 1.267044
v 1.265217 1.131222 1.277034
v 1.265217 1.128421 1.271465
v 1.265217 1.132289 2.567986
v 1.265217 1.112289 2.587992
v 1.265217 1.131222 2.574139
v 1.265217 1.128421 2.579704
v 1.265217 1.118442 2.586923
v 1.265217 1.124007 2.584120
v 1.265217 0.949781 2.588033
v 1.265217 0.929781 2.568039
v 1.265217 0.943628 2.586967
v 1.265217 0.938064 2.584167
v 1.265217 0.930849 2.574191
v 1.265217 0.933649 2.579755
v 1.265217 0.929781 1.282936
v 1.265217 0.949781 1.262965
v 1.265217 0.930849 1.276785
v 1.265217 0.933650 1.271224
v 1.265217 0.943628 1.264023
v 1.265217 0.938064 1.266816
v 1.275000 1.112289 1.263160
v 1.275000 1.132289 1.283188
v 1.275000 1.118442 1.264235
v 1.275000 1.124007 1.267044
v 1.275000 1.131222 1.277034
v 1.275000 1.128421 1.271465
v 1.275000 1.132289 2.567986
v 1.275000 1.112289 2.587992
v 1.275000 1.131222 2.574139
v 1.275000 1.128421 2.579704
v 1.275000 1.118442 2.586923
v 1.275000 1.124007 2.584120
v 1.275000 0.949781 2.588033
v 1.275000 0.929781 2.568039
v 1.275000 0.943628 2.586967
v 1.275000 0.938064 2.584167
v 1.275000 0.930849 2.574191
v 1.275000 0.933649 2.579755
v 1.275000 0.929781 1.282936
v 1.275000 0.949781 1.262965
v 1.275000 0.930849 1.276785
v 1.275000 0.933650 1.271224
v 1.275000 0.943628 1.264023
v 1.275000 0.938064 1.266816
v 1.265217 1.129609 -3.191517
v 1.265217 1.122289 -3.198837
v 1.265217 1.132289 -3.181517
v 1.265217 1.112289 -3.201518
v 1.265216 1.128255 -1.838760
v 1.265217 1.135576 -1.846081
v 1.265215 1.118255 -1.836081
v 1.265217 1.138255 -1.856080
v 1.275000 1.122289 -3.198837
v 1.275000 1.129609 -3.191517
v 1.275000 1.112289 -3.201518
v 1.275000 1.132289 -3.181517
v 1.275000 1.135576 -1.846081
v 1.275000 1.128255 -1.838760
v 1.275000 1.138255 -1.856080
v 1.275000 1.118255 -1.836081
v 1.275000 0.266899 -3.191368
v 1.275000 0.274115 -3.198585
v 1.275000 0.263930 -3.181563
v 1.275000 0.283930 -3.201564
v 1.265217 0.274115 -3.198585
v 1.265216 0.266899 -3.191368
v 1.265217 0.283930 -3.201564
v 1.265216 0.263930 -3.181563
v 1.275000 0.274115 -1.839043
v 1.275000 0.266898 -1.846258
v 1.275000 0.283932 -1.836075
v 1.275000 0.263932 -1.856074
v 1.265142 0.266898 -1.846258
v 1.265142 0.274115 -1.839043
v 1.265142 0.263932 -1.856074
v 1.265143 0.283932 -1.836075
v 1.260185 1.096399 -4.193264
v 1.265216 1.096398 -4.193264
v 1.265216 0.287900 -4.193264
v 1.260185 0.287901 -4.193264
v 1.275000 0.344276 -4.111179
v 1.275000 0.394276 -4.161179
v 1.275000 0.346724 -4.126629
v 1.275000 0.353826 -4.140568
v 1.275000 0.364887 -4.151629
v 1.275000 0.378826 -4.158731
v 1.265467 0.394276 -4.161179
v 1.265467 0.344276 -4.111179
v 1.265467 0.378826 -4.158731
v 1.265467 0.364887 -4.151629
v 1.265467 0.353826 -4.140568
v 1.265467 0.346724 -4.126629
v 1.275000 0.344277 -3.376767
v 1.275000 0.378826 -3.329215
v 1.275000 0.364887 -3.336316
v 1.275000 0.353826 -3.347378
v 1.275000 0.346724 -3.361315
v 1.265467 0.344277 -3.376767
v 1.265467 0.394276 -3.326766
v 1.265467 0.346724 -3.361315
v 1.265467 0.353826 -3.347378
v 1.265467 0.364887 -3.336316
v 1.265467 0.378826 -3.329215
v 1.275000 0.394277 -3.326766
v 1.275000 1.096398 -3.376767
v 1.275000 1.046398 -3.326767
v 1.275000 1.093951 -3.361316
v 1.275000 1.086849 -3.347378
v 1.275000 1.075787 -3.336316
v 1.275000 1.061849 -3.329215
v 1.265467 1.046398 -3.326767
v 1.265467 1.096398 -3.376767
v 1.265467 1.061849 -3.329215
v 1.265467 1.075787 -3.336316
v 1.265467 1.086849 -3.347378
v 1.265467 1.093951 -3.361316
v 1.275000 1.046398 -4.161179
v 1.275000 1.096398 -4.111179
v 1.275000 1.061849 -4.158732
v 1.275000 1.075787 -4.151630
v 1.275000 1.086849 -4.140568
v 1.275000 1.093951 -4.126629
v 1.265467 1.096398 -4.111179
v 1.265467 1.046398 -4.161179
v 1.265467 1.093951 -4.126629
v 1.265467 1.086849 -4.140568
v 1.265467 1.075787 -4.151630
v 1.265467 1.061849 -4.158732
v -1.275074 0.516920 4.246334
v -1.275075 0.496920 4.226335
v -1.275075 0.507104 4.243366
v -1.275075 0.499887 4.236151
v -1.265217 0.496920 4.226335
v -1.265217 0.516920 4.246334
v -1.265217 0.499887 4.236151
v -1.265217 0.507104 4.243366
v -1.275001 0.496918 2.813395
v -1.275000 0.516918 2.793394
v -1.275001 0.499887 2.803591
v -1.275000 0.507104 2.796373
v -1.265217 0.516918 2.793394
v -1.265217 0.496918 2.813395
v -1.265217 0.507104 2.796373
v -1.265217 0.499888 2.803591
v -1.265217 1.112307 4.246328
v -1.265217 1.132307 4.226329
v -1.265217 1.122307 4.243649
v -1.265217 1.129628 4.236328
v -1.265217 1.132307 2.813442
v -1.265217 1.112307 2.793440
v -1.265217 1.129628 2.803442
v -1.265217 1.122307 2.796122
v -1.275000 1.132307 4.226329
v -1.275002 1.112307 4.246328
v -1.275000 1.129628 4.236328
v -1.275001 1.122307 4.243649
v -1.275000 1.112307 2.793440
v -1.275000 1.132307 2.813442
v -1.275000 1.122307 2.796122
v -1.275000 1.129628 2.803442
v -1.260185 0.887813 1.938427
v -1.265216 0.887811 1.938427
v -1.265216 0.017511 1.938427
v -1.260186 0.017512 1.938427
v -1.275001 0.067417 2.020513
v -1.275001 0.117418 1.970512
v -1.275001 0.069865 2.005061
v -1.275001 0.076967 1.991123
v -1.275001 0.088028 1.980062
v -1.275001 0.101967 1.972960
v -1.265468 0.117418 1.970512
v -1.265468 0.067417 2.020513
v -1.265468 0.101967 1.972960
v -1.265468 0.088028 1.980062
v -1.265468 0.076967 1.991123
v -1.265468 0.069865 2.005061
v -1.275001 0.067418 2.597057
v -1.275001 0.101967 2.644609
v -1.275001 0.088028 2.637508
v -1.275001 0.076967 2.626446
v -1.275001 0.069865 2.612509
v -1.265468 0.067418 2.597057
v -1.265468 0.117418 2.647058
v -1.265468 0.069865 2.612509
v -1.265468 0.076967 2.626446
v -1.265468 0.088028 2.637508
v -1.265468 0.101967 2.644609
v -1.275001 0.117418 2.647058
v -1.275001 0.855428 2.597057
v -1.275001 0.805428 2.647057
v -1.275001 0.852981 2.612508
v -1.275001 0.845879 2.626446
v -1.275001 0.834817 2.637508
v -1.275001 0.820879 2.644609
v -1.265468 0.805428 2.647057
v -1.265468 0.855428 2.597057
v -1.265468 0.820879 2.644609
v -1.265468 0.834817 2.637508
v -1.265468 0.845879 2.626446
v -1.265468 0.852981 2.612508
v -1.275001 0.805428 1.970511
v -1.275001 0.855428 2.020512
v -1.275001 0.820879 1.972959
v -1.275001 0.834817 1.980061
v -1.275001 0.845879 1.991122
v -1.275001 0.852981 2.005061
v -1.265468 0.855428 2.020512
v -1.265468 0.805428 1.970511
v -1.265468 0.852981 2.005061
v -1.265468 0.845879 1.991122
v -1.265468 0.834817 1.980061
v -1.265468 0.820879 1.972959
v -1.265217 1.112289 1.263160
v -1.265217 1.132289 1.283188
v -1.265217 1.118442 1.264235
v -1.265217 1.124007 1.267044
v -1.265217 1.131222 1.277034
v -1.265217 1.128421 1.271465
v -1.265217 1.132289 2.626694
v -1.265217 1.112289 2.646700
v -1.265217 1.131222 2.632847
v -1.265217 1.128421 2.638412
v -1.265217 1.118442 2.645631
v -1.265217 1.124007 2.642828
v -1.265217 0.949781 2.646741
v -1.265217 0.929781 2.626747
v -1.265217 0.943628 2.645676
v -1.265217 0.938064 2.642876
v -1.265217 0.930849 2.632899
v -1.265217 0.933649 2.638463
v -1.265217 0.929781 1.282936
v -1.265217 0.949781 1.262965
v -1.265217 0.930849 1.276785
v -1.265217 0.933650 1.271224
v -1.265217 0.943628 1.264023
v -1.265217 0.938064 1.266816
v -1.275001 1.112289 1.263160
v -1.275001 1.132289 1.283188
v -1.275001 1.118442 1.264235
v -1.275001 1.124007 1.267044
v -1.275001 1.131222 1.277034
v -1.275001 1.128421 1.271465
v -1.275001 1.132289 2.626694
v -1.275001 1.112289 2.646700
v -1.275001 1.131222 2.632847
v -1.275001 1.128421 2.638412
v -1.275001 1.118442 2.645631
v -1.275001 1.124007 2.642828
v -1.275001 0.949781 2.646741
v -1.275001 0.929781 2.626747
v -1.275001 0.943628 2.645676
v -1.275001 0.938064 2.642876
v -1.275001 0.930849 2.632899
v -1.275001 0.933649 2.638463
v -1.275001 0.929781 1.282936
v -1.275001 0.949781 1.262965
v -1.275001 0.930849 1.276785
v -1.275001 0.933650 1.271224
v -1.275001 0.943628 1.264023
v -1.275001 0.938064 1.266816
v -1.274999 1.129628 -0.210503
v -1.274999 1.122307 -0.217824
v -1.274999 1.132307 -0.200503
v -1.274999 1.112307 -0.220504
v -1.275000 1.122307 1.121158
v -1.274999 1.129628 1.113838
v -1.275001 1.112307 1.123838
v -1.274999 1.132307 1.103838
v -1.265216 1.122307 -0.217824
v -1.265216 1.129628 -0.210503
v -1.265216 1.112307 -0.220504
v -1.265216 1.132307 -0.200503
v -1.265216 1.129628 1.113838
v -1.265216 1.122307 1.121158
v -1.265216 1.132307 1.103838
v -1.265216 1.112307 1.123838
v -1.265216 -0.006955 -0.210354
v -1.265216 0.000261 -0.217571
v -1.265216 -0.009924 -0.200550
v -1.265216 0.010076 -0.220550
v -1.274999 0.000261 -0.217571
v -1.275000 -0.006955 -0.210354
v -1.274999 0.010076 -0.220550
v -1.275000 -0.009924 -0.200550
v -1.265216 0.000261 1.120876
v -1.265216 -0.006956 1.113660
v -1.265216 0.010078 1.123844
v -1.265216 -0.009922 1.103844
v -1.275074 -0.006956 1.113660
v -1.275074 0.000261 1.120876
v -1.275074 -0.009922 1.103844
v -1.275074 0.010078 1.123844
v -1.275077 1.129609 -3.191517
v -1.275077 1.122289 -3.198837
v -1.275077 1.132289 -3.181517
v -1.275077 1.112289 -3.201518
v -1.275076 1.128255 -1.838760
v -1.275077 1.135576 -1.846081
v -1.275075 1.118255 -1.836081
v -1.275077 1.138255 -1.856080
v -1.275077 0.274115 -3.198585
v -1.275077 0.266899 -3.191368
v -1.275077 0.283930 -3.201564
v -1.275076 0.263930 -3.181563
v -1.275002 0.266898 -1.846258
v -1.275002 0.274115 -1.839043
v -1.275002 0.263932 -1.856074
v -1.275003 0.283932 -1.836075
v -1.259937 1.096399 -4.193264
v -1.264968 1.096398 -4.193264
v -1.264968 0.287900 -4.193264
v -1.259937 0.287901 -4.193264
v -1.274752 0.344276 -4.111179
v -1.274752 0.394276 -4.161179
v -1.274752 0.346724 -4.126629
v -1.274752 0.353826 -4.140568
v -1.274752 0.364887 -4.151629
v -1.274752 0.378826 -4.158731
v -1.265219 0.394276 -4.161179
v -1.265219 0.344276 -4.111179
v -1.265219 0.378826 -4.158731
v -1.265219 0.364887 -4.151629
v -1.265219 0.353826 -4.140568
v -1.265219 0.346724 -4.126629
v -1.274752 0.344277 -3.376767
v -1.274752 0.378826 -3.329215
v -1.274752 0.364887 -3.336316
v -1.274752 0.353826 -3.347378
v -1.274752 0.346724 -3.361315
v -1.265219 0.344277 -3.376767
v -1.265219 0.394276 -3.326766
v -1.265219 0.346724 -3.361315
v -1.265219 0.353826 -3.347378
v -1.265219 0.364887 -3.336316
v -1.265219 0.378826 -3.329215
v -1.274752 0.394277 -3.326766
v -1.274752 1.096398 -3.376767
v -1.274752 1.046398 -3.326767
v -1.274752 1.093951 -3.361316
v -1.274752 1.086849 -3.347378
v -1.274752 1.075787 -3.336316
v -1.274752 1.061849 -3.329215
v -1.265219 1.046398 -3.326767
v -1.265219 1.096398 -3.376767
v -1.265219 1.061849 -3.329215
v -1.265219 1.075787 -3.336316
v -1.265219 1.086849 -3.347378
v -1.265219 1.093951 -3.361316
v -1.274752 1.046398 -4.161179
v -1.274752 1.096398 -4.111179
v -1.274752 1.061849 -4.158732
v -1.274752 1.075787 -4.151630
v -1.274752 1.086849 -4.140568
v -1.274752 1.093951 -4.126629
v -1.265219 1.096398 -4.111179
v -1.265219 1.046398 -4.161179
v -1.265219 1.093951 -4.126629
v -1.265219 1.086849 -4.140568
v -1.265219 1.075787 -4.151630
v -1.265219 1.061849 -4.158732
v -1.265234 0.993140 -5.640358
v -1.265234 1.043141 -5.604099
v -1.265234 1.043140 -5.184277
v -1.265234 1.029047 -5.635471
v -1.265234 1.028495 -5.148921
v -1.265234 0.993140 -5.134276
v -1.265234 0.557714 -5.138083
v -1.265234 0.556500 -5.512753
v -1.265234 0.530459 -5.478334
v -1.265234 0.526796 -5.458164
v -1.265248 0.526797 -5.186372
v -1.265234 0.540890 -5.497503
v -1.265234 0.574913 -5.521764
v -1.265234 1.039478 -5.622199
v -1.265234 1.013438 -5.641899
v -1.265234 0.576797 -5.134276
v -1.265234 1.012275 -5.138082
v -1.265234 0.541442 -5.148921
v -1.265234 0.530603 -5.165142
v -1.265234 1.039335 -5.165142
v -1.265219 1.129609 -3.191517
v -1.265219 1.122289 -3.198837
v -1.265219 1.132289 -3.181517
v -1.265219 1.112289 -3.201518
v -1.265218 1.128255 -1.838760
v -1.265219 1.135576 -1.846081
v -1.265218 1.118255 -1.836081
v -1.265219 1.138255 -1.856080
v -1.265219 0.274115 -3.198585
v -1.265219 0.266899 -3.191368
v -1.265219 0.283930 -3.201564
v -1.265218 0.263930 -3.181563
v -1.265144 0.266898 -1.846258
v -1.265144 0.274115 -1.839043
v -1.265144 0.263932 -1.856074
v -1.265145 0.283932 -1.836075
v -1.275018 0.993140 -5.640358
v -1.275018 1.043141 -5.604099
v -1.275018 1.043140 -5.184277
v -1.275018 1.029047 -5.635471
v -1.275018 1.028495 -5.148921
v -1.275018 0.993140 -5.134276
v -1.275018 0.557714 -5.138083
v -1.275018 0.556500 -5.512753
v -1.275018 0.530459 -5.478334
v -1.275018 0.526796 -5.458164
v -1.275032 0.526797 -5.186372
v -1.275018 0.540890 -5.497503
v -1.275018 0.574913 -5.521764
v -1.275018 1.039478 -5.622199
v -1.275018 1.013438 -5.641899
v -1.275018 0.576797 -5.134276
v -1.275018 1.012275 -5.138082
v -1.275018 0.541442 -5.148921
v -1.275018 0.530603 -5.165142
v -1.275018 1.039335 -5.165142
vn 0.0009 0.0363 -0.9993
vn -0.0009 -0.0254 0.9997
vn 1.0000 -0.0000 -0.0000
vn -1.0000 -0.0000 -0.0001
vn 0.0001 -0.0000 1.0000
vn -0.0002 -1.0000 -0.0000
vn -0.0000 -0.0000 1.0000
vn 0.0002 -0.0001 1.0000
vn -1.0000 -0.0000 -0.0000
vn 0.0002 1.0000 -0.0000
vn 0.1010 -0.0261 -0.9945
vn 0.0200 -0.0252 -0.9995
vn 0.0017 -0.0252 -0.9997
vn -0.3279 0.0330 0.9441
vn -0.1552 0.0304 0.9874
vn -0.3298 0.0330 0.9435
vn -0.7847 0.0050 0.6199
vn -0.4145 0.0161 0.9099
vn -0.7776 0.0052 0.6287
vn 0.2364 -0.0226 -0.9714
vn 0.0507 -0.0206 -0.9985
vn 0.0513 -0.0213 -0.9985
vn -0.1028 0.0262 0.9944
vn -0.0319 0.0238 0.9992
vn 0.8248 -0.0066 -0.5654
vn -0.2947 0.0424 -0.9546
vn -0.3138 0.0425 -0.9485
vn -0.4683 0.0190 0.8834
vn -0.2161 0.0240 0.9761
vn -0.4663 0.0191 0.8844
vn 0.2481 -0.0232 -0.9685
vn 0.4936 -0.0182 -0.8695
vn 0.4971 -0.0179 -0.8675
vn 0.8923 -0.0147 -0.4512
vn 0.6242 -0.0272 -0.7808
vn 0.6174 -0.0277 -0.7862
vn -0.3233 0.0423 -0.9454
vn -0.8088 0.0073 0.5881
vn -0.3583 0.0424 -0.9326
vn -0.0977 -0.0221 -0.9950
vn -0.0167 -0.0222 -0.9996
vn -0.0987 -0.0231 -0.9948
vn 0.1552 0.0304 0.9874
vn 0.3279 0.0330 0.9441
vn 0.3298 0.0330 0.9435
vn 0.9001 0.0158 0.4354
vn 0.5984 0.0288 0.8006
vn 0.6021 0.0286 0.7979
vn -0.0506 -0.0210 -0.9985
vn -0.2364 -0.0212 -0.9714
vn -0.0513 -0.0206 -0.9985
vn 0.0319 0.0238 0.9992
vn 0.1028 0.0262 0.9944
vn -0.8607 -0.0103 -0.5090
vn 0.2121 0.0421 -0.9763
vn -0.8584 -0.0104 -0.5129
vn 0.5648 0.0268 0.8248
vn 0.3238 0.0328 0.9455
vn 0.3265 0.0327 0.9446
vn -0.4936 -0.0180 -0.8695
vn -0.2481 -0.0238 -0.9684
vn -0.4971 -0.0179 -0.8675
vn -0.7622 -0.0015 -0.6473
vn -0.4220 -0.0125 -0.9065
vn -0.7717 -0.0014 -0.6360
vn 0.8088 0.0073 0.5881
vn 0.3233 0.0423 -0.9454
vn 0.3583 0.0424 -0.9326
vn -0.2159 -0.0000 0.9764
vn -0.0000 -1.0000 -0.0000
vn -0.0000 1.0000 -0.0000
vn 0.2172 -0.0000 -0.9761
vn -0.9763 -0.0000 -0.2166
vn 0.2117 0.1951 -0.9577
vn 0.1796 0.5557 -0.8118
vn 0.1204 0.8314 -0.5424
vn 0.0423 0.9808 -0.1905
vn 0.2125 -0.1951 -0.9575
vn 0.1803 -0.5555 -0.8117
vn 0.1207 -0.8314 -0.5423
vn 0.0420 -0.9808 -0.1905
vn 0.0423 -0.9808 -0.1905
vn 0.1204 -0.8315 -0.5424
vn 0.1803 -0.5556 -0.8117
vn 0.2117 -0.1951 -0.9577
vn -0.0420 -0.9808 0.1905
vn -0.1207 -0.8314 0.5423
vn -0.1811 -0.5555 0.8116
vn -0.2125 -0.1951 0.9575
vn 0.9763 -0.0000 0.2166
vn -0.8860 -0.0000 -0.4637
vn 0.8860 -0.0000 0.4637
vn -0.8862 -0.0000 -0.4633
vn 0.8862 -0.0000 0.4633
vn -0.0002 -0.0003 -1.0000
vn -0.7827 0.6224 -0.0013
vn -1.0000 -0.0000 0.0001
vn -0.0000 0.0417 -0.9991
vn -0.0000 -0.0308 0.9995
vn 1.0000 0.0001 -0.0000
vn -1.0000 0.0001 -0.0000
vn -1.0000 -0.0001 -0.0001
vn -1.0000 0.0001 -0.0001
vn -0.0002 -0.0000 1.0000
vn -0.0000 -0.0001 1.0000
vn 1.0000 -0.0001 -0.0000
vn 1.0000 0.0001 0.0002
vn 1.0000 0.0002 0.0003
vn 1.0000 -0.0001 -0.0003
vn 1.0000 -0.0001 0.0002
vn 1.0000 -0.0000 -0.0001
vn -1.0000 -0.0004 0.0001
vn -1.0000 -0.0001 0.0001
vn -1.0000 0.0001 0.0002
vn -1.0000 0.0002 0.0001
vn -1.0000 -0.0004 -0.0001
vn 1.0000 0.0013 -0.0009
vn 1.0000 0.0003 0.0001
vn 1.0000 0.0002 -0.0004
vn 1.0000 -0.0000 -0.0002
vn -1.0000 -0.0000 0.0039
vn -1.0000 0.0026 0.0026
vn -1.0000 -0.0001 -0.0000
vn -1.0000 0.0031 -0.0014
vn -1.0000 -0.0001 -0.0018
vn -1.0000 0.0011 0.0039
vn -1.0000 0.0019 0.0010
vn -1.0000 -0.0041 -0.0001
vn -1.0000 0.0018 -0.0003
vn -1.0000 0.0004 -0.0018
vn -1.0000 -0.0003 -0.0009
vn -1.0000 0.0005 -0.0000
vn -1.0000 -0.0007 0.0006
vn 0.0977 -0.0231 -0.9950
vn 0.0987 -0.0221 -0.9949
vn 0.0167 -0.0222 -0.9996
vn -0.2191 0.0245 0.9754
vn -0.0407 0.0211 0.9989
vn -0.0429 0.0212 0.9989
vn -0.9001 0.0158 0.4354
vn -0.6021 0.0286 0.7979
vn -0.5985 0.0288 0.8006
vn 0.3403 -0.0308 -0.9398
vn 0.3378 -0.0299 -0.9407
vn 0.1586 -0.0294 -0.9869
vn -0.0581 0.0240 0.9980
vn -0.1303 0.0265 0.9911
vn -0.1287 0.0264 0.9913
vn 0.0716 0.9974 0.0029
vn 0.0053 0.0226 0.9997
vn 0.0264 0.0226 0.9994
vn -0.0088 0.0095 0.9999
vn -0.0798 0.0120 0.9967
vn 0.0022 0.0235 0.9997
vn 0.8607 -0.0103 -0.5090
vn 0.8584 -0.0104 -0.5130
vn -0.2121 0.0422 -0.9763
vn -0.5648 0.0268 0.8248
vn -0.3265 0.0328 0.9446
vn -0.3238 0.0328 0.9455
vn 0.3239 -0.0295 -0.9456
vn 0.3226 -0.0300 -0.9460
vn 0.5602 -0.0240 -0.8280
vn 0.7622 -0.0015 -0.6473
vn 0.7717 -0.0014 -0.6360
vn 0.4220 -0.0123 -0.9065
vn -0.1653 0.0417 -0.9854
vn -0.8855 0.0147 0.4645
vn -0.8825 0.0148 0.4700
vn -0.1010 -0.0251 -0.9946
vn -0.0017 -0.0252 -0.9997
vn -0.0200 -0.0252 -0.9995
vn 0.0429 0.0212 0.9989
vn 0.0407 0.0211 0.9989
vn 0.2190 0.0245 0.9754
vn 0.7847 0.0050 0.6199
vn 0.7776 0.0052 0.6287
vn 0.4145 0.0160 0.9099
vn -0.1586 -0.0298 -0.9869
vn -0.3378 -0.0308 -0.9407
vn -0.3403 -0.0295 -0.9399
vn 0.1287 0.0264 0.9913
vn 0.1303 0.0265 0.9911
vn 0.0581 0.0240 0.9980
vn -0.0022 0.0226 0.9997
vn -0.0232 0.0226 0.9995
vn 0.0798 0.0120 0.9967
vn 0.0088 0.0095 0.9999
vn -0.0716 0.9974 0.0029
vn -0.0053 0.0234 0.9997
vn -0.0265 0.0234 0.9994
vn -0.8248 -0.0066 -0.5654
vn 0.3138 0.0425 -0.9485
vn 0.2947 0.0424 -0.9546
vn 0.4683 0.0190 0.8834
vn 0.4663 0.0191 0.8844
vn 0.2161 0.0240 0.9761
vn -0.5602 -0.0238 -0.8280
vn -0.3226 -0.0295 -0.9461
vn -0.3239 -0.0301 -0.9456
vn -0.8923 -0.0147 -0.4512
vn -0.6174 -0.0277 -0.7862
vn -0.6242 -0.0274 -0.7808
vn 0.8825 0.0148 0.4700
vn 0.8855 0.0147 0.4644
vn 0.1652 0.0417 -0.9854
vn -0.2173 -0.0000 0.9761
vn 0.2166 -0.0000 -0.9763
vn 0.2132 0.1951 -0.9573
vn 0.1803 0.5556 -0.8117
vn 0.1207 0.8315 -0.5423
vn 0.0421 0.9808 -0.1905
vn 0.1196 -0.8315 -0.5425
vn 0.0425 -0.9808 -0.1905
vn 0.0421 -0.9808 -0.1905
vn 0.1207 -0.8314 -0.5424
vn 0.1796 -0.5557 -0.8118
vn 0.2132 -0.1951 -0.9573
vn -0.0425 -0.9808 0.1905
vn -0.1196 -0.8315 0.5425
vn -0.1796 -0.5556 0.8118
vn -0.2117 -0.1951 0.9577
vn 0.9762 -0.0000 0.2167
vn -0.0213 0.9997 -0.0112
vn -0.9278 -0.0000 -0.3731
vn -0.0478 0.9985 -0.0248
vn -0.8840 -0.0033 -0.4676
vn 0.8857 -0.0000 0.4643
vn 0.8810 -0.0000 0.4732
vn 0.8816 -0.0006 0.4720
vn 0.0213 -0.9997 0.0109
vn 0.8863 0.0006 0.4631
vn -0.0000 -0.0000 -1.0000
vn -0.0006 0.0005 -1.0000
vn 0.8322 -0.0000 -0.5545
vn -0.7817 0.6237 -0.0000
vn 1.0000 -0.0002 -0.0000
vn -0.0001 -0.0000 1.0000
vn -1.0000 0.0001 -0.0002
vn -1.0000 0.0001 0.0001
vn 1.0000 0.0002 -0.0000
vn -1.0000 -0.0002 -0.0000
vn 1.0000 0.0001 -0.0001
vn -1.0000 -0.0003 -0.0001
vn -1.0000 -0.0013 0.0009
vn -1.0000 0.0010 -0.0000
vt 0.791714 0.620096
vt 0.803429 0.699312
vt 0.793787 0.699312
vt 0.802532 0.141068
vt 0.790817 0.220285
vt 0.792890 0.141068
vt 0.000108 0.000419
vt 0.000000 0.000000
vt 0.255794 0.992951
vt 0.000054 0.000209
vt 0.001745 0.006474
vt 0.255768 0.992972
vt 0.992501 0.892762
vt 0.992501 0.801173
vt 0.992501 0.800964
vt 0.993875 0.889088
vt 0.992501 0.888878
vt 0.993875 0.888880
vt 0.435340 0.591543
vt 0.435132 0.589941
vt 0.435340 0.589941
vt 0.435132 0.559048
vt 0.994122 0.797602
vt 0.992501 0.797392
vt 0.994122 0.797393
vt 0.601000 0.976353
vt 0.625880 0.945734
vt 0.628040 0.947891
vt 0.574025 0.976819
vt 0.574852 0.945734
vt 0.600202 0.947067
vt 0.994122 0.798651
vt 0.992501 0.798444
vt 0.994122 0.798442
vt 0.317407 0.833355
vt 0.311739 0.778990
vt 0.315150 0.777979
vt 0.303369 0.795846
vt 0.309341 0.777611
vt 0.311516 0.829419
vt 0.992501 0.889298
vt 0.993875 0.889088
vt 0.993875 0.889297
vt 0.063006 0.972749
vt 0.062126 0.993992
vt 0.048599 0.992760
vt 0.978617 0.170281
vt 0.960004 0.191097
vt 0.957844 0.189023
vt 0.435350 0.896325
vt 0.482967 0.938716
vt 0.435433 0.938780
vt 0.949842 0.280425
vt 0.902312 0.284421
vt 0.902290 0.281029
vt 0.840140 0.130031
vt 0.838280 0.082493
vt 0.840364 0.082501
vt 0.435354 0.892164
vt 0.482879 0.895931
vt 0.949856 0.284709
vt 0.949881 0.313610
vt 0.902336 0.314074
vt 0.427170 0.755209
vt 0.425031 0.802733
vt 0.424961 0.755202
vt 0.949800 0.277116
vt 0.902257 0.277526
vt 0.482897 0.892569
vt 0.435386 0.888844
vt 0.482927 0.889037
vt 0.435445 0.886642
vt 0.843146 0.130032
vt 0.843212 0.082501
vt 0.530585 0.896325
vt 0.483055 0.895931
vt 0.957790 0.148373
vt 0.910259 0.144377
vt 0.957811 0.144981
vt 0.764703 0.843593
vt 0.766563 0.796054
vt 0.767523 0.843588
vt 0.530581 0.892164
vt 0.957765 0.178026
vt 0.910221 0.177562
vt 0.910246 0.148661
vt 0.412364 0.776500
vt 0.414503 0.824024
vt 0.412082 0.824031
vt 0.910301 0.141068
vt 0.530548 0.888844
vt 0.483038 0.892569
vt 0.483007 0.889037
vt 0.530489 0.886642
vt 0.482967 0.886674
vt 0.764479 0.796062
vt 0.761697 0.843593
vt 0.761631 0.796062
vt 0.308562 0.991269
vt 0.308553 0.992851
vt 0.308553 0.991269
vt 0.333639 0.991994
vt 0.333648 0.991240
vt 0.333648 0.991994
vt 0.337178 0.991169
vt 0.337169 0.991923
vt 0.337169 0.991169
vt 0.305983 0.993051
vt 0.305992 0.991169
vt 0.305992 0.993051
vt 0.794710 0.848469
vt 0.793755 0.850835
vt 0.793484 0.850563
vt 0.305992 0.993151
vt 0.305983 0.993151
vt 0.305992 0.993229
vt 0.305983 0.993229
vt 0.337169 0.990967
vt 0.337178 0.991063
vt 0.337169 0.991063
vt 0.308562 0.991171
vt 0.308562 0.991065
vt 0.308553 0.991171
vt 0.308562 0.990967
vt 0.308553 0.991065
vt 0.337178 0.991923
vt 0.337169 0.992023
vt 0.337178 0.992023
vt 0.333648 0.992094
vt 0.333639 0.992094
vt 0.333648 0.992172
vt 0.333639 0.992172
vt 0.305992 0.990967
vt 0.305983 0.991063
vt 0.305983 0.990967
vt 0.305992 0.991063
vt 0.305983 0.991169
vt 0.333639 0.991134
vt 0.333648 0.991134
vt 0.333639 0.991038
vt 0.333648 0.991038
vt 0.333648 0.990967
vt 0.308562 0.992926
vt 0.308562 0.992851
vt 0.202272 0.850999
vt 0.203226 0.848633
vt 0.203498 0.848904
vt 0.813438 0.881957
vt 0.821097 0.869980
vt 0.821098 0.881957
vt 0.149702 0.885230
vt 0.157363 0.873253
vt 0.157363 0.885230
vt 0.821096 0.856888
vt 0.813813 0.869181
vt 0.813812 0.867446
vt 0.156986 0.870719
vt 0.156986 0.872454
vt 0.149702 0.872454
vt 0.149702 0.885433
vt 0.794401 0.886749
vt 0.542789 0.485916
vt 0.542789 0.484149
vt 0.077125 0.990967
vt 0.869255 0.390950
vt 0.077125 0.994217
vt 0.075968 0.990968
vt 0.326898 0.893769
vt 0.203147 0.884749
vt 0.858472 0.642570
vt 0.857304 0.643166
vt 0.858467 0.641708
vt 0.857304 0.643166
vt 0.858472 0.642570
vt 0.840483 0.643046
vt 0.992501 0.892553
vt 0.824186 0.631106
vt 0.005341 0.020764
vt 0.006202 0.011576
vt 0.470249 0.888170
vt 0.063678 0.993383
vt 0.044813 0.972591
vt 0.043310 0.974664
vt 0.803429 0.618024
vt 0.802532 0.222357
vt 0.255794 0.992972
vt 0.255794 0.992992
vt 0.263703 0.978119
vt 0.003491 0.012948
vt 0.001745 0.006474
vt 0.002670 0.010382
vt 0.005341 0.020764
vt 0.000054 0.000209
vt 0.002580 0.010015
vt 0.005160 0.020029
vt 0.255768 0.992951
vt 0.472457 0.887091
vt 0.471564 0.880225
vt 0.468463 0.874437
vt 0.003101 0.005788
vt 0.000108 0.000419
vt 0.002671 0.010382
vt 0.003491 0.012948
vt 0.263677 0.978119
vt 0.267167 0.991067
vt 0.992501 0.889087
vt 0.435132 0.591543
vt 0.435340 0.559048
vt 0.992501 0.797600
vt 0.628040 0.974824
vt 0.627875 0.975650
vt 0.627407 0.976351
vt 0.626707 0.976819
vt 0.625881 0.976983
vt 0.602527 0.976985
vt 0.601700 0.976821
vt 0.600532 0.975652
vt 0.600367 0.974826
vt 0.600366 0.947893
vt 0.600530 0.947067
vt 0.600998 0.946366
vt 0.601699 0.945898
vt 0.602525 0.945734
vt 0.626706 0.945898
vt 0.627407 0.946364
vt 0.627876 0.947065
vt 0.600366 0.947893
vt 0.600365 0.974826
vt 0.600200 0.975652
vt 0.599732 0.976353
vt 0.599032 0.976821
vt 0.598206 0.976985
vt 0.574851 0.976983
vt 0.573325 0.976351
vt 0.572857 0.975650
vt 0.572692 0.974824
vt 0.572692 0.947891
vt 0.572857 0.947065
vt 0.573325 0.946364
vt 0.574026 0.945898
vt 0.598207 0.945734
vt 0.599033 0.945898
vt 0.599734 0.946366
vt 0.992501 0.798652
vt 0.320037 0.799932
vt 0.320037 0.829419
vt 0.319713 0.831049
vt 0.318789 0.832431
vt 0.315777 0.833679
vt 0.314146 0.833355
vt 0.312764 0.832431
vt 0.311841 0.831049
vt 0.311516 0.829419
vt 0.311516 0.779948
vt 0.311576 0.779460
vt 0.311999 0.778560
vt 0.312342 0.778192
vt 0.312752 0.777902
vt 0.313210 0.777705
vt 0.313692 0.777611
vt 0.314188 0.777630
vt 0.314682 0.777755
vt 0.315568 0.778292
vt 0.315916 0.778677
vt 0.316176 0.779116
vt 0.316334 0.779586
vt 0.319664 0.795846
vt 0.304243 0.832431
vt 0.303320 0.831049
vt 0.302996 0.829419
vt 0.302996 0.799932
vt 0.306699 0.779586
vt 0.306857 0.779116
vt 0.307117 0.778677
vt 0.307464 0.778292
vt 0.307883 0.777979
vt 0.308351 0.777755
vt 0.308845 0.777630
vt 0.309823 0.777705
vt 0.310280 0.777902
vt 0.310691 0.778192
vt 0.311034 0.778560
vt 0.311293 0.778990
vt 0.311457 0.779460
vt 0.311516 0.779948
vt 0.311192 0.831049
vt 0.310268 0.832431
vt 0.308886 0.833355
vt 0.307256 0.833679
vt 0.305626 0.833355
vt 0.992501 0.889090
vt 0.048225 0.991997
vt 0.043246 0.973822
vt 0.043513 0.973175
vt 0.044063 0.972743
vt 0.062213 0.972591
vt 0.063678 0.973198
vt 0.064127 0.973871
vt 0.064285 0.974664
vt 0.064285 0.991917
vt 0.064127 0.992710
vt 0.063006 0.993832
vt 0.050861 0.993992
vt 0.050025 0.993840
vt 0.049231 0.993407
vt 0.957844 0.171769
vt 0.958002 0.170976
vt 0.958451 0.170304
vt 0.959124 0.169854
vt 0.959917 0.169697
vt 0.977317 0.169697
vt 0.978067 0.169848
vt 0.978883 0.170928
vt 0.978819 0.171769
vt 0.973904 0.189103
vt 0.973531 0.189866
vt 0.972899 0.190513
vt 0.972104 0.190945
vt 0.971268 0.191097
vt 0.959124 0.190937
vt 0.958451 0.190488
vt 0.958002 0.189816
vt 0.837320 0.130026
vt 0.902333 0.298680
vt 0.949876 0.300398
vt 0.949879 0.327153
vt 0.902335 0.327197
vt 0.427451 0.802739
vt 0.530501 0.938780
vt 0.957768 0.162632
vt 0.957767 0.191149
vt 0.910223 0.191106
vt 0.910225 0.164350
vt 0.414573 0.776494
vt 0.957844 0.141478
vt 0.333639 0.991240
vt 0.793484 0.848661
vt 0.793505 0.848557
vt 0.793563 0.848469
vt 0.793652 0.848410
vt 0.793755 0.848389
vt 0.794518 0.848389
vt 0.794621 0.848410
vt 0.794768 0.848557
vt 0.794789 0.848661
vt 0.794789 0.850563
vt 0.794768 0.850667
vt 0.794710 0.850755
vt 0.794621 0.850814
vt 0.794518 0.850835
vt 0.793652 0.850814
vt 0.793563 0.850755
vt 0.793505 0.850667
vt 0.337178 0.990967
vt 0.308553 0.990967
vt 0.333639 0.990967
vt 0.308553 0.992926
vt 0.203498 0.850807
vt 0.203477 0.850910
vt 0.203418 0.850999
vt 0.203330 0.851057
vt 0.203226 0.851078
vt 0.202464 0.851078
vt 0.202360 0.851057
vt 0.202213 0.850910
vt 0.202193 0.850807
vt 0.202193 0.848904
vt 0.202213 0.848800
vt 0.202272 0.848712
vt 0.202360 0.848653
vt 0.202464 0.848633
vt 0.203330 0.848653
vt 0.203418 0.848712
vt 0.203477 0.848800
vt 0.813435 0.869980
vt 0.149701 0.873253
vt 0.813056 0.860785
vt 0.816726 0.856849
vt 0.821096 0.869181
vt 0.813435 0.869181
vt 0.813812 0.867826
vt 0.813492 0.867446
vt 0.813056 0.867446
vt 0.149702 0.860161
vt 0.154072 0.860122
vt 0.157742 0.864058
vt 0.157742 0.870719
vt 0.157307 0.870719
vt 0.156986 0.871099
vt 0.157363 0.872454
vt 0.157363 0.885433
vt 0.076546 0.994218
vt 0.794401 0.886489
vt 0.326898 0.897731
vt 0.858470 0.642161
vt 0.857777 0.643169
vt 0.856779 0.643162
vt 0.858470 0.642161
vt 0.858467 0.641708
vt 0.846976 0.625208
s 0
usemtl glass#exteriortranslucent
f 33/16/6 38/17/6 32/18/6
f 33/19/7 28/20/7 29/21/7
f 31/22/8 29/21/8 28/20/8
f 41/23/6 46/24/6 40/25/6
f 68/26/3 48/27/3 242/28/3
f 70/29/9 221/30/9 55/31/9
f 31/32/10 34/33/10 30/34/10
f 84/35/3 83/36/3 107/37/3
f 228/38/9 100/39/9 94/40/9
f 43/41/10 36/42/10 37/43/10
f 135/50/11 151/51/12 150/52/13
f 136/53/14 131/54/15 137/55/16
f 141/56/17 148/57/18 147/58/19
f 134/59/20 143/60/21 135/50/22
f 133/61/23 152/62/24 155/63/24
f 145/64/25 130/65/26 144/66/27
f 142/67/28 137/55/29 148/68/30
f 140/69/31 146/70/32 139/71/33
f 138/72/34 139/71/35 146/70/36
f 130/73/37 147/58/38 144/74/39
f 160/75/40 151/51/41 168/76/42
f 157/77/43 161/78/44 162/79/45
f 166/80/46 173/81/47 167/82/48
f 168/76/49 159/83/50 160/75/51
f 177/84/52 174/85/52 158/86/53
f 170/87/54 156/88/55 163/89/56
f 167/90/57 162/79/58 161/78/59
f 171/91/60 165/92/61 164/93/62
f 163/94/63 164/93/64 170/95/65
f 172/96/66 156/97/67 169/98/68
f 258/99/69 263/100/69 244/101/69
f 268/102/70 278/103/70 274/104/70
f 253/105/71 243/106/71 249/107/71
f 248/108/72 273/109/72 254/110/72
f 256/111/73 278/112/73 279/113/73
f 248/108/74 257/114/74 250/115/74
f 250/115/75 256/116/75 251/117/75
f 251/118/76 255/119/76 252/120/76
f 255/119/77 249/107/77 252/120/77
f 260/121/78 244/101/78 258/99/78
f 261/122/79 247/123/79 260/121/79
f 262/124/80 246/125/80 261/122/80
f 259/126/81 245/127/81 262/128/81
f 268/102/82 277/129/82 270/130/82
f 270/130/83 276/131/83 271/132/83
f 276/133/84 272/134/84 271/135/84
f 275/136/85 269/137/85 272/134/85
f 278/103/86 267/138/86 280/139/86
f 280/139/87 266/140/87 281/141/87
f 266/140/88 282/142/88 281/141/88
f 282/143/89 263/100/89 279/144/89
f 246/145/90 268/146/90 269/147/90
f 292/148/91 296/149/91 295/150/91
f 298/151/92 294/152/92 293/153/92
f 286/154/93 309/155/93 306/156/93
f 305/157/94 310/158/94 289/159/94
f 293/153/92 311/160/92 298/151/92
f 316/8/95 323/8/95 333/8/95
f 334/161/9 319/162/9 335/163/9
f 327/164/96 322/165/96 328/166/96
f 313/8/7 321/8/7 330/8/7
f 320/167/3 332/168/3 331/169/3
f 33/16/6 39/206/6 38/17/6
f 33/19/7 32/207/7 28/20/7
f 31/22/105 30/208/105 29/21/105
f 41/23/6 47/209/6 46/24/6
f 242/28/3 44/210/3 63/211/3
f 63/211/3 65/212/3 69/213/3
f 69/213/3 71/214/3 75/215/3
f 75/215/3 73/216/3 68/26/3
f 68/26/3 62/217/3 60/218/3
f 60/218/3 58/219/3 56/220/3
f 56/220/3 54/221/3 52/222/3
f 52/222/106 50/223/106 48/27/106
f 48/27/3 240/224/3 241/225/3
f 241/225/3 239/226/3 242/28/3
f 242/28/3 63/211/3 69/213/3
f 69/213/3 75/215/3 68/26/3
f 68/26/3 60/218/3 56/220/3
f 56/220/3 52/222/3 48/27/3
f 48/27/3 241/225/3 242/28/3
f 242/28/3 69/213/3 68/26/3
f 68/26/3 56/220/3 48/27/3
f 55/31/9 57/227/9 59/228/9
f 59/228/9 61/229/9 67/230/9
f 67/230/9 74/231/9 76/232/9
f 76/232/9 72/233/9 70/29/9
f 70/29/9 66/234/9 64/235/9
f 64/235/9 45/236/9 220/237/9
f 220/237/9 215/238/9 217/239/9
f 217/239/9 216/240/9 221/30/9
f 221/30/9 49/241/9 51/242/9
f 51/242/9 53/243/9 55/31/9
f 55/31/9 59/228/9 67/230/9
f 67/230/9 76/232/9 70/29/9
f 70/29/9 64/235/9 220/237/9
f 220/237/9 217/239/9 221/30/9
f 221/30/9 51/242/9 55/31/9
f 55/31/9 67/230/9 70/29/9
f 70/29/9 220/237/9 221/30/9
f 31/32/10 35/244/10 34/33/10
f 101/245/3 77/246/3 78/247/3
f 78/247/3 80/248/3 84/35/3
f 84/35/3 234/249/3 86/250/3
f 86/250/3 224/251/3 89/252/3
f 89/252/106 93/253/106 79/254/106
f 79/254/106 81/255/106 83/36/106
f 83/36/107 223/256/107 92/257/107
f 92/257/108 96/258/108 98/259/108
f 98/259/109 99/260/109 108/261/109
f 108/261/110 227/262/110 107/37/110
f 107/37/111 106/263/111 105/264/111
f 105/264/100 104/265/100 103/266/100
f 103/266/3 102/267/3 101/245/3
f 101/245/3 78/247/3 84/35/3
f 84/35/3 86/250/3 89/252/3
f 89/252/3 79/254/3 83/36/3
f 83/36/3 92/257/3 98/259/3
f 98/259/3 108/261/3 107/37/3
f 107/37/3 105/264/3 103/266/3
f 103/266/3 101/245/3 84/35/3
f 84/35/3 89/252/3 83/36/3
f 83/36/3 98/259/3 107/37/3
f 107/37/3 103/266/3 84/35/3
f 218/268/9 229/269/9 230/270/9
f 230/270/9 222/271/9 228/38/9
f 228/38/112 219/272/112 109/273/112
f 109/273/113 235/274/113 225/275/113
f 225/275/9 238/276/9 232/277/9
f 232/277/4 226/278/4 100/39/4
f 100/39/114 97/279/114 95/280/114
f 95/280/115 91/281/115 90/282/115
f 90/282/116 82/283/116 237/284/116
f 237/284/9 236/285/9 94/40/9
f 94/40/9 231/286/9 88/287/9
f 88/287/9 87/288/9 85/289/9
f 85/289/9 233/290/9 218/268/9
f 218/268/9 230/270/9 228/38/9
f 228/38/101 109/273/101 225/275/101
f 225/275/9 232/277/9 100/39/9
f 100/39/4 95/280/4 90/282/4
f 90/282/9 237/284/9 94/40/9
f 94/40/9 88/287/9 85/289/9
f 85/289/9 218/268/9 228/38/9
f 228/38/9 225/275/9 100/39/9
f 100/39/9 90/282/9 94/40/9
f 94/40/9 85/289/9 228/38/9
f 43/41/10 42/291/10 36/42/10
f 135/50/134 143/60/135 151/51/136
f 136/53/137 133/61/138 131/54/139
f 141/56/140 142/323/141 148/57/142
f 134/59/143 140/69/144 143/60/145
f 154/324/146 131/54/147 133/61/148
f 133/61/149 153/325/71 152/62/71
f 152/62/150 149/326/151 132/327/150
f 155/63/152 154/324/152 133/61/153
f 152/62/154 132/327/154 155/63/154
f 145/64/155 138/328/156 130/65/157
f 142/67/158 136/53/159 137/55/160
f 140/69/161 134/59/162 146/70/163
f 138/72/164 145/95/165 139/71/166
f 130/73/167 141/56/168 147/58/169
f 160/75/170 150/329/171 151/51/172
f 157/77/173 158/86/174 161/78/175
f 166/80/176 172/96/177 173/81/178
f 168/76/179 165/92/180 159/83/181
f 158/86/182 157/77/183 176/330/184
f 177/84/185 132/331/185 149/332/186
f 158/86/187 176/330/188 177/84/188
f 174/85/71 175/333/71 158/86/189
f 177/84/190 149/332/191 174/85/190
f 170/87/192 169/334/193 156/88/194
f 167/90/195 173/335/196 162/79/197
f 171/91/198 159/83/199 165/92/200
f 163/94/201 171/91/202 164/93/203
f 172/96/204 166/80/205 156/97/206
f 258/99/207 279/144/207 263/100/207
f 268/102/70 264/336/70 278/103/70
f 253/105/71 259/126/71 243/106/71
f 248/108/208 269/137/208 273/109/208
f 279/113/73 258/337/73 260/338/73
f 260/338/73 261/339/73 262/340/73
f 262/340/73 259/341/73 253/342/73
f 253/342/73 255/343/73 256/111/73
f 256/111/73 257/344/73 254/345/73
f 254/345/73 273/346/73 275/347/73
f 275/347/73 276/348/73 277/349/73
f 277/349/73 274/350/73 278/112/73
f 278/112/73 280/351/73 281/352/73
f 281/352/73 282/353/73 279/113/73
f 279/113/73 260/338/73 262/340/73
f 262/340/73 253/342/73 256/111/73
f 256/111/73 254/345/73 275/347/73
f 275/347/73 277/349/73 278/112/73
f 278/112/73 281/352/73 279/113/73
f 279/113/73 262/340/73 256/111/73
f 256/111/73 275/347/73 278/112/73
f 248/108/209 254/110/209 257/114/209
f 250/115/210 257/114/210 256/116/210
f 251/118/211 256/354/211 255/119/211
f 255/119/212 253/105/212 249/107/212
f 260/121/85 247/123/85 244/101/85
f 261/122/84 246/125/84 247/123/84
f 262/124/213 245/355/213 246/125/213
f 259/126/214 243/106/214 245/127/214
f 268/102/215 274/104/215 277/129/215
f 270/130/216 277/129/216 276/131/216
f 276/133/217 275/136/217 272/134/217
f 275/136/218 273/109/218 269/137/218
f 278/103/219 264/336/219 267/138/219
f 280/139/220 267/138/220 266/140/220
f 266/140/221 265/356/221 282/142/221
f 282/143/222 265/357/222 263/100/222
f 269/147/90 248/358/90 250/359/90
f 250/359/90 251/360/90 252/361/90
f 252/361/90 249/362/90 243/363/90
f 243/363/90 245/364/90 246/145/90
f 246/145/223 247/365/223 244/366/223
f 244/366/90 263/367/90 265/368/90
f 265/368/90 266/369/90 267/370/90
f 267/370/90 264/371/90 268/146/90
f 268/146/90 270/372/90 271/373/90
f 271/373/90 272/374/90 269/147/90
f 269/147/90 250/359/90 252/361/90
f 252/361/90 243/363/90 246/145/90
f 246/145/90 244/366/90 265/368/90
f 265/368/90 267/370/90 268/146/90
f 268/146/90 271/373/90 269/147/90
f 269/147/90 252/361/90 246/145/90
f 246/145/90 265/368/90 268/146/90
f 292/148/91 291/375/91 296/149/91
f 298/151/92 297/376/92 294/152/92
f 284/377/91 287/378/91 286/154/91
f 290/379/224 300/380/224 309/155/224
f 309/155/225 308/381/225 306/156/225
f 306/156/226 304/382/226 302/383/226
f 302/383/91 284/377/91 286/154/91
f 286/154/93 290/379/93 309/155/93
f 306/156/227 302/383/227 286/154/227
f 285/384/92 288/385/92 283/386/92
f 283/386/228 301/387/228 303/388/228
f 305/157/229 307/389/229 310/158/229
f 283/386/230 303/388/230 305/157/230
f 289/159/92 285/384/92 283/386/92
f 310/158/231 299/390/231 289/159/231
f 289/159/232 283/386/232 305/157/232
f 293/153/92 312/391/92 311/160/92
f 316/8/233 314/8/233 323/8/233
f 323/8/234 329/8/234 333/8/234
f 333/8/235 325/8/235 316/8/235
f 334/161/9 317/392/9 319/162/9
f 327/164/236 326/393/236 322/165/236
f 330/8/7 324/8/7 313/8/7
f 313/8/7 315/8/7 321/8/7
f 320/167/3 318/394/3 332/168/3
usemtl glass_exterior#exteriortranslucent
f 4/1/1 1/2/1 2/3/1
f 19/7/3 23/8/3 209/9/3
f 27/13/5 25/14/5 24/15/5
f 197/44/3 128/45/3 122/46/3
f 357/7/3 353/8/3 341/9/3
f 378/7/3 382/8/3 394/9/3
f 439/170/3 429/171/3 400/172/3
f 472/8/3 481/8/3 488/8/3
f 506/7/3 510/8/3 522/9/3
f 571/170/3 561/171/3 532/172/3
f 610/10/4 590/11/4 582/12/4
f 639/8/9 657/171/9 619/170/9
f 698/8/9 691/8/9 706/8/9
f 713/10/4 733/11/4 741/12/4
f 745/10/97 753/11/97 757/12/97
f 787/8/9 805/171/9 767/170/9
f 865/181/9 849/182/9 848/183/9
f 4/1/98 3/184/98 1/2/98
f 209/9/3 207/186/3 208/187/3
f 208/187/100 210/188/100 201/189/100
f 201/189/3 199/190/3 200/191/3
f 200/191/3 202/192/3 19/7/3
f 19/7/3 17/193/3 18/8/3
f 18/8/3 20/8/3 23/8/3
f 23/8/3 21/8/3 22/194/3
f 22/194/3 198/195/3 209/9/3
f 209/9/3 208/187/3 201/189/3
f 201/189/3 200/191/3 19/7/3
f 19/7/3 18/8/3 23/8/3
f 23/8/3 22/194/3 209/9/3
f 209/9/3 201/189/3 19/7/3
f 27/13/104 26/176/104 25/14/104
f 122/46/3 190/292/3 111/183/3
f 111/183/3 192/293/3 116/294/3
f 116/294/3 191/295/3 113/182/3
f 113/182/3 114/296/3 197/44/3
f 197/44/106 118/297/106 194/298/106
f 194/298/3 120/299/3 193/300/3
f 193/300/3 121/301/3 195/181/3
f 195/181/117 196/302/117 128/45/117
f 128/45/118 126/303/118 125/304/118
f 125/304/3 189/305/3 122/46/3
f 122/46/3 111/183/3 116/294/3
f 116/294/3 113/182/3 197/44/3
f 197/44/3 194/298/3 193/300/3
f 193/300/119 195/181/119 128/45/119
f 128/45/100 125/304/100 122/46/100
f 122/46/3 116/294/3 197/44/3
f 197/44/120 193/300/120 128/45/120
f 341/9/3 343/186/3 342/187/3
f 342/187/3 340/188/3 349/189/3
f 349/189/3 351/190/3 350/191/3
f 350/191/3 348/192/3 357/7/3
f 357/7/3 359/193/3 358/8/3
f 358/8/3 356/8/3 353/8/3
f 353/8/3 355/8/3 354/194/3
f 354/194/3 352/195/3 341/9/3
f 341/9/3 342/187/3 349/189/3
f 349/189/3 350/191/3 357/7/3
f 357/7/3 358/8/3 353/8/3
f 353/8/3 354/194/3 341/9/3
f 341/9/3 349/189/3 357/7/3
f 394/9/3 392/186/3 393/187/3
f 393/187/100 395/188/100 386/189/100
f 386/189/3 384/190/3 385/191/3
f 385/191/3 387/192/3 378/7/3
f 378/7/3 376/193/3 377/8/3
f 377/8/3 379/8/3 382/8/3
f 382/8/3 380/8/3 381/194/3
f 381/194/3 383/195/3 394/9/3
f 394/9/3 393/187/3 386/189/3
f 386/189/3 385/191/3 378/7/3
f 378/7/3 377/8/3 382/8/3
f 382/8/3 381/194/3 394/9/3
f 394/9/3 386/189/3 378/7/3
f 400/172/3 402/395/3 403/170/3
f 403/170/3 404/396/3 405/171/3
f 405/171/3 401/397/3 436/175/3
f 436/175/3 438/395/3 439/170/3
f 439/170/3 440/396/3 441/171/3
f 441/171/106 437/397/106 424/177/106
f 424/177/3 426/395/3 427/170/3
f 427/170/3 428/396/3 429/171/3
f 429/171/3 425/397/3 423/8/3
f 423/8/3 413/395/3 414/170/3
f 414/170/3 415/396/3 416/171/3
f 416/171/3 412/397/3 400/172/3
f 400/172/3 403/170/3 405/171/3
f 405/171/3 436/175/3 439/170/3
f 439/170/3 441/171/3 424/177/3
f 424/177/3 427/170/3 429/171/3
f 429/171/3 423/8/3 414/170/3
f 414/170/3 416/171/3 400/172/3
f 400/172/3 405/171/3 439/170/3
f 439/170/3 424/177/3 429/171/3
f 429/171/3 414/170/3 400/172/3
f 488/8/3 485/8/3 490/8/3
f 490/8/3 492/8/3 493/8/3
f 493/8/3 495/8/3 494/8/3
f 494/8/3 491/8/3 472/8/3
f 472/8/3 474/8/3 475/8/3
f 475/8/3 477/8/3 476/8/3
f 476/8/237 473/8/237 478/8/237
f 478/8/3 480/8/3 481/8/3
f 481/8/3 483/8/3 482/8/3
f 482/8/3 479/8/3 484/8/3
f 484/8/3 486/8/3 487/8/3
f 487/8/106 489/8/106 488/8/106
f 488/8/3 490/8/3 493/8/3
f 493/8/3 494/8/3 472/8/3
f 472/8/3 475/8/3 476/8/3
f 476/8/3 478/8/3 481/8/3
f 481/8/3 482/8/3 484/8/3
f 484/8/3 487/8/3 488/8/3
f 488/8/3 493/8/3 472/8/3
f 472/8/3 476/8/3 481/8/3
f 481/8/3 484/8/3 488/8/3
f 522/9/3 520/186/3 521/187/3
f 521/187/3 523/188/3 514/189/3
f 514/189/3 512/190/3 513/191/3
f 513/191/3 515/192/3 506/7/3
f 506/7/3 504/193/3 505/8/3
f 505/8/3 507/8/3 510/8/3
f 510/8/3 508/8/3 509/194/3
f 509/194/3 511/195/3 522/9/3
f 522/9/3 521/187/3 514/189/3
f 514/189/3 513/191/3 506/7/3
f 506/7/3 505/8/3 510/8/3
f 510/8/3 509/194/3 522/9/3
f 522/9/3 514/189/3 506/7/3
f 532/172/3 534/395/3 535/170/3
f 535/170/3 536/396/3 537/171/3
f 537/171/3 533/397/3 568/175/3
f 568/175/3 570/395/3 571/170/3
f 571/170/3 572/396/3 573/171/3
f 573/171/3 569/397/3 556/177/3
f 556/177/3 558/395/3 559/170/3
f 559/170/3 560/396/3 561/171/3
f 561/171/3 557/397/3 555/8/3
f 555/8/3 545/395/3 546/170/3
f 546/170/3 547/396/3 548/171/3
f 548/171/3 544/397/3 532/172/3
f 532/172/3 535/170/3 537/171/3
f 537/171/3 568/175/3 571/170/3
f 571/170/3 573/171/3 556/177/3
f 556/177/3 559/170/3 561/171/3
f 561/171/3 555/8/3 546/170/3
f 546/170/3 548/171/3 532/172/3
f 532/172/3 537/171/3 571/170/3
f 571/170/3 556/177/3 561/171/3
f 561/171/3 546/170/3 532/172/3
f 582/12/239 580/196/239 605/180/239
f 605/180/9 607/197/9 606/198/9
f 606/198/101 604/199/101 609/179/101
f 609/179/9 611/200/9 610/10/9
f 610/10/9 608/201/9 589/178/9
f 589/178/4 591/202/4 590/11/4
f 590/11/4 588/203/4 581/204/4
f 581/204/9 583/205/9 582/12/9
f 582/12/240 605/180/240 606/198/240
f 606/198/9 609/179/9 610/10/9
f 610/10/9 589/178/9 590/11/9
f 590/11/103 581/204/103 582/12/103
f 582/12/101 606/198/101 610/10/101
f 619/170/9 618/395/9 616/172/9
f 616/172/9 628/397/9 632/171/9
f 632/171/9 631/396/9 630/170/9
f 630/170/9 629/395/9 639/8/9
f 639/8/9 641/397/9 645/171/9
f 645/171/9 644/396/9 643/170/9
f 643/170/9 642/395/9 640/177/9
f 640/177/123 653/397/123 657/171/123
f 657/171/9 656/396/9 655/170/9
f 655/170/9 654/395/9 652/175/9
f 652/175/9 617/397/9 621/171/9
f 621/171/9 620/396/9 619/170/9
f 619/170/9 616/172/9 632/171/9
f 632/171/9 630/170/9 639/8/9
f 639/8/9 645/171/9 643/170/9
f 643/170/9 640/177/9 657/171/9
f 657/171/9 655/170/9 652/175/9
f 652/175/9 621/171/9 619/170/9
f 619/170/9 632/171/9 639/8/9
f 639/8/9 643/170/9 657/171/9
f 657/171/9 652/175/9 619/170/9
f 706/8/9 701/8/9 704/8/9
f 704/8/9 705/8/9 703/8/9
f 703/8/9 702/8/9 700/8/9
f 700/8/9 695/8/9 698/8/9
f 698/8/9 699/8/9 697/8/9
f 697/8/9 696/8/9 694/8/9
f 694/8/123 689/8/123 692/8/123
f 692/8/101 693/8/101 691/8/101
f 691/8/9 690/8/9 688/8/9
f 688/8/9 707/8/9 710/8/9
f 710/8/9 711/8/9 709/8/9
f 709/8/242 708/8/242 706/8/242
f 706/8/9 704/8/9 703/8/9
f 703/8/9 700/8/9 698/8/9
f 698/8/9 697/8/9 694/8/9
f 694/8/9 692/8/9 691/8/9
f 691/8/9 688/8/9 710/8/9
f 710/8/9 709/8/9 706/8/9
f 706/8/9 703/8/9 698/8/9
f 698/8/9 694/8/9 691/8/9
f 691/8/9 710/8/9 706/8/9
f 741/12/101 743/196/101 718/180/101
f 718/180/101 716/197/101 717/198/101
f 717/198/101 719/199/101 714/179/101
f 714/179/9 712/200/9 713/10/9
f 713/10/9 715/201/9 734/178/9
f 734/178/4 732/202/4 733/11/4
f 733/11/102 735/203/102 742/204/102
f 742/204/101 740/205/101 741/12/101
f 741/12/101 718/180/101 717/198/101
f 717/198/9 714/179/9 713/10/9
f 713/10/9 734/178/9 733/11/9
f 733/11/103 742/204/103 741/12/103
f 741/12/101 717/198/101 713/10/101
f 757/12/113 759/196/113 750/180/113
f 750/180/9 748/197/9 749/198/9
f 749/198/123 751/199/123 746/179/123
f 746/179/9 744/200/9 745/10/9
f 745/10/9 747/201/9 754/178/9
f 754/178/97 752/202/97 753/11/97
f 753/11/97 755/203/97 758/204/97
f 758/204/123 756/205/123 757/12/123
f 757/12/123 750/180/123 749/198/123
f 749/198/9 746/179/9 745/10/9
f 745/10/9 754/178/9 753/11/9
f 753/11/113 758/204/113 757/12/113
f 757/12/123 749/198/123 745/10/123
f 767/170/9 766/395/9 764/172/9
f 764/172/9 776/397/9 780/171/9
f 780/171/9 779/396/9 778/170/9
f 778/170/9 777/395/9 787/8/9
f 787/8/9 789/397/9 793/171/9
f 793/171/9 792/396/9 791/170/9
f 791/170/9 790/395/9 788/177/9
f 788/177/9 801/397/9 805/171/9
f 805/171/9 804/396/9 803/170/9
f 803/170/9 802/395/9 800/175/9
f 800/175/9 765/397/9 769/171/9
f 769/171/9 768/396/9 767/170/9
f 767/170/9 764/172/9 780/171/9
f 780/171/9 778/170/9 787/8/9
f 787/8/9 793/171/9 791/170/9
f 791/170/9 788/177/9 805/171/9
f 805/171/9 803/170/9 800/175/9
f 800/175/9 769/171/9 767/170/9
f 767/170/9 780/171/9 787/8/9
f 787/8/9 791/170/9 805/171/9
f 805/171/9 800/175/9 767/170/9
f 848/183/9 860/292/9 855/46/9
f 855/46/9 859/305/9 856/304/9
f 856/304/244 857/303/244 858/45/244
f 858/45/245 866/302/245 865/181/245
f 865/181/9 854/301/9 863/300/9
f 863/300/9 853/299/9 864/298/9
f 864/298/101 852/297/101 867/44/101
f 867/44/123 850/296/123 849/182/123
f 849/182/9 861/295/9 851/294/9
f 851/294/9 862/293/9 848/183/9
f 848/183/9 855/46/9 856/304/9
f 856/304/246 858/45/246 865/181/246
f 865/181/9 863/300/9 864/298/9
f 864/298/9 867/44/9 849/182/9
f 849/182/9 851/294/9 848/183/9
f 848/183/9 856/304/9 865/181/9
f 865/181/9 864/298/9 849/182/9
usemtl glass_interior#interiortranslucent
f 5/4/2 6/5/2 7/6/2
f 10/10/4 204/11/4 212/12/4
f 181/47/9 129/48/9 183/49/9
f 366/10/9 346/11/9 338/12/9
f 369/10/4 389/11/4 397/12/4
f 419/173/9 434/174/9 443/175/9
f 458/8/9 451/8/9 466/8/9
f 497/10/4 517/11/4 525/12/4
f 531/13/7 529/14/7 528/15/7
f 551/173/9 566/174/9 575/175/9
f 601/7/3 597/8/3 585/9/3
f 615/13/7 613/14/7 614/176/7
f 647/177/3 637/174/3 624/173/3
f 664/8/3 673/8/3 680/8/3
f 722/7/3 726/8/3 738/9/3
f 763/13/5 761/14/5 762/176/5
f 795/177/3 785/174/3 772/173/3
f 831/44/3 822/45/3 819/46/3
f 842/178/3 834/179/3 838/180/3
f 5/4/99 8/185/99 6/5/99
f 212/12/101 214/196/101 15/180/101
f 15/180/101 13/197/101 14/198/101
f 14/198/101 16/199/101 11/179/101
f 11/179/9 9/200/9 10/10/9
f 10/10/9 12/201/9 205/178/9
f 205/178/4 203/202/4 204/11/4
f 204/11/102 206/203/102 213/204/102
f 213/204/9 211/205/9 212/12/9
f 212/12/101 15/180/101 14/198/101
f 14/198/9 11/179/9 10/10/9
f 10/10/9 205/178/9 204/11/9
f 204/11/103 213/204/103 212/12/103
f 212/12/101 14/198/101 10/10/101
f 183/49/121 119/306/121 184/307/121
f 184/307/122 117/308/122 187/309/122
f 187/309/123 188/310/123 182/311/123
f 182/311/124 112/312/124 181/47/124
f 181/47/125 115/313/125 110/314/125
f 110/314/126 180/315/126 123/316/126
f 123/316/127 178/317/127 179/318/127
f 179/318/128 127/319/128 129/48/128
f 129/48/129 186/320/129 124/321/129
f 124/321/130 185/322/130 183/49/130
f 183/49/9 184/307/9 187/309/9
f 187/309/9 182/311/9 181/47/9
f 181/47/131 110/314/131 123/316/131
f 123/316/132 179/318/132 129/48/132
f 129/48/133 124/321/133 183/49/133
f 183/49/9 187/309/9 181/47/9
f 181/47/9 123/316/9 129/48/9
f 338/12/101 336/196/101 361/180/101
f 361/180/101 363/197/101 362/198/101
f 362/198/101 360/199/101 365/179/101
f 365/179/9 367/200/9 366/10/9
f 366/10/9 364/201/9 345/178/9
f 345/178/4 347/202/4 346/11/4
f 346/11/103 344/203/103 337/204/103
f 337/204/9 339/205/9 338/12/9
f 338/12/101 361/180/101 362/198/101
f 362/198/9 365/179/9 366/10/9
f 366/10/9 345/178/9 346/11/9
f 346/11/103 337/204/103 338/12/103
f 338/12/101 362/198/101 366/10/101
f 397/12/101 399/196/101 374/180/101
f 374/180/101 372/197/101 373/198/101
f 373/198/101 375/199/101 370/179/101
f 370/179/9 368/200/9 369/10/9
f 369/10/9 371/201/9 390/178/9
f 390/178/4 388/202/4 389/11/4
f 389/11/102 391/203/102 398/204/102
f 398/204/9 396/205/9 397/12/9
f 397/12/101 374/180/101 373/198/101
f 373/198/9 370/179/9 369/10/9
f 369/10/9 390/178/9 389/11/9
f 389/11/103 398/204/103 397/12/103
f 397/12/101 373/198/101 369/10/101
f 443/175/9 406/397/9 408/173/9
f 408/173/9 409/396/9 410/174/9
f 410/174/9 411/398/9 407/399/9
f 407/399/9 417/397/9 419/173/9
f 419/173/9 420/396/9 421/174/9
f 421/174/9 422/398/9 418/400/9
f 418/400/9 430/397/9 432/173/9
f 432/173/9 433/396/9 434/174/9
f 434/174/9 435/398/9 431/177/9
f 431/177/9 442/397/9 444/173/9
f 444/173/9 445/396/9 446/174/9
f 446/174/9 447/398/9 443/175/9
f 443/175/9 408/173/9 410/174/9
f 410/174/9 407/399/9 419/173/9
f 419/173/9 421/174/9 418/400/9
f 418/400/9 432/173/9 434/174/9
f 434/174/9 431/177/9 444/173/9
f 444/173/9 446/174/9 443/175/9
f 443/175/9 410/174/9 419/173/9
f 419/173/9 418/400/9 434/174/9
f 434/174/9 444/173/9 443/175/9
f 466/8/123 461/8/123 464/8/123
f 464/8/123 465/8/123 463/8/123
f 463/8/9 462/8/9 460/8/9
f 460/8/9 455/8/9 458/8/9
f 458/8/123 459/8/123 457/8/123
f 457/8/9 456/8/9 454/8/9
f 454/8/123 449/8/123 452/8/123
f 452/8/101 453/8/101 451/8/101
f 451/8/9 450/8/9 448/8/9
f 448/8/9 467/8/9 470/8/9
f 470/8/9 471/8/9 469/8/9
f 469/8/123 468/8/123 466/8/123
f 466/8/9 464/8/9 463/8/9
f 463/8/9 460/8/9 458/8/9
f 458/8/9 457/8/9 454/8/9
f 454/8/9 452/8/9 451/8/9
f 451/8/9 448/8/9 470/8/9
f 470/8/9 469/8/9 466/8/9
f 466/8/9 463/8/9 458/8/9
f 458/8/9 454/8/9 451/8/9
f 451/8/9 470/8/9 466/8/9
f 525/12/103 527/196/103 502/180/103
f 502/180/101 500/197/101 501/198/101
f 501/198/101 503/199/101 498/179/101
f 498/179/9 496/200/9 497/10/9
f 497/10/9 499/201/9 518/178/9
f 518/178/4 516/202/4 517/11/4
f 517/11/102 519/203/102 526/204/102
f 526/204/9 524/205/9 525/12/9
f 525/12/101 502/180/101 501/198/101
f 501/198/9 498/179/9 497/10/9
f 497/10/9 518/178/9 517/11/9
f 517/11/103 526/204/103 525/12/103
f 525/12/101 501/198/101 497/10/101
f 531/13/238 530/176/238 529/14/238
f 575/175/9 538/397/9 540/173/9
f 540/173/9 541/396/9 542/174/9
f 542/174/9 543/398/9 539/399/9
f 539/399/9 549/397/9 551/173/9
f 551/173/9 552/396/9 553/174/9
f 553/174/9 554/398/9 550/400/9
f 550/400/9 562/397/9 564/173/9
f 564/173/9 565/396/9 566/174/9
f 566/174/9 567/398/9 563/177/9
f 563/177/9 574/397/9 576/173/9
f 576/173/9 577/396/9 578/174/9
f 578/174/9 579/398/9 575/175/9
f 575/175/9 540/173/9 542/174/9
f 542/174/9 539/399/9 551/173/9
f 551/173/9 553/174/9 550/400/9
f 550/400/9 564/173/9 566/174/9
f 566/174/9 563/177/9 576/173/9
f 576/173/9 578/174/9 575/175/9
f 575/175/9 542/174/9 551/173/9
f 551/173/9 550/400/9 566/174/9
f 566/174/9 576/173/9 575/175/9
f 585/9/3 587/186/3 586/187/3
f 586/187/3 584/188/3 593/189/3
f 593/189/3 595/190/3 594/191/3
f 594/191/3 592/192/3 601/7/3
f 601/7/3 603/193/3 602/8/3
f 602/8/3 600/8/3 597/8/3
f 597/8/3 599/8/3 598/194/3
f 598/194/3 596/195/3 585/9/3
f 585/9/3 586/187/3 593/189/3
f 593/189/3 594/191/3 601/7/3
f 601/7/3 602/8/3 597/8/3
f 597/8/3 598/194/3 585/9/3
f 585/9/3 593/189/3 601/7/3
f 615/13/238 612/15/238 613/14/238
f 624/173/3 622/397/3 659/175/3
f 659/175/3 663/398/3 662/174/3
f 662/174/3 661/396/3 660/173/3
f 660/173/3 658/397/3 647/177/3
f 647/177/3 651/398/3 650/174/3
f 650/174/3 649/396/3 648/173/3
f 648/173/3 646/397/3 634/400/3
f 634/400/3 638/398/3 637/174/3
f 637/174/3 636/396/3 635/173/3
f 635/173/106 633/397/106 623/399/106
f 623/399/3 627/398/3 626/174/3
f 626/174/3 625/396/3 624/173/3
f 624/173/3 659/175/3 662/174/3
f 662/174/3 660/173/3 647/177/3
f 647/177/3 650/174/3 648/173/3
f 648/173/3 634/400/3 637/174/3
f 637/174/3 635/173/3 623/399/3
f 623/399/3 626/174/3 624/173/3
f 624/173/3 662/174/3 647/177/3
f 647/177/3 648/173/3 637/174/3
f 637/174/3 623/399/3 624/173/3
f 680/8/241 677/8/241 682/8/241
f 682/8/3 684/8/3 685/8/3
f 685/8/3 687/8/3 686/8/3
f 686/8/3 683/8/3 664/8/3
f 664/8/3 666/8/3 667/8/3
f 667/8/3 669/8/3 668/8/3
f 668/8/3 665/8/3 670/8/3
f 670/8/100 672/8/100 673/8/100
f 673/8/3 675/8/3 674/8/3
f 674/8/3 671/8/3 676/8/3
f 676/8/3 678/8/3 679/8/3
f 679/8/3 681/8/3 680/8/3
f 680/8/3 682/8/3 685/8/3
f 685/8/3 686/8/3 664/8/3
f 664/8/3 667/8/3 668/8/3
f 668/8/3 670/8/3 673/8/3
f 673/8/3 674/8/3 676/8/3
f 676/8/3 679/8/3 680/8/3
f 680/8/3 685/8/3 664/8/3
f 664/8/3 668/8/3 673/8/3
f 673/8/3 676/8/3 680/8/3
f 738/9/3 736/186/3 737/187/3
f 737/187/3 739/188/3 730/189/3
f 730/189/3 728/190/3 729/191/3
f 729/191/3 731/192/3 722/7/3
f 722/7/3 720/193/3 721/8/3
f 721/8/106 723/8/106 726/8/106
f 726/8/3 724/8/3 725/194/3
f 725/194/3 727/195/3 738/9/3
f 738/9/3 737/187/3 730/189/3
f 730/189/3 729/191/3 722/7/3
f 722/7/3 721/8/3 726/8/3
f 726/8/3 725/194/3 738/9/3
f 738/9/3 730/189/3 722/7/3
f 763/13/7 760/15/7 761/14/7
f 772/173/3 770/397/3 807/175/3
f 807/175/3 811/398/3 810/174/3
f 810/174/3 809/396/3 808/173/3
f 808/173/3 806/397/3 795/177/3
f 795/177/3 799/398/3 798/174/3
f 798/174/3 797/396/3 796/173/3
f 796/173/3 794/397/3 782/400/3
f 782/400/3 786/398/3 785/174/3
f 785/174/3 784/396/3 783/173/3
f 783/173/100 781/397/100 771/399/100
f 771/399/3 775/398/3 774/174/3
f 774/174/3 773/396/3 772/173/3
f 772/173/3 807/175/3 810/174/3
f 810/174/3 808/173/3 795/177/3
f 795/177/3 798/174/3 796/173/3
f 796/173/3 782/400/3 785/174/3
f 785/174/3 783/173/3 771/399/3
f 771/399/3 774/174/3 772/173/3
f 772/173/3 810/174/3 795/177/3
f 795/177/3 796/173/3 785/174/3
f 785/174/3 771/399/3 772/173/3
f 819/46/3 824/292/3 812/183/3
f 812/183/3 826/293/3 815/294/3
f 815/294/3 825/295/3 813/182/3
f 813/182/3 814/296/3 831/44/3
f 831/44/106 816/297/106 828/298/106
f 828/298/3 817/299/3 827/300/3
f 827/300/3 818/301/3 829/181/3
f 829/181/117 830/302/117 822/45/117
f 822/45/118 821/303/118 820/304/118
f 820/304/3 823/305/3 819/46/3
f 819/46/3 812/183/3 815/294/3
f 815/294/3 813/182/3 831/44/3
f 831/44/3 828/298/3 827/300/3
f 827/300/119 829/181/119 822/45/119
f 822/45/100 820/304/100 819/46/100
f 819/46/3 815/294/3 831/44/3
f 831/44/120 827/300/120 822/45/120
f 838/180/243 847/196/243 845/12/243
f 845/12/100 844/205/100 846/204/100
f 846/204/111 843/203/111 841/11/111
f 841/11/111 840/202/111 842/178/111
f 842/178/3 835/201/3 833/10/3
f 833/10/3 832/200/3 834/179/3
f 834/179/100 839/199/100 837/198/100
f 837/198/3 836/197/3 838/180/3
f 838/180/243 845/12/243 846/204/243
f 846/204/111 841/11/111 842/178/111
f 842/178/3 833/10/3 834/179/3
f 834/179/100 837/198/100 838/180/100
f 838/180/243 846/204/243 842/178/243
o movable_L1
v 0.023927 -0.354229 0.036811
v 0.018896 -0.354228 0.036811
v 0.018896 0.416577 0.036903
v 0.023927 0.416576 0.036903
v 0.023927 -0.406324 0.036811
v 0.018896 -0.406323 0.036811
v 0.018896 0.416577 -0.015201
v 0.023927 0.416576 -0.015201
v 0.018896 0.416577 -0.584076
v 0.023927 0.416576 -0.584076
v 0.023927 -0.406324 -0.015285
v 0.018896 -0.406323 -0.015285
v 0.023927 -0.406275 -0.584057
v 0.018896 -0.406274 -0.584057
v 0.018896 0.416577 -0.636152
v 0.023927 0.416576 -0.636152
v 0.023927 -0.406275 -0.636152
v 0.018896 -0.406274 -0.636152
v 0.031104 -0.051755 0.016265
v 0.031104 0.051755 0.016265
v 0.031104 -0.051755 -0.016265
v 0.031104 0.051755 -0.016265
v 0.003833 -0.026702 0.006672
v 0.009495 -0.013186 0.061879
v 0.003833 0.026702 0.006672
v 0.009495 0.013186 0.061879
v 0.015270 -0.026702 0.006672
v 0.015270 -0.013186 0.061879
v 0.015270 0.026702 0.006672
v 0.015270 0.013186 0.061879
v 0.010368 -0.051755 0.016265
v -0.013487 -0.051755 0.016265
v -0.013486 0.051755 0.016265
v 0.010368 0.051755 0.016265
v -0.013486 -0.051755 -0.016265
v 0.010368 -0.051755 -0.016265
v 0.010368 0.051755 -0.016265
v -0.013487 0.051755 -0.016265
v 0.003456 -0.051755 0.011169
v -0.003456 -0.051755 0.011169
v -0.003456 0.051755 0.011169
v 0.003456 0.051755 0.011169
v -0.003456 -0.051755 -0.011169
v 0.003456 -0.051755 -0.011169
v 0.003456 0.051755 -0.011169
v -0.003456 0.051755 -0.011169
v -0.026885 -0.051755 0.016265
v -0.028885 -0.051755 0.014265
v -0.028885 0.051755 0.014265
v -0.026885 0.051755 0.016265
v -0.028885 -0.051755 -0.014265
v -0.026885 -0.051755 -0.016265
v -0.026885 0.051755 -0.016265
v -0.028885 0.051755 -0.014265
vn 1.0000 -0.0000 -0.0000
vn -1.0000 -0.0000 -0.0000
vn -0.0000 -0.0000 -1.0000
vn -0.0000 -0.0001 1.0000
vn -0.0000 -0.0000 1.0000
vn -0.0000 -1.0000 -0.0000
vn -0.0000 1.0000 -0.0000
vn -0.9948 -0.0000 0.1020
vn 0.4529 -0.0000 -0.8916
vn -0.5934 -0.0000 0.8049
vn 0.4529 -0.0000 0.8916
vn -0.5934 -0.0000 -0.8049
vn -0.7071 -0.0000 0.7071
vn -0.7071 -0.0000 -0.7071
vn -1.0000 0.0050 -0.0000
vt 0.790765 0.949802
vt 0.765033 0.951959
vt 0.765032 0.917856
vt 0.964760 0.470461
vt 0.939028 0.468304
vt 0.964761 0.436357
vt 0.218219 0.612451
vt 0.218428 0.579957
vt 0.218428 0.612451
vt 0.790136 0.918488
vt 0.272078 0.991248
vt 0.272033 0.990979
vt 0.272033 0.991237
vt 0.299815 0.991248
vt 0.299727 0.990967
vt 0.299727 0.991248
vt 0.326104 0.990972
vt 0.326053 0.990967
vt 0.326043 0.991014
vt 0.326137 0.991103
vt 0.326189 0.991107
vt 0.326197 0.991061
vt 0.269610 0.991215
vt 0.269569 0.990990
vt 0.269569 0.991225
vt 0.625000 0.000000
vt 0.375000 0.250000
vt 0.375000 0.000000
vt 0.375000 0.500000
vt 0.625000 0.750000
vt 0.375000 0.750000
vt 0.875000 0.500000
vt 0.625000 0.500000
vt 0.326119 0.990967
vt 0.326202 0.991014
vt 0.326208 0.990967
vt 0.326130 0.991045
vt 0.326199 0.991045
vt 0.326119 0.991107
vt 0.326037 0.991061
vt 0.326031 0.991107
vt 0.326111 0.991029
vt 0.326041 0.991029
vt 0.269523 0.991237
vt 0.269478 0.990967
vt 0.269478 0.991248
vt 0.269554 0.990986
vt 0.269554 0.991229
vt 0.330868 0.991180
vt 0.330821 0.990967
vt 0.330821 0.991180
vt 0.272018 0.990982
vt 0.272018 0.991233
vt 0.272002 0.991229
vt 0.271987 0.990990
vt 0.271987 0.991226
vt 0.272002 0.990986
vt 0.269539 0.991233
vt 0.269523 0.990979
vt 0.269539 0.990982
vt 0.326114 0.991060
vt 0.326039 0.991045
vt 0.326112 0.991045
vt 0.326125 0.991014
vt 0.326201 0.991030
vt 0.326127 0.991030
vt 0.330872 0.990967
vt 0.330872 0.991180
vt 0.269615 0.991001
vt 0.269610 0.991000
vt 0.271946 0.991000
vt 0.271946 0.991215
vt 0.790133 0.951329
vt 0.788606 0.951961
vt 0.763506 0.951327
vt 0.763506 0.918486
vt 0.788609 0.917856
vt 0.966287 0.436987
vt 0.966287 0.469828
vt 0.941187 0.470463
vt 0.939660 0.469830
vt 0.939657 0.436989
vt 0.941184 0.436357
vt 0.218219 0.579957
vt 0.272078 0.990967
vt 0.299815 0.990967
vt 0.326109 0.991014
vt 0.326100 0.990967
vt 0.326049 0.990972
vt 0.326132 0.991061
vt 0.326141 0.991107
vt 0.326193 0.991103
vt 0.625000 0.250000
vt 0.875000 0.750000
vt 0.330868 0.990967
vt 0.269615 0.991214
s 0
usemtl glass#exteriortranslucent
f 868/401/247 880/402/247 877/403/247
f 881/404/248 869/405/248 876/406/248
f 885/407/249 883/408/249 884/409/249
f 871/410/250 869/405/250 868/401/250
f 868/401/247 872/473/247 878/474/247
f 880/402/247 884/475/247 883/476/247
f 868/401/247 878/474/247 880/402/247
f 875/477/247 871/410/247 868/401/247
f 880/402/247 883/476/247 877/403/247
f 877/403/247 875/477/247 868/401/247
f 882/478/248 885/479/248 881/404/248
f 881/404/261 879/480/261 873/481/261
f 869/405/248 870/482/248 874/483/248
f 881/404/248 873/481/248 869/405/248
f 876/406/248 882/478/248 881/404/248
f 869/405/248 874/483/248 876/406/248
f 885/407/249 882/484/249 883/408/249
f 871/410/250 870/482/250 869/405/250
usemtl Material
f 886/411/251 901/412/251 898/413/251
f 888/414/247 887/415/247 886/416/247
f 914/417/252 918/418/252 902/419/252
f 920/420/253 916/421/253 900/422/253
f 919/423/249 905/424/249 902/425/249
f 891/426/254 892/427/254 890/428/254
f 896/429/247 895/430/247 894/431/247
f 893/432/251 895/430/251 897/433/251
f 889/434/253 901/435/253 887/436/253
f 913/437/253 900/422/253 908/438/253
f 886/439/252 903/440/252 888/441/252
f 907/442/252 902/419/252 910/443/252
f 903/444/249 889/445/249 888/446/249
f 902/425/255 913/447/255 910/448/255
f 915/449/248 921/450/248 918/451/248
f 898/413/256 909/452/256 906/453/256
f 907/454/257 900/455/257 899/456/257
f 906/453/251 908/457/251 907/454/251
f 911/458/258 904/459/258 903/444/258
f 910/448/249 912/460/249 911/458/249
f 898/461/252 911/462/252 903/440/252
f 906/463/252 910/443/252 911/462/252
f 904/464/253 909/465/253 901/435/253
f 912/466/253 908/438/253 909/465/253
f 917/467/259 915/449/259 914/468/259
f 919/423/260 921/469/260 920/470/260
f 899/456/251 917/471/251 914/472/251
f 886/411/251 887/485/251 901/412/251
f 888/414/247 889/486/247 887/415/247
f 902/419/252 899/487/252 914/417/252
f 914/417/252 915/488/252 918/418/252
f 918/418/252 919/489/252 902/419/252
f 900/422/253 905/490/253 920/420/253
f 920/420/253 921/491/253 916/421/253
f 916/421/253 917/492/253 900/422/253
f 919/423/249 920/470/249 905/424/249
f 891/426/254 893/493/254 892/427/254
f 896/429/247 897/433/247 895/430/247
f 893/432/251 891/494/251 895/430/251
f 889/434/253 904/464/253 901/435/253
f 913/437/253 905/490/253 900/422/253
f 886/439/252 898/461/252 903/440/252
f 907/442/252 899/487/252 902/419/252
f 903/444/249 904/459/249 889/445/249
f 902/425/255 905/424/255 913/447/255
f 915/449/248 916/495/248 921/450/248
f 898/413/256 901/412/256 909/452/256
f 907/454/257 908/457/257 900/455/257
f 906/453/251 909/452/251 908/457/251
f 911/458/258 912/460/258 904/459/258
f 910/448/249 913/447/249 912/460/249
f 898/461/252 906/463/252 911/462/252
f 906/463/252 907/442/252 910/443/252
f 904/464/253 912/466/253 909/465/253
f 912/466/253 913/437/253 908/438/253
f 917/467/259 916/495/259 915/449/259
f 919/423/260 918/496/260 921/469/260
f 899/456/251 900/455/251 917/471/251
o movable_L2
v 0.023930 0.422717 -0.060687
v 0.018899 0.422718 0.582955
v 0.023930 0.422717 0.582955
v 0.023930 -0.447583 -0.060687
v 0.023930 -0.447583 0.582955
v 0.018899 -0.447582 0.582955
v 0.018885 -0.447583 -0.060688
v 0.018885 0.422717 -0.060688
v 0.031107 -0.051755 -0.016265
v 0.031107 0.051755 -0.016265
v 0.031107 -0.051755 0.016265
v 0.031107 0.051755 0.016265
v 0.003836 -0.026702 -0.006671
v 0.009498 -0.013186 -0.061879
v 0.003836 0.026702 -0.006671
v 0.009498 0.013186 -0.061879
v 0.015273 -0.026702 -0.006671
v 0.015273 -0.013186 -0.061879
v 0.015273 0.026702 -0.006671
v 0.015273 0.013186 -0.061879
v 0.010371 -0.051755 -0.016265
v -0.013483 -0.051755 -0.016265
v -0.013483 0.051755 -0.016265
v 0.010371 0.051755 -0.016265
v -0.013483 -0.051755 0.016265
v 0.010371 -0.051755 0.016265
v 0.010371 0.051755 0.016265
v -0.013483 0.051755 0.016265
v 0.003459 -0.051755 -0.011169
v -0.003453 -0.051755 -0.011169
v -0.003453 0.051755 -0.011169
v 0.003459 0.051755 -0.011169
v -0.003453 -0.051755 0.011169
v 0.003459 -0.051755 0.011169
v 0.003459 0.051755 0.011169
v -0.003453 0.051755 0.011169
v -0.026882 -0.051755 -0.016265
v -0.028882 -0.051755 -0.014265
v -0.028882 0.051755 -0.014265
v -0.026882 0.051755 -0.016265
v -0.028882 -0.051755 0.014265
v -0.026882 -0.051755 0.016265
v -0.026882 0.051755 0.016265
v -0.028882 0.051755 0.014265
vn 1.0000 -0.0000 -0.0000
vn -1.0000 -0.0000 -0.0000
vn 0.0002 -0.0000 -1.0000
vn -0.0000 -0.0000 -1.0000
vn -0.0000 -1.0000 -0.0000
vn -0.0000 1.0000 -0.0000
vn -0.0000 -0.0000 1.0000
vn -0.9948 -0.0000 -0.1020
vn -0.0000 0.9713 -0.2378
vn -0.0000 -0.9713 -0.2378
vn 0.4529 -0.0000 0.8916
vn -0.5934 -0.0000 -0.8049
vn 0.4530 -0.0000 -0.8915
vn -0.5934 -0.0000 0.8049
vn -0.7071 -0.0000 -0.7071
vn -0.7071 -0.0000 0.7071
vt 0.957471 0.556055
vt 0.980737 0.584388
vt 0.957471 0.584388
vt 0.333266 0.982273
vt 0.356531 0.953940
vt 0.356531 0.982273
vt 0.272033 0.990979
vt 0.272078 0.991248
vt 0.272033 0.991237
vt 0.299727 0.990967
vt 0.299815 0.991248
vt 0.299727 0.991248
vt 0.326043 0.991014
vt 0.326053 0.990967
vt 0.326104 0.990972
vt 0.326197 0.991061
vt 0.326189 0.991107
vt 0.326137 0.991103
vt 0.269569 0.990990
vt 0.269610 0.991215
vt 0.269569 0.991225
vt 0.375000 0.250000
vt 0.625000 0.000000
vt 0.375000 0.000000
vt 0.375000 0.500000
vt 0.625000 0.250000
vt 0.625000 0.750000
vt 0.625000 0.500000
vt 0.375000 0.750000
vt 0.625000 1.000000
vt 0.875000 0.500000
vt 0.326119 0.990967
vt 0.326202 0.991014
vt 0.326125 0.991014
vt 0.326199 0.991045
vt 0.326132 0.991061
vt 0.326130 0.991045
vt 0.326119 0.991107
vt 0.326037 0.991061
vt 0.326114 0.991060
vt 0.326111 0.991029
vt 0.326109 0.991014
vt 0.269478 0.990967
vt 0.269523 0.991237
vt 0.269478 0.991248
vt 0.269554 0.990986
vt 0.269554 0.991229
vt 0.330821 0.990967
vt 0.330868 0.991180
vt 0.330821 0.991180
vt 0.272018 0.990982
vt 0.272018 0.991233
vt 0.271987 0.990990
vt 0.272002 0.991229
vt 0.271987 0.991226
vt 0.272002 0.990986
vt 0.269523 0.990979
vt 0.269539 0.991233
vt 0.269539 0.990982
vt 0.326112 0.991045
vt 0.326041 0.991029
vt 0.326201 0.991030
vt 0.326127 0.991030
vt 0.330872 0.990967
vt 0.330872 0.991180
vt 0.269615 0.991001
vt 0.269610 0.991000
vt 0.271946 0.991000
vt 0.271946 0.991215
vt 0.980737 0.556055
vt 0.333266 0.953940
vt 0.272078 0.990967
vt 0.299815 0.990967
vt 0.326049 0.990972
vt 0.326100 0.990967
vt 0.326193 0.991103
vt 0.326141 0.991107
vt 0.375000 1.000000
vt 0.875000 0.750000
vt 0.326208 0.990967
vt 0.326031 0.991107
vt 0.330868 0.990967
vt 0.326039 0.991045
vt 0.269615 0.991214
s 0
usemtl glass_exterior#exteriortranslucent
f 922/497/262 926/498/262 925/499/262
f 925/499/264 929/501/264 922/497/264
f 922/497/262 924/566/262 926/498/262
f 925/499/264 928/502/264 929/501/264
usemtl glass_interior#interiortranslucent
f 927/500/263 929/501/263 928/502/263
f 927/500/263 923/567/263 929/501/263
usemtl Material
f 945/503/265 930/504/265 942/505/265
f 931/506/262 932/507/262 930/508/262
f 946/509/266 962/510/266 958/511/266
f 944/512/267 960/513/267 964/514/267
f 949/515/268 963/516/268 946/517/268
f 936/518/269 935/519/269 934/520/269
f 940/521/270 937/522/270 936/518/270
f 940/521/262 939/523/262 941/524/262
f 938/525/271 935/526/271 939/523/271
f 939/523/265 937/527/265 941/524/265
f 933/528/267 945/529/267 948/530/267
f 952/531/267 949/532/267 957/533/267
f 930/534/266 947/535/266 942/536/266
f 951/537/266 946/509/266 943/538/266
f 933/539/268 947/540/268 932/541/268
f 957/542/272 946/517/272 954/543/272
f 965/544/263 959/545/263 962/546/263
f 953/547/273 942/505/273 950/548/273
f 944/549/274 951/550/274 943/551/274
f 952/552/265 950/548/265 951/550/265
f 948/553/275 955/554/275 947/540/275
f 956/555/268 954/543/268 955/554/268
f 947/535/266 950/556/266 942/536/266
f 950/556/266 954/557/266 951/537/266
f 948/530/267 953/558/267 956/559/267
f 956/559/267 952/531/267 957/533/267
f 959/545/276 961/560/276 958/561/276
f 965/562/277 963/516/277 964/563/277
f 961/564/265 943/551/265 958/565/265
f 945/503/265 931/568/265 930/504/265
f 931/506/262 933/569/262 932/507/262
f 958/511/266 943/538/266 946/509/266
f 946/509/266 963/570/266 962/510/266
f 962/510/266 959/571/266 958/511/266
f 964/514/267 949/532/267 944/512/267
f 944/512/267 961/572/267 960/513/267
f 960/513/267 965/573/267 964/514/267
f 949/515/268 964/563/268 963/516/268
f 936/518/269 937/522/269 935/519/269
f 940/521/270 941/524/270 937/522/270
f 940/521/262 938/525/262 939/523/262
f 938/525/271 934/574/271 935/526/271
f 939/523/265 935/575/265 937/527/265
f 933/528/267 931/576/267 945/529/267
f 952/531/267 944/512/267 949/532/267
f 930/534/266 932/577/266 947/535/266
f 951/537/266 954/557/266 946/509/266
f 933/539/268 948/553/268 947/540/268
f 957/542/272 949/515/272 946/517/272
f 965/544/263 960/578/263 959/545/263
f 953/547/273 945/503/273 942/505/273
f 944/549/274 952/552/274 951/550/274
f 952/552/265 953/547/265 950/548/265
f 948/553/275 956/555/275 955/554/275
f 956/555/268 957/542/268 954/543/268
f 947/535/266 955/579/266 950/556/266
f 950/556/266 955/579/266 954/557/266
f 948/530/267 945/529/267 953/558/267
f 956/559/267 953/558/267 952/531/267
f 959/545/276 960/578/276 961/560/276
f 965/562/277 962/580/277 963/516/277
f 961/564/265 944/549/265 943/551/265
o movable_L3
v 0.023927 0.416923 -0.060689
v 0.018896 0.416924 0.727746
v 0.023927 0.416923 0.727746
v 0.023927 -0.391575 -0.060689
v 0.023927 -0.391575 0.727746
v 0.018896 -0.391574 0.727746
v 0.018882 -0.391575 -0.060690
v 0.018882 0.416923 -0.060690
v 0.031104 -0.051755 -0.016265
v 0.031104 0.051755 -0.016265
v 0.031104 -0.051755 0.016265
v 0.031104 0.051755 0.016265
v 0.003833 -0.026702 -0.006671
v 0.009495 -0.013186 -0.061879
v 0.003833 0.026702 -0.006671
v 0.009495 0.013186 -0.061879
v 0.015270 -0.026702 -0.006671
v 0.015270 -0.013186 -0.061879
v 0.015270 0.026702 -0.006671
v 0.015270 0.013186 -0.061879
v 0.010368 -0.051755 -0.016265
v -0.013486 -0.051755 -0.016265
v -0.013486 0.051755 -0.016265
v 0.010368 0.051755 -0.016265
v -0.013486 -0.051755 0.016265
v 0.010368 -0.051755 0.016265
v 0.010368 0.051755 0.016265
v -0.013486 0.051755 0.016265
v 0.003456 -0.051755 -0.011169
v -0.003456 -0.051755 -0.011169
v -0.003456 0.051755 -0.011169
v 0.003456 0.051755 -0.011169
v -0.003456 -0.051755 0.011170
v 0.003456 -0.051755 0.011170
v 0.003456 0.051755 0.011170
v -0.003456 0.051755 0.011170
v -0.026885 -0.051755 -0.016265
v -0.028885 -0.051755 -0.014265
v -0.028885 0.051755 -0.014265
v -0.026885 0.051755 -0.016265
v -0.028885 -0.051755 0.014265
v -0.026885 -0.051755 0.016265
v -0.026885 0.051755 0.016265
v -0.028885 0.051755 0.014265
vn 1.0000 -0.0000 -0.0000
vn -1.0000 -0.0000 -0.0000
vn 0.0002 -0.0000 -1.0000
vn -0.0000 -0.0000 -1.0000
vn -0.0000 -1.0000 -0.0000
vn -0.0000 1.0000 -0.0000
vn -0.0000 -0.0000 1.0000
vn -0.9948 -0.0000 -0.1020
vn -0.0000 0.9713 -0.2378
vn -0.0000 -0.9713 -0.2378
vn 0.4529 -0.0000 0.8916
vn -0.5934 -0.0000 -0.8049
vn 0.4530 -0.0000 -0.8915
vn -0.5934 -0.0000 0.8049
vn -0.7071 -0.0000 -0.7071
vn -0.7071 -0.0000 0.7071
vt 0.957471 0.556055
vt 0.980737 0.584388
vt 0.957471 0.584388
vt 0.333266 0.982273
vt 0.356531 0.953940
vt 0.356531 0.982273
vt 0.272033 0.990979
vt 0.272078 0.991248
vt 0.272033 0.991237
vt 0.299727 0.990967
vt 0.299815 0.991248
vt 0.299727 0.991248
vt 0.326043 0.991014
vt 0.326053 0.990967
vt 0.326104 0.990972
vt 0.326197 0.991061
vt 0.326189 0.991107
vt 0.326137 0.991103
vt 0.269569 0.990990
vt 0.269610 0.991215
vt 0.269569 0.991225
vt 0.375000 0.250000
vt 0.625000 0.000000
vt 0.375000 0.000000
vt 0.375000 0.500000
vt 0.625000 0.250000
vt 0.625000 0.750000
vt 0.625000 0.500000
vt 0.375000 0.750000
vt 0.625000 1.000000
vt 0.875000 0.500000
vt 0.326119 0.990967
vt 0.326202 0.991014
vt 0.326125 0.991014
vt 0.326199 0.991045
vt 0.326132 0.991061
vt 0.326130 0.991045
vt 0.326119 0.991107
vt 0.326037 0.991061
vt 0.326114 0.991060
vt 0.326111 0.991029
vt 0.326109 0.991014
vt 0.269478 0.990967
vt 0.269523 0.991237
vt 0.269478 0.991248
vt 0.269554 0.990986
vt 0.269554 0.991229
vt 0.330821 0.990967
vt 0.330868 0.991180
vt 0.330821 0.991180
vt 0.272018 0.990982
vt 0.272018 0.991233
vt 0.271987 0.990990
vt 0.272002 0.991229
vt 0.271987 0.991226
vt 0.272002 0.990986
vt 0.269523 0.990979
vt 0.269539 0.991233
vt 0.269539 0.990982
vt 0.326112 0.991045
vt 0.326041 0.991029
vt 0.326201 0.991030
vt 0.326127 0.991030
vt 0.330872 0.990967
vt 0.330872 0.991180
vt 0.269615 0.991001
vt 0.269610 0.991000
vt 0.271946 0.991000
vt 0.271946 0.991215
vt 0.980737 0.556055
vt 0.333266 0.953940
vt 0.272078 0.990967
vt 0.299815 0.990967
vt 0.326049 0.990972
vt 0.326100 0.990967
vt 0.326193 0.991103
vt 0.326141 0.991107
vt 0.375000 1.000000
vt 0.875000 0.750000
vt 0.326208 0.990967
vt 0.326031 0.991107
vt 0.330868 0.990967
vt 0.326039 0.991045
vt 0.269615 0.991214
s 0
usemtl glass_exterior#exteriortranslucent
f 966/581/278 970/582/278 969/583/278
f 969/583/280 973/585/280 966/581/280
f 966/581/278 968/650/278 970/582/278
f 969/583/280 972/586/280 973/585/280
usemtl glass_interior#interiortranslucent
f 971/584/279 973/585/279 972/586/279
f 971/584/279 967/651/279 973/585/279
usemtl Material
f 989/587/281 974/588/281 986/589/281
f 975/590/278 976/591/278 974/592/278
f 990/593/282 1006/594/282 1002/595/282
f 988/596/283 1004/597/283 1008/598/283
f 993/599/284 1007/600/284 990/601/284
f 980/602/285 979/603/285 978/604/285
f 984/605/286 981/606/286 980/602/286
f 984/605/278 983/607/278 985/608/278
f 982/609/287 979/610/287 983/607/287
f 983/607/281 981/611/281 985/608/281
f 977/612/283 989/613/283 992/614/283
f 996/615/283 993/616/283 1001/617/283
f 974/618/282 991/619/282 986/620/282
f 995/621/282 990/593/282 987/622/282
f 977/623/284 991/624/284 976/625/284
f 1001/626/288 990/601/288 998/627/288
f 1009/628/279 1003/629/279 1006/630/279
f 997/631/289 986/589/289 994/632/289
f 988/633/290 995/634/290 987/635/290
f 996/636/281 994/632/281 995/634/281
f 992/637/291 999/638/291 991/624/291
f 1000/639/284 998/627/284 999/638/284
f 991/619/282 994/640/282 986/620/282
f 994/640/282 998/641/282 995/621/282
f 992/614/283 997/642/283 1000/643/283
f 1000/643/283 996/615/283 1001/617/283
f 1003/629/292 1005/644/292 1002/645/292
f 1009/646/293 1007/600/293 1008/647/293
f 1005/648/281 987/635/281 1002/649/281
f 989/587/281 975/652/281 974/588/281
f 975/590/278 977/653/278 976/591/278
f 1002/595/282 987/622/282 990/593/282
f 990/593/282 1007/654/282 1006/594/282
f 1006/594/282 1003/655/282 1002/595/282
f 1008/598/283 993/616/283 988/596/283
f 988/596/283 1005/656/283 1004/597/283
f 1004/597/283 1009/657/283 1008/598/283
f 993/599/284 1008/647/284 1007/600/284
f 980/602/285 981/606/285 979/603/285
f 984/605/286 985/608/286 981/606/286
f 984/605/278 982/609/278 983/607/278
f 982/609/287 978/658/287 979/610/287
f 983/607/281 979/659/281 981/611/281
f 977/612/283 975/660/283 989/613/283
f 996/615/283 988/596/283 993/616/283
f 974/618/282 976/661/282 991/619/282
f 995/621/282 998/641/282 990/593/282
f 977/623/284 992/637/284 991/624/284
f 1001/626/288 993/599/288 990/601/288
f 1009/628/279 1004/662/279 1003/629/279
f 997/631/289 989/587/289 986/589/289
f 988/633/290 996/636/290 995/634/290
f 996/636/281 997/631/281 994/632/281
f 992/637/291 1000/639/291 999/638/291
f 1000/639/284 1001/626/284 998/627/284
f 991/619/282 999/663/282 994/640/282
f 994/640/282 999/663/282 998/641/282
f 992/614/283 989/613/283 997/642/283
f 1000/643/283 997/642/283 996/615/283
f 1003/629/292 1004/662/292 1005/644/292
f 1009/646/293 1006/664/293 1007/600/293
f 1005/648/281 988/633/281 987/635/281
o movable_R1
v -0.023928 0.422717 -0.060687
v -0.018897 0.422718 0.638694
v -0.023928 0.422717 0.638694
v -0.023928 -0.447583 -0.060687
v -0.023928 -0.447583 0.638694
v -0.018897 -0.447582 0.638694
v -0.018882 -0.447583 -0.060688
v -0.018882 0.422717 -0.060688
v 0.028885 0.051755 0.014265
v 0.026885 0.051755 0.016265
v 0.026885 -0.051755 0.016265
v 0.028885 -0.051755 0.014265
v 0.026885 0.051755 -0.016265
v 0.028885 0.051755 -0.014265
v 0.028885 -0.051755 -0.014265
v 0.026885 -0.051755 -0.016265
v 0.003456 0.051755 0.011169
v -0.003456 0.051755 0.011169
v -0.003456 -0.051755 0.011169
v 0.003456 -0.051755 0.011169
v -0.003456 0.051755 -0.011169
v 0.003456 0.051755 -0.011169
v 0.003456 -0.051755 -0.011169
v -0.003456 -0.051755 -0.011169
v 0.013486 0.051755 0.016265
v -0.010368 0.051755 0.016265
v -0.010368 -0.051755 0.016265
v 0.013486 -0.051755 0.016265
v -0.010368 0.051755 -0.016265
v 0.013486 0.051755 -0.016265
v 0.013486 -0.051755 -0.016265
v -0.010368 -0.051755 -0.016265
v -0.015270 0.013186 -0.061879
v -0.015270 0.026702 -0.006671
v -0.015270 -0.013186 -0.061879
v -0.015270 -0.026702 -0.006671
v -0.009495 0.013186 -0.061879
v -0.003833 0.026702 -0.006671
v -0.009495 -0.013186 -0.061879
v -0.003833 -0.026702 -0.006671
v -0.031104 0.051755 0.016265
v -0.031104 -0.051755 0.016265
v -0.031104 0.051755 -0.016265
v -0.031104 -0.051755 -0.016265
v 0.028885 0.051755 0.014265
v 0.026885 0.051755 0.016265
v 0.026885 -0.051755 0.016265
v 0.028885 -0.051755 0.014265
v 0.026885 0.051755 -0.016265
v 0.028885 0.051755 -0.014265
v 0.028885 -0.051755 -0.014265
v 0.026885 -0.051755 -0.016265
v 0.013486 0.051755 0.016265
v 0.013486 -0.051755 0.016265
v 0.013486 0.051755 -0.016265
v 0.013486 -0.051755 -0.016265
vn -1.0000 -0.0000 -0.0000
vn 1.0000 -0.0000 -0.0000
vn -0.0002 -0.0000 -1.0000
vn -0.0000 -0.0000 -1.0000
vn 0.7071 -0.0000 0.7071
vn 0.7071 -0.0000 -0.7071
vn -0.0000 1.0000 -0.0000
vn -0.0000 -1.0000 -0.0000
vn -0.0000 -0.0000 1.0000
vn 0.5934 -0.0000 0.8049
vn -0.4530 -0.0000 -0.8915
vn 0.5934 -0.0000 -0.8049
vn -0.4529 -0.0000 0.8916
vn -0.0000 -0.9713 -0.2378
vn -0.0000 0.9713 -0.2378
vn 0.9948 -0.0000 -0.1020
vt 0.980737 0.584388
vt 0.957471 0.556055
vt 0.957471 0.584388
vt 0.333266 0.982273
vt 0.356531 0.953940
vt 0.333266 0.953940
vt 0.271987 0.991226
vt 0.271946 0.991000
vt 0.271946 0.991215
vt 0.269610 0.991215
vt 0.269615 0.991001
vt 0.269610 0.991000
vt 0.330872 0.990967
vt 0.330868 0.991180
vt 0.330872 0.991180
vt 0.326127 0.991030
vt 0.326199 0.991045
vt 0.326201 0.991030
vt 0.326125 0.991014
vt 0.326202 0.991014
vt 0.326112 0.991045
vt 0.326041 0.991029
vt 0.326039 0.991045
vt 0.326037 0.991061
vt 0.326114 0.991060
vt 0.269554 0.991229
vt 0.269539 0.990982
vt 0.269539 0.991233
vt 0.269523 0.990979
vt 0.269523 0.991237
vt 0.272018 0.991233
vt 0.272002 0.990986
vt 0.272002 0.991229
vt 0.271987 0.990990
vt 0.272033 0.991237
vt 0.272018 0.990982
vt 0.330821 0.990967
vt 0.330821 0.991180
vt 0.269569 0.991225
vt 0.269554 0.990986
vt 0.269478 0.990967
vt 0.269478 0.991248
vt 0.326111 0.991029
vt 0.326043 0.991014
vt 0.326119 0.991107
vt 0.326031 0.991107
vt 0.326132 0.991061
vt 0.326130 0.991045
vt 0.326119 0.990967
vt 0.326208 0.990967
vt 0.875000 0.500000
vt 0.625000 0.750000
vt 0.625000 0.500000
vt 0.375000 0.750000
vt 0.625000 1.000000
vt 0.375000 1.000000
vt 0.375000 0.500000
vt 0.625000 0.250000
vt 0.375000 0.250000
vt 0.625000 0.000000
vt 0.375000 0.000000
vt 0.269569 0.990990
vt 0.299815 0.991248
vt 0.299727 0.990967
vt 0.299727 0.991248
vt 0.272078 0.991248
vt 0.272033 0.990979
vt 0.326137 0.991103
vt 0.326189 0.991107
vt 0.326197 0.991061
vt 0.326104 0.990972
vt 0.326053 0.990967
vt 0.980737 0.556055
vt 0.356531 0.982273
vt 0.269615 0.991214
vt 0.330868 0.990967
vt 0.326109 0.991014
vt 0.875000 0.750000
vt 0.299815 0.990967
vt 0.272078 0.990967
vt 0.326141 0.991107
vt 0.326193 0.991103
vt 0.326100 0.990967
vt 0.326049 0.990972
s 0
usemtl glass_exterior#exteriortranslucent
f 1014/665/294 1010/666/294 1013/667/294
f 1017/669/296 1013/667/296 1010/666/296
f 1014/665/294 1012/737/294 1010/666/294
f 1017/669/296 1016/738/296 1013/667/296
usemtl glass_interior#interiortranslucent
f 1015/668/295 1017/669/295 1011/670/295
f 1015/668/295 1016/738/295 1017/669/295
usemtl Material
f 1040/671/297 1022/672/297 1025/673/297
f 1020/674/298 1018/675/298 1019/676/298
f 1022/677/299 1024/678/299 1025/679/299
f 1027/680/300 1031/681/300 1030/682/300
f 1035/683/300 1030/682/300 1038/684/300
f 1033/685/301 1029/686/301 1028/687/301
f 1033/685/301 1036/688/301 1041/689/301
f 1029/690/302 1027/691/302 1028/692/302
f 1028/692/303 1035/693/303 1036/694/303
f 1033/695/297 1031/696/297 1032/697/297
f 1032/697/304 1039/698/304 1040/671/304
f 1041/699/305 1030/700/305 1033/695/305
f 1024/678/295 1018/701/295 1021/702/295
f 1037/703/306 1026/704/306 1029/690/306
f 1036/694/302 1050/705/302 1051/706/302
f 1032/707/301 1037/708/301 1029/686/301
f 1053/709/301 1036/688/301 1051/710/301
f 1034/711/300 1031/681/300 1026/712/300
f 1050/713/300 1038/684/300 1052/714/300
f 1046/715/297 1044/716/297 1042/717/297
f 1045/718/307 1048/719/307 1049/720/307
f 1043/721/294 1044/716/294 1045/718/294
f 1046/722/308 1043/721/308 1047/723/308
f 1048/724/309 1047/723/309 1049/725/309
f 1020/674/302 1034/726/302 1037/703/302
f 1051/727/294 1052/728/294 1053/729/294
f 1053/730/297 1038/731/297 1041/699/297
f 1055/732/300 1059/733/300 1064/734/300
f 1061/735/301 1057/736/301 1063/708/301
f 1040/671/297 1039/698/297 1022/672/297
f 1020/674/298 1021/739/298 1018/675/298
f 1022/677/299 1023/740/299 1024/678/299
f 1027/680/300 1026/712/300 1031/681/300
f 1035/683/300 1027/680/300 1030/682/300
f 1033/685/301 1032/707/301 1029/686/301
f 1033/685/301 1028/687/301 1036/688/301
f 1029/690/302 1026/704/302 1027/691/302
f 1028/692/303 1027/691/303 1035/693/303
f 1033/695/297 1030/700/297 1031/696/297
f 1032/697/304 1031/696/304 1039/698/304
f 1041/699/305 1038/731/305 1030/700/305
f 1024/678/295 1023/740/295 1018/701/295
f 1037/703/306 1034/726/306 1026/704/306
f 1036/694/302 1035/693/302 1050/705/302
f 1032/707/301 1040/741/301 1037/708/301
f 1053/709/301 1041/689/301 1036/688/301
f 1034/711/300 1039/734/300 1031/681/300
f 1050/713/300 1035/683/300 1038/684/300
f 1046/715/297 1048/742/297 1044/716/297
f 1045/718/307 1044/716/307 1048/719/307
f 1043/721/294 1042/717/294 1044/716/294
f 1046/722/308 1042/717/308 1043/721/308
f 1048/724/309 1046/722/309 1047/723/309
f 1020/674/302 1019/676/302 1034/726/302
f 1051/727/294 1050/743/294 1052/728/294
f 1053/730/297 1052/744/297 1038/731/297
f 1064/734/300 1062/711/300 1055/732/300
f 1055/732/300 1054/745/300 1059/733/300
f 1059/733/300 1058/746/300 1064/734/300
f 1063/708/301 1065/741/301 1061/735/301
f 1061/735/301 1060/747/301 1057/736/301
f 1057/736/301 1056/748/301 1063/708/301
o movable_R2
v -0.023679 0.416923 -0.060689
v -0.018648 0.416924 0.727746
v -0.023679 0.416923 0.727746
v -0.023679 -0.391575 -0.060689
v -0.023679 -0.391575 0.727746
v -0.018648 -0.391574 0.727746
v -0.018634 -0.391575 -0.060690
v -0.018634 0.416923 -0.060690
v 0.028885 0.051755 0.014265
v 0.026885 0.051755 0.016265
v 0.026885 -0.051755 0.016265
v 0.028885 -0.051755 0.014265
v 0.026885 0.051755 -0.016265
v 0.028885 0.051755 -0.014265
v 0.028885 -0.051755 -0.014265
v 0.026885 -0.051755 -0.016265
v 0.003456 0.051755 0.011169
v -0.003456 0.051755 0.011169
v -0.003456 -0.051755 0.011169
v 0.003456 -0.051755 0.011169
v -0.003456 0.051755 -0.011169
v 0.003456 0.051755 -0.011169
v 0.003456 -0.051755 -0.011169
v -0.003456 -0.051755 -0.011169
v 0.013486 0.051755 0.016265
v -0.010368 0.051755 0.016265
v -0.010368 -0.051755 0.016265
v 0.013486 -0.051755 0.016265
v -0.010368 0.051755 -0.016265
v 0.013486 0.051755 -0.016265
v 0.013486 -0.051755 -0.016265
v -0.010368 -0.051755 -0.016265
v -0.015270 0.013186 -0.061879
v -0.015270 0.026702 -0.006671
v -0.015270 -0.013186 -0.061879
v -0.015270 -0.026702 -0.006671
v -0.009495 0.013186 -0.061879
v -0.003833 0.026702 -0.006671
v -0.009495 -0.013186 -0.061879
v -0.003833 -0.026702 -0.006671
v -0.031104 0.051755 0.016265
v -0.031104 -0.051755 0.016265
v -0.031104 0.051755 -0.016265
v -0.031104 -0.051755 -0.016265
vn -1.0000 -0.0000 -0.0000
vn 1.0000 -0.0000 -0.0000
vn -0.0002 -0.0000 -1.0000
vn -0.0000 -0.0000 -1.0000
vn 0.7071 -0.0000 0.7071
vn 0.7071 -0.0000 -0.7071
vn -0.0000 1.0000 -0.0000
vn -0.0000 -1.0000 -0.0000
vn -0.0000 -0.0000 1.0000
vn 0.5934 -0.0000 0.8049
vn -0.4530 -0.0000 -0.8915
vn 0.5934 -0.0000 -0.8049
vn -0.4529 -0.0000 0.8916
vn -0.0000 -0.9713 -0.2378
vn -0.0000 0.9713 -0.2378
vn 0.9948 -0.0000 -0.1020
vt 0.980737 0.584388
vt 0.957471 0.556055
vt 0.957471 0.584388
vt 0.333266 0.982273
vt 0.356531 0.953940
vt 0.333266 0.953940
vt 0.271987 0.991226
vt 0.271946 0.991000
vt 0.271946 0.991215
vt 0.269610 0.991215
vt 0.269615 0.991001
vt 0.269610 0.991000
vt 0.330872 0.990967
vt 0.330868 0.991180
vt 0.330872 0.991180
vt 0.326127 0.991030
vt 0.326199 0.991045
vt 0.326201 0.991030
vt 0.326125 0.991014
vt 0.326202 0.991014
vt 0.326112 0.991045
vt 0.326041 0.991029
vt 0.326039 0.991045
vt 0.326037 0.991061
vt 0.326114 0.991060
vt 0.269554 0.991229
vt 0.269539 0.990982
vt 0.269539 0.991233
vt 0.269523 0.990979
vt 0.269523 0.991237
vt 0.272018 0.991233
vt 0.272002 0.990986
vt 0.272002 0.991229
vt 0.271987 0.990990
vt 0.272033 0.991237
vt 0.272018 0.990982
vt 0.330821 0.990967
vt 0.330821 0.991180
vt 0.269569 0.991225
vt 0.269554 0.990986
vt 0.269478 0.990967
vt 0.269478 0.991248
vt 0.326111 0.991029
vt 0.326043 0.991014
vt 0.326119 0.991107
vt 0.326031 0.991107
vt 0.326132 0.991061
vt 0.326130 0.991045
vt 0.326119 0.990967
vt 0.326208 0.990967
vt 0.375000 0.750000
vt 0.625000 1.000000
vt 0.375000 1.000000
vt 0.375000 0.500000
vt 0.625000 0.750000
vt 0.625000 0.250000
vt 0.375000 0.250000
vt 0.625000 0.000000
vt 0.375000 0.000000
vt 0.269569 0.990990
vt 0.326137 0.991103
vt 0.326189 0.991107
vt 0.326197 0.991061
vt 0.326104 0.990972
vt 0.326053 0.990967
vt 0.299815 0.991248
vt 0.299727 0.990967
vt 0.299727 0.991248
vt 0.272078 0.991248
vt 0.272033 0.990979
vt 0.625000 0.500000
vt 0.980737 0.556055
vt 0.356531 0.982273
vt 0.269615 0.991214
vt 0.330868 0.990967
vt 0.326109 0.991014
vt 0.326141 0.991107
vt 0.326193 0.991103
vt 0.326100 0.990967
vt 0.326049 0.990972
vt 0.299815 0.990967
vt 0.272078 0.990967
s 0
usemtl glass#exteriortranslucent
f 1070/749/310 1066/750/310 1069/751/310
f 1073/753/312 1069/751/312 1066/750/312
f 1070/749/310 1068/820/310 1066/750/310
f 1073/753/312 1072/821/312 1069/751/312
usemtl glass_exterior#exteriortranslucent
f 1071/752/311 1073/753/311 1067/754/311
f 1071/752/311 1072/821/311 1073/753/311
usemtl Material
f 1096/755/313 1078/756/313 1081/757/313
f 1076/758/314 1074/759/314 1075/760/314
f 1078/761/315 1080/762/315 1081/763/315
f 1083/764/316 1087/765/316 1086/766/316
f 1091/767/316 1086/766/316 1094/768/316
f 1089/769/317 1085/770/317 1084/771/317
f 1089/769/317 1092/772/317 1097/773/317
f 1085/774/318 1083/775/318 1084/776/318
f 1084/776/319 1091/777/319 1092/778/319
f 1089/779/313 1087/780/313 1088/781/313
f 1088/781/320 1095/782/320 1096/755/320
f 1097/783/321 1086/784/321 1089/779/321
f 1080/762/311 1074/785/311 1077/786/311
f 1093/787/322 1082/788/322 1085/774/322
f 1092/778/318 1106/789/318 1107/790/318
f 1088/791/317 1093/792/317 1085/770/317
f 1109/793/317 1092/772/317 1107/794/317
f 1090/795/316 1087/765/316 1082/796/316
f 1106/797/316 1094/768/316 1108/798/316
f 1101/799/323 1104/800/323 1105/801/323
f 1099/802/310 1100/803/310 1101/799/310
f 1102/804/324 1099/802/324 1103/805/324
f 1104/806/325 1103/805/325 1105/807/325
f 1076/758/318 1090/808/318 1093/787/318
f 1075/809/316 1079/810/316 1095/811/316
f 1081/812/317 1077/813/317 1093/792/317
f 1107/814/310 1108/815/310 1109/816/310
f 1109/817/313 1094/818/313 1097/783/313
f 1098/819/313 1104/806/313 1100/803/313
f 1096/755/313 1095/782/313 1078/756/313
f 1076/758/314 1077/822/314 1074/759/314
f 1078/761/315 1079/823/315 1080/762/315
f 1083/764/316 1082/796/316 1087/765/316
f 1091/767/316 1083/764/316 1086/766/316
f 1089/769/317 1088/791/317 1085/770/317
f 1089/769/317 1084/771/317 1092/772/317
f 1085/774/318 1082/788/318 1083/775/318
f 1084/776/319 1083/775/319 1091/777/319
f 1089/779/313 1086/784/313 1087/780/313
f 1088/781/320 1087/780/320 1095/782/320
f 1097/783/321 1094/818/321 1086/784/321
f 1080/762/311 1079/823/311 1074/785/311
f 1093/787/322 1090/808/322 1082/788/322
f 1092/778/318 1091/777/318 1106/789/318
f 1088/791/317 1096/824/317 1093/792/317
f 1109/793/317 1097/773/317 1092/772/317
f 1090/795/316 1095/811/316 1087/765/316
f 1106/797/316 1091/767/316 1094/768/316
f 1101/799/323 1100/803/323 1104/800/323
f 1099/802/310 1098/819/310 1100/803/310
f 1102/804/324 1098/819/324 1099/802/324
f 1104/806/325 1102/804/325 1103/805/325
f 1076/758/318 1075/760/318 1090/808/318
f 1095/811/316 1090/795/316 1075/809/316
f 1075/809/316 1074/825/316 1079/810/316
f 1079/810/316 1078/826/316 1095/811/316
f 1093/792/317 1096/824/317 1081/812/317
f 1081/812/317 1080/827/317 1077/813/317
f 1077/813/317 1076/828/317 1093/792/317
f 1107/814/310 1106/829/310 1108/815/310
f 1109/817/313 1108/830/313 1094/818/313
f 1098/819/313 1102/804/313 1104/806/313
