# Blender 4.2.0 Alpha
# www.blender.org
mtllib wipers.mtl
o wiper1
v -0.029874 -0.005114 -0.009844
v -0.029633 0.013443 -0.009844
v 0.019639 -0.020155 -0.009231
v 0.020155 0.019639 -0.009231
v -0.020155 -0.019639 -0.038042
v -0.019639 0.020155 -0.038042
v 0.019639 -0.020155 -0.038042
v 0.020155 0.019639 -0.038042
v 0.019639 -0.020155 -0.000000
v -0.029874 -0.005114 -0.000613
v -0.029633 0.013443 -0.000613
v 0.020155 0.019639 -0.000000
v -0.329944 0.173497 -0.009231
v -0.329703 0.192054 -0.009231
v -0.329944 0.173497 0.000000
v -0.329703 0.192054 0.000000
v -0.668303 0.178908 -0.000612
v -0.668021 0.200607 -0.009843
v -0.668303 0.178908 -0.009843
v -0.658349 0.182510 -0.009231
v -0.020155 -0.019639 -0.009231
v -0.019639 0.020155 -0.009231
v -0.020155 -0.019639 0.000000
v -0.019639 0.020155 0.000000
v -0.349277 0.176601 -0.009843
v -0.349013 0.196937 -0.009843
v -0.349277 0.176601 -0.000612
v -0.349013 0.196937 -0.000612
v -0.668021 0.200607 -0.000612
v -0.339938 0.166784 -0.009843
v -0.339421 0.206578 -0.009843
v -0.339938 0.166784 -0.000612
v -0.339421 0.206578 -0.000612
v -0.690106 0.179191 -0.000612
v -0.658718 0.188026 -0.009843
v -0.658675 0.191310 -0.000612
v -0.658675 0.191310 -0.009843
v -0.658718 0.188026 -0.000612
v -0.690106 0.179191 -0.009843
v -0.689824 0.200890 -0.009843
v -0.689824 0.200890 -0.000612
v -0.309831 0.195019 -0.023430
v -0.310056 0.177632 -0.023430
v -1.049996 0.204356 -0.023430
v -1.050215 0.187509 -0.023430
v -0.309831 0.195019 -0.009843
v -0.310056 0.177632 -0.009843
v -1.049996 0.204356 -0.009843
v -1.050215 0.187509 -0.009843
v -0.803142 0.211433 -0.023430
v -0.556422 0.208231 -0.023430
v -0.556907 0.170825 -0.023430
v -0.803628 0.174027 -0.023430
v -0.556422 0.208231 -0.009843
v -0.803142 0.211433 -0.009843
v -0.803628 0.174027 -0.009843
v -0.556907 0.170825 -0.009843
vn 0.9999 -0.0130 -0.0000
vn -0.0000 -0.0000 -1.0000
vn -0.9999 0.0130 -0.0000
vn -0.0130 -0.9999 -0.0000
vn 0.0130 0.9999 -0.0000
vn -0.0000 -0.0000 1.0000
vn 0.5036 0.8639 -0.0000
vn -0.5036 -0.8639 -0.0000
vn 0.0024 0.0873 -0.9962
vn -0.0369 -0.9993 -0.0000
vn 0.0369 0.9993 -0.0000
vn -0.0182 0.9998 -0.0000
vn 0.0617 -0.0008 -0.9981
vn -0.0617 0.0008 0.9981
vn -0.0277 -0.0499 0.9984
vn 0.0277 0.0499 -0.9984
vn 0.5115 0.8593 -0.0000
vn -0.5115 -0.8593 -0.0000
vn 0.0182 -0.9998 -0.0000
vn 0.0535 0.9986 -0.0000
vn 0.0276 -0.9996 -0.0000
vn -0.0546 -0.9985 -0.0000
vn -0.0287 0.9996 -0.0000
vn 0.0056 0.1524 -0.9883
vn 0.0370 0.0668 0.9971
vn -0.0370 -0.0668 -0.9971
vn -0.0371 -0.0669 -0.9971
vn 0.0371 0.0669 0.9971
vt 0.625000 0.250000
vt 0.375000 0.250000
vt 0.375000 0.500000
vt 0.375000 0.750000
vt 0.625000 0.500000
vt 0.375000 1.000000
vt 0.625000 0.750000
vt 0.125000 0.750000
vt 0.125000 0.500000
vt 0.875000 0.500000
vt 0.625000 0.000000
vt 0.375000 0.000000
vt 0.875000 0.750000
vt 0.435640 0.000000
vt 0.564357 1.000000
vt 0.435640 1.000000
vt 0.441710 1.000000
vt 0.481380 0.000000
vt 0.481380 1.000000
vt 0.625000 1.000000
vt 0.441710 1.000000
vt 0.558290 1.000000
vt 0.441710 0.000000
vt 0.558290 0.000000
vt 0.558290 1.000000
vt 0.558290 0.000000
vt 0.441710 0.000000
vt 0.564357 0.000000
vt 0.518614 0.000000
vt 0.518614 1.000000
vt 0.611778 0.696456
vt 0.567085 0.711353
vt 0.567085 0.696456
vt 0.611778 0.711353
vt 0.567085 0.756046
vt 0.611778 0.785842
vt 0.567085 0.800740
vt 0.567085 0.785842
vt 0.611778 0.800740
vt 0.567085 0.845433
vt 0.522392 0.800740
vt 0.522392 0.785842
vt 0.656471 0.785842
vt 0.656471 0.756046
vt 0.611778 0.770944
vt 0.611778 0.756046
vt 0.656471 0.770944
vt 0.522392 0.770944
vt 0.522392 0.756046
vt 0.567085 0.770944
vt 0.611778 0.666660
vt 0.567085 0.681558
vt 0.567085 0.666660
vt 0.611778 0.681558
vt 0.611778 0.845433
vt 0.656471 0.800740
s 0
usemtl Material.007
f 12/1/1 3/2/1 4/1/1
f 7/3/1 4/1/1 3/2/1
f 5/4/2 8/5/2 7/3/2
f 21/6/3 6/7/3 5/4/3
f 21/8/4 7/3/4 3/9/4
f 6/7/5 4/10/5 8/5/5
f 9/2/6 24/11/6 23/12/6
f 22/13/7 33/13/7 24/13/7
f 24/13/5 4/10/5 22/13/5
f 9/9/4 21/8/4 3/9/4
f 27/14/3 26/15/3 25/16/3
f 32/8/8 21/8/8 23/8/8
f 30/6/9 20/17/9 13/17/9
f 17/8/10 30/8/10 32/8/10
f 38/18/11 25/16/11 35/19/11
f 18/13/12 33/13/12 31/13/12
f 22/20/13 1/21/13 2/22/13
f 10/23/14 24/11/14 11/24/14
f 30/6/13 14/25/13 13/17/13
f 16/26/14 32/12/14 15/27/14
f 24/11/15 16/26/15 11/24/15
f 14/25/16 22/20/16 2/22/16
f 1/21/16 30/6/16 13/17/16
f 32/12/15 10/23/15 15/27/15
f 10/23/17 13/17/17 15/27/17
f 13/17/1 16/26/1 15/27/1
f 14/25/18 11/24/18 16/26/18
f 2/22/3 10/23/3 11/24/3
f 26/15/2 30/6/2 25/16/2
f 32/12/6 28/28/6 27/14/6
f 25/16/2 19/6/2 35/19/2
f 28/28/6 29/11/6 36/29/6
f 18/20/2 26/15/2 37/30/2
f 29/11/6 38/18/6 36/29/6
f 35/19/2 18/20/2 37/30/2
f 17/12/6 27/14/6 38/18/6
f 28/28/19 37/30/19 26/15/19
f 36/29/1 35/19/1 37/30/1
f 17/8/4 39/8/4 19/8/4
f 41/11/3 39/6/3 34/12/3
f 41/11/6 17/12/6 29/11/6
f 40/13/5 29/13/5 18/13/5
f 19/6/2 40/20/2 18/20/2
f 12/1/1 9/2/1 3/2/1
f 7/3/1 8/5/1 4/1/1
f 5/4/2 6/7/2 8/5/2
f 21/6/3 22/20/3 6/7/3
f 21/8/4 5/4/4 7/3/4
f 6/7/5 22/13/5 4/10/5
f 9/2/6 12/1/6 24/11/6
f 22/13/7 31/13/7 33/13/7
f 24/13/5 12/10/5 4/10/5
f 9/9/4 23/8/4 21/8/4
f 27/14/3 28/28/3 26/15/3
f 32/8/8 30/8/8 21/8/8
f 30/6/24 19/6/24 20/17/24
f 17/8/10 19/8/10 30/8/10
f 38/18/11 27/14/11 25/16/11
f 18/13/12 29/13/12 33/13/12
f 22/20/13 21/6/13 1/21/13
f 10/23/14 23/12/14 24/11/14
f 30/6/13 31/20/13 14/25/13
f 16/26/14 33/11/14 32/12/14
f 24/11/25 33/11/25 16/26/25
f 14/25/26 31/20/26 22/20/26
f 1/21/27 21/6/27 30/6/27
f 32/12/28 23/12/28 10/23/28
f 10/23/17 1/21/17 13/17/17
f 13/17/1 14/25/1 16/26/1
f 14/25/18 2/22/18 11/24/18
f 2/22/3 1/21/3 10/23/3
f 26/15/2 31/20/2 30/6/2
f 32/12/6 33/11/6 28/28/6
f 25/16/2 30/6/2 19/6/2
f 28/28/6 33/11/6 29/11/6
f 18/20/2 31/20/2 26/15/2
f 29/11/6 17/12/6 38/18/6
f 35/19/2 19/6/2 18/20/2
f 17/12/6 32/12/6 27/14/6
f 28/28/19 36/29/19 37/30/19
f 36/29/1 38/18/1 35/19/1
f 17/8/4 34/8/4 39/8/4
f 41/11/3 40/13/3 39/6/3
f 41/11/6 34/12/6 17/12/6
f 40/13/5 41/13/5 29/13/5
f 19/6/2 39/6/2 40/20/2
usemtl Material.007
f 53/31/2 44/32/2 50/33/2
f 45/34/3 48/35/3 44/32/3
f 57/36/6 46/37/6 54/38/6
f 47/39/1 42/40/1 46/37/1
f 54/38/20 42/41/20 51/42/20
f 52/43/21 47/39/21 57/36/21
f 45/44/22 56/45/22 49/46/22
f 53/47/4 57/36/4 56/45/4
f 48/35/23 50/48/23 44/49/23
f 55/50/5 51/42/5 50/48/5
f 48/35/6 56/45/6 55/50/6
f 56/45/6 54/38/6 55/50/6
f 43/51/2 51/52/2 42/53/2
f 52/54/2 50/33/2 51/52/2
f 53/31/2 45/34/2 44/32/2
f 45/34/3 49/46/3 48/35/3
f 57/36/6 47/39/6 46/37/6
f 47/39/1 43/55/1 42/40/1
f 54/38/20 46/37/20 42/41/20
f 52/43/21 43/56/21 47/39/21
f 45/44/22 53/47/22 56/45/22
f 53/47/4 52/43/4 57/36/4
f 48/35/23 55/50/23 50/48/23
f 55/50/5 54/38/5 51/42/5
f 48/35/6 49/46/6 56/45/6
f 56/45/6 57/36/6 54/38/6
f 43/51/2 52/54/2 51/52/2
f 52/54/2 53/31/2 50/33/2
o wiper2
v 0.029805 -0.005501 -0.009844
v 0.029805 0.013057 -0.009844
v -0.019899 -0.019899 -0.009231
v -0.019899 0.019899 -0.009231
v 0.019899 -0.019899 -0.038042
v 0.019899 0.019899 -0.038042
v -0.019899 -0.019899 -0.038042
v -0.019899 0.019899 -0.038042
v -0.019899 -0.019899 0.000000
v 0.029805 -0.005501 -0.000613
v 0.029805 0.013057 -0.000613
v -0.019899 0.019899 0.000000
v 0.332168 0.109808 -0.009231
v 0.332168 0.128366 -0.009231
v 0.332168 0.109808 -0.000000
v 0.332168 0.128366 -0.000000
v 0.670568 0.110827 -0.000612
v 0.670568 0.132528 -0.009843
v 0.670568 0.110827 -0.009843
v 0.660663 0.114558 -0.009231
v 0.019899 -0.019899 -0.009231
v 0.019899 0.019899 -0.009231
v 0.019899 -0.019899 -0.000000
v 0.019899 0.019899 -0.000000
v 0.351540 0.112661 -0.009843
v 0.351540 0.132998 -0.009843
v 0.351540 0.112661 -0.000612
v 0.351540 0.132998 -0.000612
v 0.670568 0.132528 -0.000612
v 0.342074 0.102966 -0.009843
v 0.342074 0.142764 -0.009843
v 0.342074 0.102966 -0.000612
v 0.342074 0.142764 -0.000612
v 0.692374 0.110827 -0.000612
v 0.661103 0.120069 -0.009843
v 0.661103 0.123353 -0.000612
v 0.661103 0.123353 -0.009843
v 0.661103 0.120069 -0.000612
v 0.692374 0.110827 -0.009843
v 0.692374 0.132528 -0.009843
v 0.692374 0.132528 -0.000612
v 0.312336 0.131589 -0.023430
v 0.312336 0.114200 -0.023430
v 1.052560 0.131319 -0.023430
v 1.052560 0.114471 -0.023430
v 0.312336 0.131589 -0.009843
v 0.312336 0.114200 -0.009843
v 1.052560 0.131319 -0.009843
v 1.052560 0.114471 -0.009843
v 0.805819 0.141599 -0.023430
v 0.559077 0.141599 -0.023430
v 0.559077 0.104190 -0.023430
v 0.805819 0.104190 -0.023430
v 0.559077 0.141599 -0.009843
v 0.805819 0.141599 -0.009843
v 0.805819 0.104190 -0.009843
v 0.559077 0.104190 -0.009843
vn -1.0000 -0.0000 -0.0000
vn -0.0000 -0.0000 -1.0000
vn 1.0000 -0.0000 -0.0000
vn -0.0000 -1.0000 -0.0000
vn -0.0000 1.0000 -0.0000
vn -0.0000 -0.0000 1.0000
vn -0.3563 0.9344 -0.0000
vn 0.3563 -0.9344 -0.0000
vn -0.0036 0.1525 -0.9883
vn 0.0239 -0.9997 -0.0000
vn -0.0239 0.9997 -0.0000
vn 0.0311 0.9995 -0.0000
vn -0.0617 -0.0000 -0.9981
vn 0.0617 -0.0000 0.9981
vn 0.0207 -0.0595 0.9980
vn 0.0194 -0.0558 -0.9983
vn 0.0206 -0.0594 0.9980
vn -0.0311 -0.9995 -0.0000
vn -0.0405 0.9992 -0.0000
vn -0.0405 -0.9992 -0.0000
vn 0.0416 -0.9991 -0.0000
vn 0.0416 0.9991 -0.0000
vn -0.0013 0.0873 -0.9962
vn -0.0194 0.0558 0.9983
vn -0.0207 0.0595 -0.9980
vn -0.0206 0.0594 -0.9980
vt 0.375000 0.250000
vt 0.625000 0.250000
vt 0.375000 0.500000
vt 0.625000 0.500000
vt 0.375000 0.750000
vt 0.625000 0.750000
vt 0.375000 1.000000
vt 0.125000 0.750000
vt 0.125000 0.500000
vt 0.875000 0.500000
vt 0.625000 0.000000
vt 0.375000 0.000000
vt 0.875000 0.750000
vt 0.564357 1.000000
vt 0.435640 0.000000
vt 0.435640 1.000000
vt 0.441710 1.000000
vt 0.481380 0.000000
vt 0.481380 1.000000
vt 0.441710 1.000000
vt 0.625000 1.000000
vt 0.558290 1.000000
vt 0.441710 0.000000
vt 0.558290 1.000000
vt 0.558290 0.000000
vt 0.558290 0.000000
vt 0.441710 0.000000
vt 0.564357 0.000000
vt 0.518614 1.000000
vt 0.518614 0.000000
vt 0.625000 0.166667
vt 0.375000 0.166667
vt 0.625000 0.666667
vt 0.375000 0.666667
vt 0.125000 0.666667
vt 0.875000 0.666667
vt 0.625000 0.583333
vt 0.875000 0.583333
vt 0.125000 0.583333
vt 0.375000 0.583333
vt 0.375000 0.083333
vt 0.625000 0.083333
s 0
usemtl Material.007
f 60/57/29 69/58/29 61/58/29
f 61/58/29 64/59/29 60/57/29
f 65/60/30 62/61/30 64/59/30
f 63/62/31 78/63/31 62/61/31
f 64/59/32 78/64/32 60/65/32
f 61/66/33 63/62/33 65/60/33
f 81/67/34 66/57/34 80/68/34
f 79/69/35 90/69/35 88/69/35
f 61/66/33 81/69/33 79/69/33
f 78/64/32 66/65/32 60/65/32
f 83/70/31 84/71/31 82/72/31
f 78/64/36 89/64/36 80/64/36
f 87/63/37 77/73/37 76/63/37
f 87/64/38 74/64/38 89/64/38
f 82/72/39 95/74/39 92/75/39
f 90/69/40 75/69/40 88/69/40
f 58/76/41 79/77/41 59/78/41
f 67/79/42 81/67/42 80/68/42
f 71/80/41 87/63/41 70/73/41
f 73/81/42 89/68/42 90/67/42
f 73/81/43 81/67/43 68/82/43
f 71/80/44 79/77/44 88/77/44
f 58/76/44 87/63/44 78/63/44
f 67/79/45 89/68/45 72/83/45
f 67/79/35 70/73/35 58/76/35
f 73/81/29 70/73/29 72/83/29
f 68/82/36 71/80/36 73/81/36
f 67/79/31 59/78/31 68/82/31
f 83/70/30 87/63/30 88/77/30
f 85/84/34 89/68/34 84/71/34
f 82/72/30 76/63/30 87/63/30
f 85/84/34 86/67/34 90/67/34
f 83/70/30 75/77/30 94/85/30
f 95/74/34 86/67/34 93/86/34
f 92/75/30 75/77/30 76/63/30
f 84/71/34 74/68/34 95/74/34
f 94/85/46 85/84/46 83/70/46
f 92/75/29 93/86/29 94/85/29
f 74/64/32 96/64/32 91/64/32
f 96/63/31 98/67/31 91/68/31
f 74/68/34 98/67/34 86/67/34
f 86/69/33 97/69/33 75/69/33
f 75/77/30 96/63/30 76/63/30
f 101/57/30 110/87/30 107/88/30
f 105/59/31 102/58/31 101/57/31
f 103/61/34 114/89/34 111/90/34
f 99/63/29 104/62/29 103/61/29
f 99/64/47 111/90/47 108/91/47
f 104/62/48 109/92/48 114/89/48
f 113/93/49 102/66/49 106/60/49
f 114/89/32 110/94/32 113/93/32
f 107/95/50 105/59/50 101/65/50
f 108/91/33 112/96/33 107/95/33
f 112/96/34 106/60/34 105/59/34
f 111/90/34 113/93/34 112/96/34
f 108/97/30 100/67/30 99/68/30
f 107/88/30 109/98/30 108/97/30
f 60/57/29 66/57/29 69/58/29
f 61/58/29 65/60/29 64/59/29
f 65/60/30 63/62/30 62/61/30
f 63/62/31 79/77/31 78/63/31
f 64/59/32 62/61/32 78/64/32
f 61/66/33 79/69/33 63/62/33
f 81/67/34 69/58/34 66/57/34
f 79/69/35 81/69/35 90/69/35
f 61/66/33 69/66/33 81/69/33
f 78/64/32 80/64/32 66/65/32
f 83/70/31 85/84/31 84/71/31
f 78/64/36 87/64/36 89/64/36
f 87/63/51 70/73/51 77/73/51
f 87/64/38 76/64/38 74/64/38
f 82/72/39 84/71/39 95/74/39
f 90/69/40 86/69/40 75/69/40
f 58/76/41 78/63/41 79/77/41
f 67/79/42 68/82/42 81/67/42
f 71/80/41 88/77/41 87/63/41
f 73/81/42 72/83/42 89/68/42
f 73/81/52 90/67/52 81/67/52
f 71/80/53 59/78/53 79/77/53
f 58/76/54 70/73/54 87/63/54
f 67/79/52 80/68/52 89/68/52
f 67/79/35 72/83/35 70/73/35
f 73/81/29 71/80/29 70/73/29
f 68/82/36 59/78/36 71/80/36
f 67/79/31 58/76/31 59/78/31
f 83/70/30 82/72/30 87/63/30
f 85/84/34 90/67/34 89/68/34
f 82/72/30 92/75/30 76/63/30
f 85/84/34 93/86/34 86/67/34
f 83/70/30 88/77/30 75/77/30
f 95/74/34 74/68/34 86/67/34
f 92/75/30 94/85/30 75/77/30
f 84/71/34 89/68/34 74/68/34
f 94/85/46 93/86/46 85/84/46
f 92/75/29 95/74/29 93/86/29
f 74/64/32 76/64/32 96/64/32
f 96/63/31 97/69/31 98/67/31
f 74/68/34 91/68/34 98/67/34
f 86/69/33 98/69/33 97/69/33
f 75/77/30 97/77/30 96/63/30
f 101/57/30 102/58/30 110/87/30
f 105/59/31 106/60/31 102/58/31
f 103/61/34 104/62/34 114/89/34
f 99/63/29 100/77/29 104/62/29
f 99/64/47 103/61/47 111/90/47
f 104/62/48 100/69/48 109/92/48
f 113/93/49 110/94/49 102/66/49
f 114/89/32 109/92/32 110/94/32
f 107/95/50 112/96/50 105/59/50
f 108/91/33 111/90/33 112/96/33
f 112/96/34 113/93/34 106/60/34
f 111/90/34 114/89/34 113/93/34
f 108/97/30 109/98/30 100/67/30
f 107/88/30 110/87/30 109/98/30
